<?xml version="1.0" standalone="no"?>
<!DOCTYPE svg PUBLIC "-//W3C//DTD SVG 20010904//EN"
 "http://www.w3.org/TR/2001/REC-SVG-20010904/DTD/svg10.dtd">
<svg version="1.0" xmlns="http://www.w3.org/2000/svg"
 width="561.000000pt" height="561.000000pt" viewBox="0 0 561.000000 561.000000"
 preserveAspectRatio="xMidYMid meet">
<metadata>
Created by potrace 1.11, written by Peter Selinger 2001-2013
</metadata>
<g transform="translate(0.000000,561.000000) scale(0.100000,-0.100000)"
fill="#000000" stroke="none">
<path d="M2108 4245 c-2 -1 -59 -5 -128 -9 -69 -3 -136 -7 -150 -10 -14 -2
-50 -6 -80 -10 -247 -31 -591 -133 -918 -273 -215 -91 -467 -213 -540 -261
-102 -66 -160 -194 -160 -348 0 -100 21 -224 48 -280 52 -106 201 -183 409
-209 24 -3 55 -7 70 -10 14 -2 67 -9 116 -15 355 -43 538 -87 696 -166 100
-50 126 -93 97 -161 -16 -40 -177 -193 -261 -250 -40 -26 -77 -53 -83 -58 -6
-6 -62 -36 -125 -67 -176 -87 -335 -133 -546 -157 -113 -14 -159 -27 -194 -59
-47 -43 -51 -72 -35 -247 18 -197 43 -263 118 -305 35 -20 57 -24 118 -24 280
1 652 112 905 272 237 151 476 401 545 572 12 30 26 66 32 79 17 43 21 175 8
232 -12 52 -140 312 -213 434 -115 193 -277 333 -445 386 -103 33 -135 51
-145 82 -5 16 -7 30 -4 33 2 3 43 20 90 40 94 38 214 71 292 80 28 4 53 8 56
10 29 16 352 21 614 9 292 -14 358 -7 423 42 34 26 60 75 66 128 12 92 -141
313 -299 432 -81 62 -110 72 -212 79 -49 3 -105 7 -125 8 -21 2 -39 2 -40 1z"/>
<path d="M3294 4216 c-16 -8 -47 -33 -68 -57 -33 -39 -154 -267 -213 -404
-127 -296 -199 -483 -308 -810 -128 -381 -224 -708 -244 -828 -12 -70 -16
-243 -7 -287 20 -93 92 -282 138 -360 50 -83 115 -128 195 -134 123 -10 189
48 423 374 175 245 310 419 340 440 48 34 83 43 128 31 46 -13 84 -42 201
-154 319 -304 690 -458 1105 -458 152 0 219 18 322 83 129 81 214 205 209 304
-4 93 -87 207 -180 250 -69 32 -113 38 -235 35 -307 -10 -402 -5 -530 29 -161
41 -333 139 -403 229 -64 82 -48 133 82 261 124 122 255 220 546 405 353 225
471 315 519 398 60 103 24 214 -108 335 -122 111 -280 146 -406 91 -145 -64
-340 -193 -725 -479 -219 -163 -414 -301 -477 -339 l-37 -22 5 46 c11 115 30
163 132 340 166 291 148 439 -72 580 -146 93 -265 129 -332 101z"/>
</g>
</svg>
