<svg xmlns="http://www.w3.org/2000/svg" viewBox="0 0 142.5 180.3"><defs><style>.cls-1,.cls-2,.cls-3,.cls-5{fill:#59c1b6;}.cls-1,.cls-2{stroke:#fff;}.cls-1,.cls-2,.cls-5{stroke-miterlimit:10;}.cls-2{stroke-width:2px;}.cls-4{fill:#fff;}.cls-5{font-size:27.17px;stroke:#59c1b6;font-family:MyriadPro-Regular, Myriad Pro;}.cls-6{letter-spacing:-0.01em;}.cls-7{letter-spacing:0em;}</style></defs><title>catalog-btn</title><g id="Layer_2" data-name="Layer 2"><g id="Layer_1-2" data-name="Layer 1"><circle class="cls-1" cx="70.18" cy="70.18" r="69.68"/><line class="cls-2" x1="28.62" y1="76.86" x2="28.99" y2="56.79"/><path class="cls-2" d="M28.62,49.62V42.45a4.31,4.31,0,0,1,4.3-4.3h79.24a4.31,4.31,0,0,1,4.3,4.3V98.36a4.31,4.31,0,0,1-4.3,4.3H32.92a4.31,4.31,0,0,1-4.3-4.3L29,84"/><rect class="cls-1" x="23.25" y="73.99" width="7.17" height="14.34" transform="translate(-54.32 108) rotate(-90)"/><rect class="cls-1" x="23.25" y="46.75" width="7.17" height="14.34" transform="translate(-27.08 80.76) rotate(-90)"/><rect class="cls-1" x="46.95" y="46.36" width="56.22" height="33.22" rx="3" ry="3"/><polyline class="cls-1" points="69.63 79.42 61.01 61.7 52.06 77.67"/><polyline class="cls-1" points="87.84 79.58 75.7 56.59 66.76 72.56"/><circle class="cls-1" cx="92.47" cy="55.15" r="4.52"/><path class="cls-3" d="M71.18,86.78h0Z"/><path class="cls-4" d="M71.18,85.28H44.8a1.5,1.5,0,0,0,0,3H71.18a1.5,1.5,0,0,0,0-3H44.8a1.5,1.5,0,0,0,0,3H71.18A1.5,1.5,0,0,0,71.18,85.28Z"/><path class="cls-3" d="M73.46,93.36h0Z"/><path class="cls-4" d="M73.46,91.86H44.78a1.5,1.5,0,0,0,0,3H73.46a1.5,1.5,0,0,0,0-3H44.78a1.5,1.5,0,0,0,0,3H73.46A1.5,1.5,0,0,0,73.46,91.86Z"/><path class="cls-3" d="M105.77,86.78h0Z"/><path class="cls-4" d="M105.77,85.28H79.39a1.5,1.5,0,0,0,0,3h26.38a1.5,1.5,0,0,0,0-3H79.39a1.5,1.5,0,0,0,0,3h26.38A1.5,1.5,0,0,0,105.77,85.28Z"/><path class="cls-3" d="M108,93.36h0Z"/><path class="cls-4" d="M108,91.86H79.37a1.5,1.5,0,0,0,0,3H108a1.5,1.5,0,0,0,0-3H79.37a1.5,1.5,0,0,0,0,3H108A1.5,1.5,0,0,0,108,91.86Z"/><text class="cls-5" transform="translate(27.63 166.25)"><tspan class="cls-6">C</tspan><tspan class="cls-7" x="15.57" y="0">a</tspan><tspan x="28.56" y="0">talog</tspan></text></g></g></svg>