<svg xmlns="http://www.w3.org/2000/svg" viewBox="0 0 140.36 178.21"><defs><style>.cls-1,.cls-2,.cls-4{fill:#59c1b6;}.cls-1{stroke:#fff;}.cls-1,.cls-4{stroke-miterlimit:10;}.cls-3{fill:#fff;}.cls-4{font-size:27.17px;stroke:#59c1b6;font-family:MyriadPro-Regular, Myriad Pro;}.cls-5{letter-spacing:-0.01em;}.cls-6{letter-spacing:0em;}.cls-7{letter-spacing:0.01em;}</style></defs><title>contacts-btn</title><g id="Layer_2" data-name="Layer 2"><g id="Layer_1-2" data-name="Layer 1"><circle class="cls-1" cx="70.18" cy="70.18" r="69.68"/><path class="cls-2" d="M69.11,53.33A16.17,16.17,0,1,1,56.63,26.87c4.22,0,9.29,1.61,12.17,4.25"/><path class="cls-3" d="M68.05,52.27C59.4,61.88,42.67,57.38,42,43.74S57.85,24.16,67.74,32.18c1.48,1.21,3.62-.9,2.12-2.12C58,20.46,38.28,27.21,39,43.74,39.68,59.89,59.71,66,70.17,54.39c1.29-1.43-.82-3.56-2.12-2.12Z"/><path class="cls-2" d="M68.11,66.86c-3.94-5.07-8.26-7.24-11.48-7.64-8.61-1.09-22,10.62-22.41,38.35"/><path class="cls-3" d="M69.17,65.8c-6.68-8-15.74-10.92-24-3.65-9.72,8.61-12.15,23.14-12.48,35.42,0,1.93,3,1.93,3,0C36,86.76,37.9,74.42,45.49,66.09c7.07-7.76,15-6.11,21.55,1.83,1.24,1.49,3.35-.64,2.13-2.12Z"/><path class="cls-2" d="M69.27,52.25a16.17,16.17,0,1,1,13.3,7,16.15,16.15,0,0,1-13.3-7"/><path class="cls-3" d="M70.56,51.49c-4.44-7.13-3-16.49,4.42-21A14.67,14.67,0,0,1,92.47,53.87c-6.57,6-16.65,4.54-21.91-2.38C69.41,50,66.81,51.47,68,53c5.9,7.77,16.56,10.27,24.79,4.46A17.67,17.67,0,0,0,74,27.56C64.8,32.68,62.55,44.29,68,53c1,1.64,3.62.14,2.59-1.51Z"/><path class="cls-2" d="M104.06,113.51c1.61-41.12-13.4-53.27-21.49-54.29C74,58.13,60.62,69.84,60.16,97.57"/><path class="cls-3" d="M105.56,113.51c.44-13.27-.21-27.38-5.71-39.7-2.74-6.13-7.09-12.4-13.5-15.07-5.9-2.46-11.77,0-16.13,4.28C61.27,71.83,59,85.58,58.66,97.57c-.06,1.93,2.94,1.93,3,0C62,86.53,63.93,73.71,72,65.45c4-4.12,9.23-6.17,14.52-3.3,5.66,3.09,9.24,9.26,11.49,15.09,4.41,11.46,4.92,24.13,4.52,36.27-.07,1.93,2.93,1.93,3,0Z"/><text class="cls-4" transform="translate(22.59 164.16)"><tspan class="cls-5">C</tspan><tspan x="15.46" y="0">o</tspan><tspan class="cls-6" x="30.38" y="0">n</tspan><tspan x="45.35" y="0">ta</tspan><tspan class="cls-7" x="67.44" y="0">c</tspan><tspan x="79.97" y="0">ts</tspan></text></g></g></svg>