<svg xmlns="http://www.w3.org/2000/svg" viewBox="0 0 140.36 178.72"><defs><style>.cls-1,.cls-2,.cls-3,.cls-6{fill:#59c1b6;}.cls-1,.cls-6{stroke:#59c1b6;}.cls-1,.cls-2,.cls-5,.cls-6{stroke-miterlimit:10;}.cls-2,.cls-5{stroke:#fff;stroke-width:2px;}.cls-4,.cls-5{fill:#fff;}.cls-5,.cls-6{font-size:27.17px;font-family:MyriadPro-Regular, Myriad Pro;}.cls-7{letter-spacing:-0.01em;}.cls-8{letter-spacing:-0.01em;}.cls-9{letter-spacing:0em;}</style></defs><title>events-btn</title><g id="Layer_2" data-name="Layer 2"><g id="Layer_1-2" data-name="Layer 1"><circle class="cls-1" cx="70.18" cy="70.18" r="69.68"/><line class="cls-2" x1="76.8" y1="45.63" x2="61.84" y2="45.63"/><path class="cls-2" d="M46.58,45.63H37.05A4.09,4.09,0,0,0,33,49.72V97a4.09,4.09,0,0,0,4.09,4.09h63.08a4.1,4.1,0,0,0,4.1-4.09V49.72a4.1,4.1,0,0,0-4.1-4.09H92.06"/><rect class="cls-2" x="50.38" y="32.96" width="7.92" height="15.84"/><rect class="cls-2" x="80.47" y="32.96" width="7.92" height="15.84"/><path class="cls-3" d="M38.59,58.6h59"/><path class="cls-4" d="M38.59,61.6h59c3.86,0,3.87-6,0-6H38.59c-3.86,0-3.87,6,0,6Z"/><text class="cls-5" transform="translate(60.68 85.07)">3</text><text class="cls-6" transform="translate(33.06 164.67)"><tspan class="cls-7">E</tspan><tspan class="cls-8" x="13.18" y="0">v</tspan><tspan x="25.98" y="0">e</tspan><tspan class="cls-9" x="39.59" y="0">n</tspan><tspan x="54.56" y="0">ts</tspan></text></g></g></svg>