<svg xmlns="http://www.w3.org/2000/svg" viewBox="0 0 145.05 178.15"><defs><style>.cls-1,.cls-2,.cls-4{fill:#59c1b6;}.cls-1{stroke:#fff;}.cls-1,.cls-4{stroke-miterlimit:10;}.cls-3{fill:#fff;}.cls-4{font-size:27.17px;stroke:#59c1b6;font-family:MyriadPro-Regular, Myriad Pro;}.cls-5{letter-spacing:0.01em;}.cls-6{letter-spacing:0.03em;}</style></defs><title>gallery-btn</title><g id="Layer_2" data-name="Layer 2"><g id="Layer_1-2" data-name="Layer 1"><path class="cls-1" d="M101.37,16.25h0c22.38-4.09,39.73,19.26,29.36,39.51h0A27.45,27.45,0,0,0,131,81.31h0c10.8,20-6,43.74-28.51,40.13h0a27.47,27.47,0,0,0-24.21,8.15h0c-15.71,16.46-43.47,7.77-47-14.71h0a27.43,27.43,0,0,0-15.24-20.5h0c-20.5-9.85-20.81-38.94-.52-49.23h0A27.42,27.42,0,0,0,30.33,24.32h0C33.36,1.78,60.94-7.51,77,8.61h0A27.46,27.46,0,0,0,101.37,16.25Z"/><rect class="cls-1" x="33.43" y="38.81" width="81.95" height="48.43" rx="3" ry="3"/><polyline class="cls-1" points="66.49 87 53.92 61.16 40.88 84.44"/><polyline class="cls-1" points="93.03 87.24 75.34 53.71 62.3 76.99"/><circle class="cls-1" cx="99.79" cy="51.61" r="6.59"/><line class="cls-2" x1="44.72" y1="92.89" x2="105.21" y2="92.89"/><path class="cls-3" d="M44.72,94.39h60.49a1.5,1.5,0,0,0,0-3H44.72a1.5,1.5,0,0,0,0,3Z"/><line class="cls-2" x1="42.57" y1="33.92" x2="103.07" y2="33.92"/><path class="cls-3" d="M42.57,35.42h60.5a1.5,1.5,0,0,0,0-3H42.57a1.5,1.5,0,0,0,0,3Z"/><line class="cls-2" x1="61.43" y1="111.14" x2="71.08" y2="93.99"/><path class="cls-3" d="M62.72,111.9l9.65-17.16a1.5,1.5,0,0,0-2.59-1.51l-9.65,17.16a1.5,1.5,0,0,0,2.59,1.51Z"/><line class="cls-2" x1="92.52" y1="111.14" x2="82.87" y2="93.99"/><path class="cls-3" d="M93.82,110.39,84.17,93.23a1.5,1.5,0,0,0-2.59,1.51l9.65,17.16c.94,1.68,3.54.17,2.59-1.51Z"/><text class="cls-4" transform="translate(30.19 164.09)"><tspan class="cls-5">G</tspan><tspan x="17.77" y="0">alle</tspan><tspan class="cls-6" x="57.3" y="0">r</tspan><tspan x="66.87" y="0">y</tspan></text></g></g></svg>