<svg xmlns="http://www.w3.org/2000/svg" viewBox="0 0 114.83 114.83"><defs><style>.cls-1,.cls-2,.cls-3{fill:#fa255e;}.cls-1,.cls-2{stroke:#fff;stroke-miterlimit:10;}.cls-1{stroke-width:2px;}.cls-4{fill:#fff;}</style></defs><title>catalogBtn_1</title><g id="Layer_2" data-name="Layer 2"><g id="Layer_1-2" data-name="Layer 1"><circle class="cls-1" cx="57.41" cy="57.41" r="56.41"/><line class="cls-1" x1="23.76" y1="62.82" x2="24.07" y2="46.57"/><path class="cls-1" d="M23.76,40.77V35a3.5,3.5,0,0,1,3.49-3.48H91.4A3.5,3.5,0,0,1,94.89,35V80.23a3.5,3.5,0,0,1-3.49,3.49H27.25a3.5,3.5,0,0,1-3.49-3.49l.31-11.6"/><rect class="cls-1" x="19.42" y="60.5" width="5.8" height="11.61" transform="translate(-43.98 88.63) rotate(-90)"/><rect class="cls-1" x="19.42" y="38.45" width="5.8" height="11.61" transform="translate(-21.93 66.58) rotate(-90)"/><rect class="cls-2" x="38.61" y="38.13" width="45.52" height="26.9" rx="3" ry="3"/><polyline class="cls-2" points="56.97 64.9 49.99 50.55 42.75 63.48"/><polyline class="cls-2" points="71.71 65.03 61.88 46.41 54.64 59.34"/><circle class="cls-2" cx="75.46" cy="45.25" r="3.66"/><path class="cls-3" d="M58.23,70.86h0Z"/><path class="cls-4" d="M58.23,70.11H36.87a.75.75,0,0,0,0,1.5H58.23a.75.75,0,0,0,0-1.5H36.87a.75.75,0,0,0,0,1.5H58.23A.75.75,0,0,0,58.23,70.11Z"/><path class="cls-3" d="M60.07,76.19h0Z"/><path class="cls-4" d="M60.07,75.44H36.85a.75.75,0,0,0,0,1.5H60.07a.75.75,0,0,0,0-1.5H36.85a.75.75,0,0,0,0,1.5H60.07A.75.75,0,0,0,60.07,75.44Z"/><path class="cls-3" d="M86.23,70.86h0Z"/><path class="cls-4" d="M86.23,70.11H64.87a.75.75,0,0,0,0,1.5H86.23a.75.75,0,0,0,0-1.5H64.87a.75.75,0,0,0,0,1.5H86.23A.75.75,0,0,0,86.23,70.11Z"/><path class="cls-3" d="M88.07,76.19h0Z"/><path class="cls-4" d="M88.07,75.44H64.85a.75.75,0,0,0,0,1.5H88.07a.75.75,0,0,0,0-1.5H64.85a.75.75,0,0,0,0,1.5H88.07A.75.75,0,0,0,88.07,75.44Z"/></g></g></svg>