<svg xmlns="http://www.w3.org/2000/svg" viewBox="0 0 114.83 114.83"><defs><style>.cls-1{fill:#fa255e;stroke:#fff;stroke-miterlimit:10;stroke-width:2px;}.cls-2{fill:#fff;}</style></defs><title>contactBtn_1</title><g id="Layer_2" data-name="Layer 2"><g id="Layer_1-2" data-name="Layer 1"><circle class="cls-1" cx="57.41" cy="57.41" r="56.41"/><path class="cls-2" d="M57.11,43.52C50.36,50.86,37.59,48,36.58,37.37c-1.07-11.2,12.11-16.12,20.28-9.71,1.5,1.18,3.63-.93,2.12-2.12-9.89-7.76-26.1-2.45-25.48,11.38C34.11,50.3,50.58,55,59.23,45.64c1.31-1.42-.81-3.54-2.12-2.12Z"/><path class="cls-2" d="M58.42,54.48c-5.32-6.36-12.57-9-19.34-3.35C30.75,58,28.72,70.22,28.42,80.4c-.06,1.93,2.94,1.93,3,0,.25-8.72,1.75-18.71,7.93-25.4,5.64-6.1,11.77-4.6,16.94,1.6,1.24,1.48,3.36-.65,2.13-2.12Z"/><path class="cls-2" d="M59.59,43C51.5,29.67,71,17.14,79,30.23a11.74,11.74,0,0,1-3.33,15.59c-5.53,3.78-12.37,1.87-16.27-3.17-1.18-1.53-3.29.61-2.12,2.12,5,6.48,14.33,8.15,20.91,2.88A14.58,14.58,0,0,0,61.53,23.77c-7.3,4.42-8.82,13.64-4.53,20.69,1,1.65,3.6.14,2.59-1.51Z"/><path class="cls-2" d="M88,93.31c.44-13.67-.17-38.12-15.71-44.6-4.91-2.05-9.78,0-13.41,3.54-7.3,7.17-9.14,18.39-9.42,28.15-.06,1.93,2.94,1.93,3,0,.26-8.92,1.83-19.45,8.54-26,3.29-3.23,7.32-4.61,11.44-2.25,12.86,7.35,13,28.69,12.56,41.19-.06,1.93,2.94,1.93,3,0Z"/></g></g></svg>