<svg xmlns="http://www.w3.org/2000/svg" viewBox="0 0 140.36 140.36"><defs><style>.cls-1,.cls-2{fill:#2f6f7b;}.cls-1,.cls-4{stroke:#fff;stroke-miterlimit:10;}.cls-3,.cls-4{fill:#fff;}.cls-4{font-size:27.17px;font-family:MyriadPro-Regular, Myriad Pro;}</style></defs><title>eventBtn</title><g id="Layer_2" data-name="Layer 2"><g id="Layer_1-2" data-name="Layer 1"><circle class="cls-1" cx="70.18" cy="70.18" r="69.68"/><line class="cls-1" x1="76.8" y1="45.63" x2="61.84" y2="45.63"/><path class="cls-1" d="M46.58,45.63H37.05A4.09,4.09,0,0,0,33,49.72V97a4.09,4.09,0,0,0,4.09,4.09h63.08a4.1,4.1,0,0,0,4.1-4.09V49.72a4.1,4.1,0,0,0-4.1-4.09H92.06"/><rect class="cls-1" x="50.38" y="32.96" width="7.92" height="15.84"/><rect class="cls-1" x="80.47" y="32.96" width="7.92" height="15.84"/><path class="cls-2" d="M38.59,58.6h59"/><path class="cls-3" d="M38.59,60.1h59a1.5,1.5,0,0,0,0-3H38.59a1.5,1.5,0,0,0,0,3Z"/><text class="cls-4" transform="translate(60.68 85.07)">3</text></g></g></svg>