<svg xmlns="http://www.w3.org/2000/svg" viewBox="0 0 114.83 114.83"><defs><style>.cls-1{fill:#fa255e;}.cls-1,.cls-2,.cls-4{stroke:#fff;stroke-width:2px;}.cls-1,.cls-2{stroke-miterlimit:10;}.cls-2{fill:none;}.cls-3,.cls-4{fill:#fff;}.cls-4{font-size:30.77px;font-family:MyriadPro-Regular, Myriad Pro;}</style></defs><title>eventBtn</title><g id="Layer_2" data-name="Layer 2"><g id="Layer_1-2" data-name="Layer 1"><circle class="cls-1" cx="57.41" cy="57.41" r="56.41"/><path class="cls-2" d="M62.77,37.54H50.67"/><path class="cls-2" d="M38.31,37.54H30.6a3.32,3.32,0,0,0-3.32,3.31V79.1a3.32,3.32,0,0,0,3.32,3.32H81.67A3.32,3.32,0,0,0,85,79.1V40.85a3.31,3.31,0,0,0-3.31-3.31H75.13"/><rect class="cls-2" x="41.39" y="27.28" width="6.41" height="12.82"/><rect class="cls-2" x="65.75" y="27.28" width="6.41" height="12.82"/><path class="cls-3" d="M31.84,49.54H79.57a1.5,1.5,0,0,0,0-3H31.84a1.5,1.5,0,0,0,0,3Z"/><text class="cls-4" transform="translate(49.72 75.7)">3</text></g></g></svg>