<svg xmlns="http://www.w3.org/2000/svg" viewBox="0 0 113.83 144.79"><defs><style>.cls-1,.cls-2,.cls-5{fill:#8c3a67;}.cls-1,.cls-4{stroke:#fff;}.cls-1,.cls-4,.cls-5{stroke-miterlimit:10;}.cls-3,.cls-4{fill:#fff;}.cls-4{font-size:30.77px;}.cls-4,.cls-5{font-family:MyriadPro-Regular, Myriad Pro;}.cls-5{font-size:22px;stroke:#93278f;}.cls-6{letter-spacing:-0.01em;}.cls-7{letter-spacing:-0.01em;}.cls-8{letter-spacing:0em;}</style></defs><title>eventBtn_1</title><g id="Layer_2" data-name="Layer 2"><g id="Layer_1-2" data-name="Layer 1"><circle class="cls-1" cx="56.91" cy="56.91" r="56.41"/><path class="cls-1" d="M62.27,37H50.17"/><path class="cls-1" d="M37.81,37H30.1a3.32,3.32,0,0,0-3.32,3.31V78.6a3.32,3.32,0,0,0,3.32,3.32H81.17a3.32,3.32,0,0,0,3.31-3.32V40.35A3.31,3.31,0,0,0,81.17,37H74.63"/><rect class="cls-1" x="40.89" y="26.78" width="6.41" height="12.82"/><rect class="cls-1" x="65.25" y="26.78" width="6.41" height="12.82"/><path class="cls-2" d="M31.34,47.54H79.07"/><path class="cls-3" d="M31.34,49H79.07a1.5,1.5,0,0,0,0-3H31.34a1.5,1.5,0,0,0,0,3Z"/><text class="cls-4" transform="translate(49.22 75.2)">3</text><text class="cls-5" transform="translate(26.86 133.41)"><tspan class="cls-6">E</tspan><tspan class="cls-7" x="10.67" y="0">v</tspan><tspan x="21.03" y="0">e</tspan><tspan class="cls-8" x="32.05" y="0">n</tspan><tspan x="44.18" y="0">ts</tspan></text></g></g></svg>