<svg xmlns="http://www.w3.org/2000/svg" viewBox="0 0 114.83 114.83"><defs><style>.cls-1,.cls-2,.cls-3{fill:#fa255e;}.cls-1,.cls-2{stroke:#fff;stroke-miterlimit:10;}.cls-1{stroke-width:2px;}.cls-2{stroke-width:3px;}.cls-4{fill:#fff;}</style></defs><title>galleryBtn_1</title><g id="Layer_2" data-name="Layer 2"><g id="Layer_1-2" data-name="Layer 1"><circle class="cls-1" cx="57.41" cy="57.41" r="56.41"/><rect class="cls-2" x="19.68" y="31.9" width="76.43" height="45.16" rx="3" ry="3"/><polyline class="cls-1" points="50.51 76.85 38.79 52.74 26.63 74.46"/><polyline class="cls-1" points="75.27 77.06 58.77 45.8 46.61 67.51"/><circle class="cls-1" cx="81.56" cy="43.84" r="6.14"/><line class="cls-3" x1="30.21" y1="82.34" x2="86.62" y2="82.34"/><path class="cls-4" d="M30.21,83.46H86.62a1.13,1.13,0,0,0,0-2.25H30.21a1.13,1.13,0,0,0,0,2.25Z"/><line class="cls-3" x1="28.21" y1="27.34" x2="84.62" y2="27.34"/><path class="cls-4" d="M28.21,28.46H84.62a1.13,1.13,0,0,0,0-2.25H28.21a1.13,1.13,0,0,0,0,2.25Z"/><line class="cls-3" x1="45.79" y1="99.36" x2="54.79" y2="83.36"/><path class="cls-4" d="M46.76,99.93l9-16a1.13,1.13,0,0,0-1.94-1.14l-9,16c-.71,1.26,1.23,2.4,1.94,1.14Z"/><line class="cls-3" x1="74.79" y1="99.36" x2="65.79" y2="83.36"/><path class="cls-4" d="M75.76,98.79l-9-16a1.13,1.13,0,0,0-1.94,1.14l9,16a1.13,1.13,0,0,0,1.94-1.14Z"/></g></g></svg>