<svg xmlns="http://www.w3.org/2000/svg" viewBox="0 0 1294.68 1321.06"><defs><style>.cls-1{opacity:0.6;}.cls-2{fill:#fff;}.cls-3{fill:#2f6f7b;}</style></defs><title>bkg-img-te</title><g id="Layer_2" data-name="Layer 2"><g id="Layer_1-2" data-name="Layer 1"><g class="cls-1"><path class="cls-2" d="M698.76,30.34c-2,5.86,4.57,1.19,2.11,2.94-1.62,4.07-3.11,8.23-4.61,12.35,1.45-5.59-1.84-8.42-3.56-10.34-.86-1-1.33-1.7-.59-2.46S694.77,31.29,698.76,30.34Z" transform="translate(-8.36)"/><path class="cls-2" d="M705.23,67.62l1.33,5a14.81,14.81,0,0,1-6,.32c-2-.39-3.46-1.53-3-4.17C700.6,69.55,702.89,69.36,705.23,67.62Z" transform="translate(-8.36)"/><path class="cls-3" d="M770.13,137l-4.24.13c1.42-1-1.46-6.47,1.4-7Z" transform="translate(-8.36)"/><path class="cls-3" d="M598.93,260.31a9.39,9.39,0,0,0-3.68-.77c-4.29-4.88-5.55-7.91-5.63-13.62,4.21-.83,7.76-8.77,11.63-3l-.39.88c3.65,3.39,13.52,7.29,15.46,2.9-2.23-3.68-10.08-6.31-11.75-14.15,2.35-5.34,8.81-8,16-6.86l-5.22-11.29c5-2.47,10,.76,15.23.73l1.38,5.44c4.39,1.71,9.78,9.72,14.55,5-.59-7.16-.19-8.06,1.66-14.74,6,1.14,9.7-2,13-5.88s6.18-8.41,10.28-10.14c-3.18-9.66,3.06-12.16,8.69-14.9s10.74-5.62,5.69-16.27c13.33-5.35,5.08-17.21,4-30,8,1.29,7.8,6.54,7.15,12.08s-1.81,11.38,4.09,14.07c7.13-3.35,12.75-9,18.35-14.72,2.8-2.87,5.52-5.88,8.41-8.6A66.36,66.36,0,0,1,737,129.1c-1.69-8.66-12.35-11.39-7.07-18,.8,5.53,8.58,10.8,10.94,9.2-3.28.85-2.26-3.11-3.57-5.46l-2.81.08c-6.56-7.32-4.05-8.59-.09-9.39s9.31-1.13,8.63-6.69c5.88,3.84-2.4,1.65,1.09,7.13,5.31,7.06,13.34,14,21.19,12.53A14.12,14.12,0,0,1,771.6,110c2.76-1.67,6.1-2.23,9.54-2.71a77.36,77.36,0,0,0,10.45-1.69,18.64,18.64,0,0,0,9.38-5.3c-4.52-5.78.9-5.43,2.46-7.69.36,3.57,2.86,6.09,5.64,7.67s5.88,2.31,7.47,2.07c1-5.31-5.9-17.71-.23-19.56Q811.2,77.94,806,73.17c-1.37-.12-3,2.12-4.56,4.94-.77,1.41-1.51,3-2.17,4.45s-1.21,3-1.66,4.12c-5.16-5.84-8.47-1.66-11.64,1.6s-6.22,5.77-11.27-3.5l3.62.87c6,.64,7.08-4,7.19-10.21.06-3.12-.13-6.63-.1-10.06a48.17,48.17,0,0,1,.26-5,21.48,21.48,0,0,1,1-4.45C796,57.29,803.35,65,811.5,69.67c6.84.68,5.3-4.94,6-9.64,2.67-5.26,8-.74,12.28,1.41,1.15-1.42-2.36-2.69-1.19-4.1,2.75.37,6.24,1.67,7.39.24-5.33-11.84-13.7-7.49-20.58-8.1.38-2.35-.61-4.85,1.37-5.46,1.18-1.48,2.16,1,3,1.91.79-1,1.6-1.93,2.41-2.9-1.75-3.39-5.9-9.45-2-12.2l6.1,5.54c4.68-1,5.91-6.07,4.6-10.38s-5.24-7.82-11-5.65l2.8,7.58c-5.25-1.69-10.58-3.38-15.93-5-2.79-3.07-2.32-5.09-1.53-7.11s1.83-4.14.08-7.55c-1.49-4.59-5.1-6.76-9-7.71A33.24,33.24,0,0,0,785.64.28C784.21,7.51,792,5.56,795.55,5q.42,7.77,1,15.48c-1.24,1.53-5,.45-6.78-2.91-4-2.7-7.34-13.44-9.92-10.36-2.66.84-3.56,2.07-3.53,3.51s1,3,2,4.72c2.06,3.35,4.49,6.92.9,9.59,4.73,5.5,10.57,6.94,16.27,7.74s11.07.62,14.77,2.57l3.23-2.1c4.74,5.27-4.21,5.2,2.76,5.89-2,6.23-8,7.21-15.06,6.09a72.29,72.29,0,0,1-10.83-2.75c-3.58-1.18-7-2.52-9.85-3.67-2.35-3.74-6.31-6.35-9.78-9.61s-6.44-7.2-6.61-13.68c-3.57.67-8.74-4.35-11.82-.28-1.44,9.78-5.68,11.53-10.59,12.11s-10.3.14-13.84,5.07c2.38.78,2.38,4.83,3.6,7.23-4,1.06-7.18-.54-9.81-3.24s-4.8-6.56-6.86-10c-4.11-6.8-7.89-11.76-14.68-2-2.35,3.4-1.35,8.23,2.32,11.31,3.9.63,9.9,4.44,11.87-.52,2.15,3.17,7.92-1.11,9,7.83-4.8,1.78-6.08,6.29-7.17,10.57s-2,8.37-6.15,9.4l1.51,6.39c-1.26.87-2.4,3.74-4,6.23a10.88,10.88,0,0,1-2.79,3.16,4.8,4.8,0,0,1-3.89.87c-6.08,2-7.9-.66-8.63-4.57s-.34-9-2.13-11.73l-10.39,3.26c-.1,4.69-1.91,6.73-4.49,7.55s-6,.39-9.27,0c-6.57-.78-12.88-1.36-11.14,8.69L652.84,79c.34-4.14-2.5-6.89-5.83-8.26s-7.12-1.3-8.62.13l-.12,4.93c3.52,8.21.6,12.57-3.65,16.33s-10,6.76-12.16,12c-1.92,1.09-4.85-.93-3.9-2.71l-13.14,2c8.51,14.31-5.78,5.77-9,12.11,1.18,8,4.79,14,3.6,21.57-9.62.78-13.15,5.93-16.68,10.73s-7,9.36-16.7,9.08c6.91,10.24,3.17,18.32,17.5,23.87-7.53,2.27-15.92,3.18-24,4.42s-15.76,2.79-22,6.26c.68,2,1.18,4,1.93,6,7.53,9.89,17.7,26.2,28.3,39.71S590,261.39,598.93,260.31Z" transform="translate(-8.36)"/><path class="cls-3" d="M841.53,80.39c-1.63.76-3.23,1.61-4.84,2.45L839,85.51C843.45,89.25,839.08,81.56,841.53,80.39Z" transform="translate(-8.36)"/><path class="cls-2" d="M403,229.65c-.51,7.49,1.77,19,8.78,20.49,6.19-4.65,3.22-15.49,12.91-16.82C417.71,226.61,408.42,231,403,229.65Z" transform="translate(-8.36)"/><path class="cls-3" d="M678.53,37.33c-2.34,2.06-4.62,4.18-6.89,6.3l6.54,5.19c4.42-.39,3.59-2.34,2.1-4.68S676.64,39.1,678.53,37.33Z" transform="translate(-8.36)"/><path class="cls-2" d="M454.29,321c3.46,3.38,5.57,8.14,6.53,3.69l-2-10.06C459.85,317,447.73,317.26,454.29,321Z" transform="translate(-8.36)"/><path class="cls-2" d="M453.91,349l11,9.49c.3-3.8-2.65-9.41,1.12-9.79C461.6,349.78,456.44,344.71,453.91,349Z" transform="translate(-8.36)"/><path class="cls-2" d="M484.71,320.93c-17.81-2.5,4.9,21-15,13.71-6.18,11.54,6,18.08,16.72,24.47,3.4-3.48-12.13-11.87-10.18-20.8,5.13-1.76,10.91-4.26,17.66,1C503.52,331.09,483.47,329.16,484.71,320.93Z" transform="translate(-8.36)"/><polygon class="cls-2" points="469.67 372.77 473.77 368.59 464.84 363.9 469.67 372.77"/><polygon class="cls-2" points="506.74 350.42 505.76 342.72 498.84 348.15 506.74 350.42"/><path class="cls-2" d="M527.78,379l2.74-2.81c-.55-4.64-2.68-9.38-7.31-9.82C520.67,370.75,526.55,375.1,527.78,379Z" transform="translate(-8.36)"/><path class="cls-3" d="M524.65,238.1c-24.33-7-48-8-67.18-2.89a79.78,79.78,0,0,1,1.8,16.28l-15.15.13c-7.33,7.64-13.3,19.15-6.65,34.91-3.06-.3-4.8-2-7.86-2.28.82,6.12-8,8.29-4.55,16.92-6.79.07-12-5-19.2-8-1,6.3-7.34,8.46-13.22,11s-11.29,5.49-10.67,13.42c-9-5.58-9.47-.78-10,4.24s-1,10.19-9.82,5.3c-13.08,2.79-15.84,17.25-8.66,28.82-2.51-2.62-6.54-12.18-13.26-12.41.19,1.52-.33,3.69.51,4.57-.66.68-10.9,2-8.76,8.36a9.47,9.47,0,0,0,3.16,5.15c9.46,2,17.18,15,23.49,30.42s11.08,33.17,15.31,44.5c.06,2.08-.11,4-.1,6,6-.81,11.51-2.92,16.05-7.61-5.55-3.08,2.45-8.93-5.26-10-.72.67-.62,2.21-1.32,2.89l-10-.65c.5-3.79,4.52-6.64,7.67-10.06s5.5-7.31,2.73-13c7.43-2,15.52,3.57,23.37,6.07,4.27-3.33,10.43-5.45,15.37-8.45s8.8-6.79,8.51-13.32c5.87-9.32,14.94-3,23,.86.07-6.86,10.48-8.92,5.84-16.24,11.32-1.18,23.76,6.86,34.27,11.65,9.12-.7,3.92-5.78,3-13.5,11.24-8.15,15.35,19,26.21,7.69,2.91-1.27,4-5,3.67-9s-2-8.36-4.66-10.88c9.93.13,9.88-12.08,19.31-9.69-9.23-23.62,23.64-10.71,17.4-34,10.88-8.58,9.76-24.46,13.45-38.89C559.47,259.39,542.76,245.55,524.65,238.1Z" transform="translate(-8.36)"/></g><g class="cls-1"><path class="cls-2" d="M230.39,344.62c10.73-2.76-5.94-4.1.31-3.6l23.44-5.39C234.86,341.35,261.12,353.18,230.39,344.62Z" transform="translate(-8.36)"/><path class="cls-2" d="M268.28,313.68l4.47-4.48c6.08,1.67,18.23,6,9.71,9.13C278.5,315.65,274.46,314.21,268.28,313.68Z" transform="translate(-8.36)"/><path class="cls-3" d="M251.27,217.62l7.8,3.06c-4-.33-6.48,5.54-12.42,3.85Z" transform="translate(-8.36)"/><path class="cls-3" d="M861.26,227.93c-.57,1.11-.34,2.12,1.38,3a209.74,209.74,0,0,1-22.94,10c-7.82,2.85-16.54,5.48-27.94,8.62-4-.8-14.71.29-22.3.61s-12.09-.21-3.59-4.39l4-.71c4.13-2.86,6.52-6.74,4.77-9.37s-7.59-4-18.22-2.16c-5.25,2.54-6.92,5.54-10.93,9.07s-10.26,7.59-23.08,12.05c-5.64,1-11,1.74-16.11,2.15-2.54.21-5,.35-7.39.42s-4.45-.09-6.54-.23c-8.33-.61-15.23-2.31-19.85-5q-13.66,6.72-26.11,13.33c-15.77-.8-15.68-6.54-26.62-9.38q6.69-2.84,13.74-5.7c-2-2,.24-5.53-.29-8.35-.26-1.43-1.3-2.6-3.93-3.41s-6.78-1.3-13.46-1c-10.57,3.15-16.49,4.83-23,6.29s-13.37,2.68-25.08,4.87c-5.78-2.27-13.53-3.32-22.22-3.64-4.34-.18-9-.11-13.62,0q-3.51,0-7.1.18l-1.79.06-1.85,0-3.72.1c-5.94.21-7.48.42-10.5.62-2.76.21-5.51.41-8.19.55a75.67,75.67,0,0,1-15.14-.43,20.88,20.88,0,0,1-7.58,5,25.18,25.18,0,0,1-4.32,1.24,35.69,35.69,0,0,1-4.57.51c-6.24.3-13-.77-19.63-1.7s-13.12-1.73-18.84-.88-10.68,3.35-14.27,8.9c-29.77-5.58-33.37,8.83-49.74,18.83-5.7-3.33-6.6-5.88-4.95-8s5.84-3.86,10.37-5.67c9.07-3.56,19.43-7,13.47-13-16.78-2.35-34.39-2.63-52.14-2.43s-35.61.39-52.78-1.34c-9.2,7.32,5.23,16.93-13,17.79,6.31-4.49.28-13.81-6.1-14.31,6.9,1.69-.44,3.83-1.42,6.41l5,1.95c1.14,9.86-4.92,9.06-12.83,6.66s-17.63-6.08-24-1.71c-4.94-7,6.41.62,7.85-5.76.45-8.81-4-19.6-20.1-24.26A59.38,59.38,0,0,1,211,235.35a120.15,120.15,0,0,1-21-5.2c-6.92-2.26-13.93-4.61-21.43-6.67A94.75,94.75,0,0,0,144,220.05c.75,7.44-8.88,3.09-14.75,3.48,4-2.76,2.67-6.4-.5-9.62a28.55,28.55,0,0,0-5.69-4.33,28.13,28.13,0,0,0-5.82-2.8c-8.89,2.92-11.94,16.8-25,13.7l7.16,14.6c4.81,2.26,23.61-1.08,33-3,1.92,8,13.37,7.53,23.48,7.65s18.91.79,15.74,11l-5.35-3.38c-9.92-5-18.07-2.57-26.33,1.7-4.13,2.14-8.29,4.75-12.7,7.13A55.81,55.81,0,0,1,113,261.88c-15-8-18.93-19.07-28.28-28.59-12-5.66-16.19-.38-23.24,2.29C50.1,237.19,45.62,229.83,40,225c-3.93.14,1.23,3.71-2.71,3.83-4.78-2.35-9.93-5.93-13.87-5.78-3.86,12.55,17.16,15.64,29.14,21.51-3.52,1.35-4.67,3.86-9.06,2.76-3.95.12-2.79-2.39-3.22-3.65l-7.94.26c-.76,3.74-.23,11.2-10.59,10.26l-4.88-8.56A30.33,30.33,0,0,0,11,244.58l9.75,34.15a3.91,3.91,0,0,1,1.19.51c.14.1,0,0-.14-.15a4.52,4.52,0,0,1-.42-.62l-.13-.24,0-.05h0c1.61,3.37-3.6-7.55,3.61,7.56h0v0l0-.19a4.48,4.48,0,0,0-.14-.73,4.6,4.6,0,0,0-.59-1.34,6,6,0,0,0-.44-.59l-.27-.27-.07-.06v0h0c-4.09-8.56-1.14-2.37-2-4.28h0v0a4.24,4.24,0,0,0,.34.59l.13.18,0,0-.18-.2a2.55,2.55,0,0,0-.82-.56,1.7,1.7,0,0,0-1.5.08L8.36,261.56c.55.15,1.23.31,1.94.46l3.53-7.57,23.35,15.49c2.93,8.64-12.76,4.11-14.24,11.63-5.11,8.85,16,17,25.32,20.47,10.76-4-5-8.58-11.89-10.89l16.18-11.66c4-.13,9.29,3.46,8.58,7.19,3.79,4.84-2.81,15.08,5.25,14.73,22.33,5.23,3.2-13.86,22.15-12.21-1.67-7.41-10.25-12.94-19.53-17.65-2.31-1.17-4.68-2.3-7-3.39s-4.55-2.23-6.65-3.31c-4.2-2.15-7.8-4.23-10-6.34l-8.36-1c-2.51-7.39,13.87-.4,1.86-6.29a36,36,0,0,1,17.29.3A67.74,67.74,0,0,1,65,254.4a88.65,88.65,0,0,1,8.73,4c11.45,6,22,14.23,29.23,20.13-.89,8.78,15.22,19.3.32,28.7,3.47,1.09,5.88,3.51,8.7,5.53a16,16,0,0,0,11.08,3.38c14.27-5.87,23.71-4,32.68-.77s17.44,7.53,29.52,6.6c-3-2.27,2.11-5.15,3.1-7.74,16.25,4.35,12.81,13.68,11,21.47-.88,3.9-1.34,7.4,1.33,9.72,1.34,1.15,3.47,2,6.71,2.47a44.39,44.39,0,0,0,5.75.37,71.29,71.29,0,0,0,7.69-.37c8.09-.76,12.64-4.93,10.6-9.75-5.56-3.26-10.59-10.14-20.15-8.21.5-3.8-14.52-5.11-4.94-12.12a38.79,38.79,0,0,0,13.86.66A75.38,75.38,0,0,0,232,315.61c7.4-2.27,14.26-4.5,22.53-2.17l5.94-5.58c3.25.32,9-.85,14.95-1.43s12.21-.76,16.5,1.88c25.58,5.86-2.73,12.83-4.15,19.25L309,332.7a24.23,24.23,0,0,1,17.43-2.11c5.29,1.27,10.17,3.93,14.94,6.55,9.55,5.19,18.74,10,29.7,1.64l-2.33,4.08c-12.39,5.37,3.21,15.92,11.86,16.07l6.91-3.5c5.66-8.37,16.31-9.61,28.25-9.31,6,.15,12.27.69,18.41.91a71.71,71.71,0,0,0,17.48-1.21c4.56.52,6.35,4,2.35,4.65L477.32,358c3.42-8.13,7.7-8.2,12.89-6.52s11.3,4.92,18.29,3.67c4.79-3.39,7.91-6.8,11.41-10a44.28,44.28,0,0,1,5.81-4.53,36.69,36.69,0,0,1,3.6-2.07c.66-.33,1.34-.65,2.06-1l1.11-.47.57-.23.29-.12.22-.11a44.7,44.7,0,0,0,4.26,1.9,39.51,39.51,0,0,0,4,1.3,33.91,33.91,0,0,0,7.39,1.05,81.16,81.16,0,0,0,14.15-1.18c4.71-.64,9.5-1.23,13.83-.81s8.15,1.76,10.17,5.11c6.47-6.27,14-10.34,20.58-14.59a41.37,41.37,0,0,0,8.39-6.8,12.34,12.34,0,0,0,3.47-8.78A63.82,63.82,0,0,1,634,319.65a55.88,55.88,0,0,1,5.24,3.34c1.58,1.09,3,2.18,4.32,3.26,2.65,2.15,4.88,4.22,7.27,5.95a21.56,21.56,0,0,0,8.46,3.84l14.86-6.3c6.41-3.34,13.94-7.13,22.33-11.24l13.2-6.39,14.57-6.93c21.77-10.4,46.37-21.71,69.39-32.5s44.25-21,57.62-29c6.67-4,11.34-7.46,13.24-10.14S865.52,228.89,861.26,227.93Z" transform="translate(-8.36)"/><path class="cls-3" d="M40.53,202.61l12.56,2.08L51.85,201C47.84,194.89,46.82,203.65,40.53,202.61Z" transform="translate(-8.36)"/><path class="cls-2" d="M533.55,410.61c6.43-1.7,15.45-3.86,24.46-5.86s18.21-4,26.42-6.22c1.49-.66,1.25-.9.24-.89a39.75,39.75,0,0,0-4.28.42c-1.47.18-2.62.31-2.2,0s2.41-1.05,7.39-2.73c-6.93,2-13,3.87-18.2,5.46l-13.69,4.14C545.77,407.31,539.94,408.94,533.55,410.61Z" transform="translate(-8.36)"/><path class="cls-3" d="M272,354.34l19.27.39-3.71-8.36C272.31,340.56,282.67,354.43,272,354.34Z" transform="translate(-8.36)"/><path class="cls-2" d="M744.69,377.8c12.16-1.93,20.13-1.06,22.12-5.51a54.29,54.29,0,0,0-11-3.7c2.38,0-6.23,3.83-12.21,6.73-3,1.47-5.41,2.73-5.73,3.31S739.24,379.12,744.69,377.8Z" transform="translate(-8.36)"/><path class="cls-2" d="M744.15,402.53q14.94-1.3,30.36-2.81c1.73-2.53.82-4.42,1-6.29s1.32-3.73,7.75-6.47C767.74,394.13,753.17,395,744.15,402.53Z" transform="translate(-8.36)"/><path class="cls-2" d="M853.21,334.71c-9.13,3.5-15.33,6.12-19.56,8.15s-6.46,3.48-7.51,4.6c-2.07,2.23.6,3.15,2.68,4.24s3.62,2.31,0,4.8-12.59,6.24-30.28,11.73c-10.93,9.33-7.12,11.95,4.23,11a177.83,177.83,0,0,0,21.9-3.84c8.58-1.92,18.33-4.41,27.91-6.86,8.18-5.08-2.13-3.59-12.82-2.57s-21.79,1.58-17.63-4l15.24-7.39c5.31-2.53,10.95-5.1,16.82-7.61a274.91,274.91,0,0,1,38.73-13.47c10.82-6.36,13.5-8.93,11.34-9.25s-9,1.51-16.89,3.76-16.78,4.93-23.45,6.49S852.69,336.53,853.21,334.71Z" transform="translate(-8.36)"/><path class="cls-2" d="M808.81,400c1.47-1,3.17-2,4.78-3l4.89-3.05,9.77-6.11q-14.91,3.84-29,7.24,2.57,1.14,4.93,2.38C805.76,398.29,807.2,399.17,808.81,400Z" transform="translate(-8.36)"/><path class="cls-2" d="M986.67,303a20.94,20.94,0,0,0-1.34-6.26L949.77,317Q967.79,310.26,986.67,303Z" transform="translate(-8.36)"/><path class="cls-2" d="M1023.07,314.28l18.43-11c1.59-3,.86-5-3.32-4.86s-11.75,2.24-23.48,7.24c-8.77,6-7,7.28-2.83,7.53S1022.59,312.53,1023.07,314.28Z" transform="translate(-8.36)"/><path class="cls-3" d="M788.29,304.49q-12.31,7.85-24.23,15c-7.94,4.66-15.74,9.09-23.28,13.23s-14.82,8-21.64,11.54l-5,2.59-2.44,1.24-1.2.61-.59.31-.55.23-.65.27-19.55,8.05-14.79,6.07c12.51-3.5,23.41-6.08,30.32-7.07q-22.2,8.67-42.17,16.09a16.91,16.91,0,0,0-4.53,3.71c-.71,1.07-.52,1.95.83,2.56,2.71,1.19,10,1.55,24.33.4-7.82,2.68-13.38,3.81-20.85,6.25,3.44.28.3,2.51-1.83,4.51s-3.37,3.9,2.73,4.44a145.24,145.24,0,0,1-22,5.5c-7.27,1.33-14.77,2.46-22.64,3.86,1.15,1.32-1.14,3.12-4.6,5a125.68,125.68,0,0,1-12.38,5.34c-4.23,1.67-7.93,3.23-10.09,4.86s-2.81,3.42-1.25,6c-7.25-.82-10.39-.65-11.75.25s-1,2.54-.78,4.41.21,4-1.27,5.17-4.35,1.49-9.45-.61c-3.51.48-5.92,1.4-7.73,2.89a10.66,10.66,0,0,0-1.28,1.23c-.2.23-.38.46-.56.7l-.26.36-.08.11-.2.2-.39.41A64.87,64.87,0,0,0,551,446.9c-6.45,9.18-9.35,18.79-7.41,25.85-2.38-2.74-2.2-15.55-13.47-12.38-.8,2.28-3.26,5.93-2.47,6.85-1.56,1.38-20,9.33-20.76,18-.48,3.38.12,5.25,1.81,6.28,7.32-1.09,12,2.41,14.87,8.66a44.22,44.22,0,0,1,3.14,11.24,115,115,0,0,1,1.27,14.13c.36,10.08-.12,21.14-.56,31.51s-.79,20.09-.44,27.34c-1,3.05-2.27,5.94-3.33,8.93a101.9,101.9,0,0,0,14.78-8A108.64,108.64,0,0,0,553,573.8c-7.09-1.79,8.88-14.41-2.74-12.12-1.53,1.35-2.23,3.59-3.74,5l-7.76,2.07L531,570.84c2.84-6,10.89-12.29,17.92-19S562.1,538.26,561.2,531a32.4,32.4,0,0,1,17.63-3.49c5.4.38,10.5,1.62,16,1.76a170.44,170.44,0,0,1,14.55-9.6l7.74-4.56,1-.57.5-.3.65-.43,2.6-1.73c1.73-1.15,3.46-2.32,5.16-3.5,13.63-9.46,26.95-19.66,32.18-30A97.12,97.12,0,0,1,667,472a74.3,74.3,0,0,1,7.62-4.78,69,69,0,0,1,14.4-5.87c9.39-2.67,18.45-3.37,27.7-5a22.63,22.63,0,0,1,3.56-4.3c1.55-1.47,3.35-3,5.3-4.49,3.88-3,8.35-6.13,12.4-9.09,8.12-5.9,14.52-11.18,10.37-13.4,18-7.82,36.17-13.48,54.35-18.51,9.08-2.52,18.14-4.86,27.15-7.21l13.74-3.63q6.95-1.86,13.87-3.85a205.55,205.55,0,0,0,20.49-10c4.27-2.53,6.28-4.35,7.16-5.9,1.76-3.11-1-5.17,1-9.84,28.68-16.21,41.65-17.21,53.93-18.19a78.67,78.67,0,0,0,21.34-4.2c9-3.1,21.05-8.83,38.73-19.46a148.67,148.67,0,0,0,20.44-12.54c5.18-3.88,8.59-7.3,10.05-9.91s1-4.42-1.29-5.2-6.44-.56-12.13.78c12.76-5.62,23.21-11,32.26-16s16.71-9.8,24.18-14.41c15.13-9.31,28.85-17.58,55.22-28.52-7.86-.52-8-3.19-2.87-7.55.64-.54,1.38-1.12,2.17-1.7s1.62-1.17,2.54-1.79c1.85-1.24,4-2.58,6.36-4,4.76-2.83,10.51-6,16.88-9.38,12.7-6.74,27.94-14.43,42.09-21.83,13.7-7.11,26.36-14,33.82-19-6.09.76-13.7,2-23.07,4l-7.36,1.58-3.93.88-4.39,1c-6.26,1.5-13,3.19-20.39,5.1-12.27.85-27.34,2.85-43.88,5.59s-34.6,6.22-53.11,10l-28.17,5.94-28.89,6.2c-19.17,4.14-38,8.25-56,12-38.22,14.65-70.69,28.78-99.17,42.16-14.25,6.69-27.5,13.2-39.94,19.47q-9.35,4.71-18.09,9.25l-8.58,4.47Z" transform="translate(-8.36)"/></g><g class="cls-1"><path class="cls-2" d="M482.09,1106.65c7.52-13.47-8.77,4.16-2.66-2.45,5.69-9.69,11.29-19.46,16.93-29.18C483.48,1099.81,517,1077.66,482.09,1106.65Z" transform="translate(-8.36)"/><path class="cls-2" d="M491.51,1046.25l.48-7.67c6.95-5.8,21.75-16.6,16.35-5.33C502.51,1036,497.57,1039.63,491.51,1046.25Z" transform="translate(-8.36)"/><path class="cls-3" d="M397.81,1008.81l9.8-7.12c-4,4.4-1.56,10.66-8.49,16.44Z" transform="translate(-8.36)"/><path class="cls-3" d="M867,507a20.49,20.49,0,0,0,6.58-2.92c4.1,5.21,3.85,10.2-1.08,22.4-9.05,7-23.16,28.63-25.65,21l1.56-2.39c-2.11-1.37-7.18-1-12.72,1.11A32.8,32.8,0,0,0,820.2,558.3c1.15,5.1,14.42.91,10.72,15.66-9.45,14.39-24.69,28.44-38.1,35.06l.42,17.51c-12.29,11.66-19.52,11.22-30,18l2-9.89c-7.37,2-11.11-8.21-25.11,8.3-5.21,14.63-6.84,17-16.59,33.79-11.19,5.42-21.69,17.14-31.91,29.82S671.39,732.79,661.35,742c-.91,8-5.12,15.53-10.89,22.7s-13.13,14-20.23,20.73c-14.22,13.52-27.47,26.84-25.74,42-32.77,29.71-25,42.89-32.79,67.27-16,8.58-11.42-2.28-5.52-14.58s13.08-26.09,2.71-23.23c-4.5,4.3-8.92,8.77-13.28,13.36s-8.7,9.27-13,14.07c-8.56,9.58-16.94,19.53-25.29,29.57s-16.69,20.12-25.14,30-17,19.54-25.76,28.71c-2.76,14.76,18.52,4.3,2.12,25.25,2.32-9.75-10.86-8.57-17.3-1.69,7.88-6.74,2.68,2.77,3.86,5.42l6.23-4.41c18.06,9.26-25.52,25-30.23,44.58-10.29,1.48,6.45-6.88,2.59-12.27-3.37-2.84-8.29-4.58-14.72-3.66s-14.37,4.5-23.84,12.25c-12.19,21.26-27.6,34.74-44.17,48s-34.21,26.36-50.84,47c7,3.27-5.58,11.89-10.66,18.82,2.71-12.21-17.23-2-25.19,4.64-5.65,11.88,3.43,23-11.12,36.33l18.95-.31c6.27-4.3,20.37-27.8,27.41-39.51,17.06,4.46,40.3-53.22,51.47-34.46l-7.69,4.22c-26.37,17.16-21.81,42.73-36.2,68.74a84.25,84.25,0,0,1-26.27,11.15c-7.85,1.91-15.24,2.91-23.55,5.69-15.7,10.71-15.07,18.3-19,27.89a36,36,0,0,1-14,13.4c-4.85,2.54-9.73,3.83-14.33,5.78-3.4,4.59,4.32.54.88,5.13-6.31,4.26-14.06,8.32-17.47,12.92,7.44,11,29-11.5,44.72-22.18-2,4.78-.82,7.45-5.7,11.89-3.42,4.59-4.56,1.93-6,1.76l-6.88,9.24c2.57,2.83,9.49,6.16-.55,17.5l-11.79,1.1c-22.63,19.82-19.54,42.89,8.35,16.09l-3.44-8,34.18-18.49c10.05,1.24-7.77,16.69-2.57,22.33,3.14,10.43,28.81-9.1,39.94-17.89,6-14.4-11.77,1.18-19.8,7.72L268,1270c3.4-4.63,11.17-8.77,13.75-5.94,7.52-1.67,10.41,11.28,17.28,2,24.35-22.34-9-11.1,9.35-31.63-15.58-4.29-49.6,26.93-64.79,32.67l-8.32,9c-8.62-1,12-16.07-3.76-5.45,7.47-14.15,21.85-26.31,37.32-36.11s31.95-17.31,43.37-22.33c6.67,5.79,29.85-6.7,24.56,15.36,8-6.65,16.63-5.69,25.19-17.33,7.89-19.23,17.95-28.84,28.63-37.13s22-15.27,32.14-29.27c-4.6,2-2.35-5.3-3.59-7.9,36.59-31.48,18.13,37.09,57-16.85,6.74-9.36,7.49-16.84,1.7-17.41-7.7,4.25-18,5.73-25,17.59-2.66-2.77-17.3,13.3-14.42-1.49,22.39-20.33,21.46-40.49,40.34-56.24l.92-10c6.45-6.89,17.2-28.4,29.38-34.77,28.35-24.94,7.76,10.77,11.63,16.16l23.65-20.43c6.69-18.22,20.46-25.69,33.44-33s25.2-14.42,28.82-31.67l1,5.11c-7.24,16.95,15.47,6.37,23.55-3l3.71-9.7c-1.25-11.42,7.73-23.85,19.12-36.71,5.69-6.43,12-13,17.89-19.54a149.86,149.86,0,0,0,15.51-19.79c4.7-4.62,9-4.3,5.77.46l27.71-20.44c-5.89-18,15.92-18.84,27.27-35.57,4-14.79,1.59-22.47,10.06-39.4,39.53-27.31,44.61-59.49,82.23-82.13-5-12.85,9.33-34.43-14.25-28.43,16.92-14.05,34.11-26.35,51-38.77,8.41-6.22,16.72-12.48,24.82-19s15.92-13.47,23.45-20.9c.43-3.47,1.14-7,1.46-10.44-6.08-11.89-11.64-34.34-20.4-50.38S885.71,493.48,867,507Z" transform="translate(-8.36)"/><path class="cls-3" d="M190.94,1243.11l13.17-13.44-4.32-.52C190.89,1230.58,197.53,1236.38,190.94,1243.11Z" transform="translate(-8.36)"/><path class="cls-2" d="M704,536.75c-12.49,13.79-24.86,33.21-11.53,31.84,20.76-11.89,30.63-29.73,54-37.55C741.26,522.91,714.16,536,704,536.75Z" transform="translate(-8.36)"/><path class="cls-3" d="M527.71,1066.29l18-20.92-10.09-.95C516.88,1057.74,537.55,1054.67,527.71,1066.29Z" transform="translate(-8.36)"/><path class="cls-2" d="M680.34,671.32c2.62,4.07.19,11.38,8.92,2.89l10.53-16.82C698.57,661,671.37,668.44,680.34,671.32Z" transform="translate(-8.36)"/><path class="cls-2" d="M638,721.53l10.36,10.6c6.23-6.9,8-15.2,16.84-18C653.81,718.54,649.9,712.45,638,721.53Z" transform="translate(-8.36)"/><path class="cls-2" d="M747.42,654.14C711.9,659.67,727,688.8,693.94,687c-30.71,24.05-13.46,28.78.63,34.14,12.59-8.09-9.17-14.28,8.33-31.27,13.9-6,30.3-13.71,37.36-8.17C773.62,661.76,732.42,669.52,747.42,654.14Z" transform="translate(-8.36)"/><polygon class="cls-2" points="647.92 750.03 663 740.35 650.24 737.06 647.92 750.03"/><polygon class="cls-2" points="761.94 689.77 771.23 676.61 747.96 690.13 761.94 689.77"/><path class="cls-2" d="M755.8,733.6l10.09-6.49c5.57-7.89,8-15.16-1.53-13.38C752.44,722.82,758.88,727.3,755.8,733.6Z" transform="translate(-8.36)"/><path class="cls-3" d="M959.51,483.51C916.2,484.8,865.85,496.14,815.93,516a243.49,243.49,0,0,1-20.42,28.11l-33.6,8.72c-27.64,17.8-58.3,41.91-67.23,66.38-6.35,1.23-7.68-.8-14,.42-7.38,10.52-30.14,19.45-35.52,33-15.21,4.06-19.22-2-30.76-3.22-23.6,23.89-69.42,30.39-90.37,58.3-23.91-9.07-33.54,36-59.28,29.58-34.13,13.36-62.13,41.51-62.33,57.47-2-3,2.74-17.59-12.51-13.53-1.81,2.62-6.19,6.87-5.53,7.89-2.49,1.62-28.43,11.13-32.64,21.05-1.85,3.86-1.83,5.95-.09,7.1,38.28-5.67-3.88,72.56-14.75,106.14-2.62,3.56-5.5,6.93-8.17,10.43a208,208,0,0,0,46.11-23.37c-8.34-1.83,17.46-17,1.57-14-2.52,1.63-4.36,4.24-6.86,5.87l-21.6,5.28c12.42-13.79,51.57-30.38,55-47,19.55-8.29,29.92-3.46,44-3.87,28.28-16.8,66.26-29.77,83.52-52.42,26.31-19.85,37.32-14,49.51-11.78,9.93-12.13,35.83-21.67,36.19-32,26.59-8.52,42.14-1.26,58.16,1.36,20.92-6.28,16.93-12.36,26.14-25.5,36.51-20.66,5.8,25.07,46-.85,16.39-7.68,31.15-28.72,27.16-34.78,21.56-5.27,39.49-26.93,56.73-28,15-37,68.11-32.38,89.43-70.62,37.1-21.63,58.75-49.66,88.76-77.78a.14.14,0,0,0,0-.06l-75.12-84.92c6,12.1,15.35,20.34,28.21,23.43l27.1,30.64C981.48,488.12,971.57,484.77,959.51,483.51Z" transform="translate(-8.36)"/></g><g class="cls-1"><path class="cls-2" d="M1008.45,773.34c-3.18,7.09,5.5.29,2.24,2.84l-7.38,15.08C1008.53,777.87,988.48,781.36,1008.45,773.34Z" transform="translate(-8.36)"/><path class="cls-2" d="M1011.14,814.42l.85,5.49c-4,1.61-12.67,3.9-10.63-2.36A13.27,13.27,0,0,0,1011.14,814.42Z" transform="translate(-8.36)"/><path class="cls-3" d="M1082.48,878.3l-5.75,1.47c2.14-1.69-.57-7.28,3.39-8.85Z" transform="translate(-8.36)"/><path class="cls-3" d="M827,1060.89a10.14,10.14,0,0,0-4.3-.48c-3.74-5.33-4.33-8.81-2.62-15.63,5.46-1.46,12.34-11.47,15.29-5l-.76,1.11c3.44,3.61,14.42,7,18.22,1.49-1.61-4.12-10.49-6.28-10.1-15.46,4.57-6.69,13.44-10.77,22-10.31l-3-12.81c7-3.63,12.25-.49,18.74-1.27l0,6.34c5,1.41,9.21,10.26,16.69,3.81,1.48-8.53,2.24-9.65,6.64-18,14.31.9,22.83-17.51,34.26-23.13-1.21-11,7.43-15.15,15.41-19.49s15.36-8.84,11.78-20.6c18.51-9.08,11.08-21.63,12.81-36.5,19.81-.23-6,24.87,7.78,28.76,20.17-11.09,35.18-31.9,54.21-45.23-.35-9.8-13.64-10.32-5.4-19.44-.1,6.31,8.94,10.53,12.37,7.93-4.47,1.93-2.3-3.08-3.54-5.5l-3.67.86c-14.08-13.82,14-8.63,14.22-21.29,7,2.89-3.44,2.6.09,8.08,5.6,6.81,14.82,12.73,25.61,8.55,5.2-11,13.89-15,23.34-18.48a154.7,154.7,0,0,0,14.41-5.64,43.51,43.51,0,0,0,13.59-9.73c-5.33-5.11,2-6.71,4.45-9.93,0,8.06,12.23,8.1,16.72,6.25,2-6.71-5.93-18.45,2-22.86l-13-7c-3.68.8-9.8,12.91-12.85,18.93-12.48-9.83-19.74,24-30.4,5.78l4.69-.17c15.7-2.53,8.53-23.37,14.47-37.26,12.08-1.74,21.25,4.35,31.84,6.55,9.19-2,7.58-7.87,8.84-13.52,3.91-7.1,10.85-4.07,16.57-3.48,1.62-2.14-3.06-2.06-1.41-4.19,3.68-.77,8.38-.86,10-3-6.85-11.12-18.14-2.45-27.35-.51.63-2.81-.57-5.24,2.09-6.71,1.64-2.14,2.84.29,3.88,1l3.29-4.3c-2.21-3.11-7.49-8.26-2.35-12.94l8,3.69c12.49-6.22,6.79-24.75-8.25-15.29l3.61,7.32-20.67.81c-7.11-4.78,2.76-9.57-1.7-15.8-3.8-9.06-18.41-4.13-24.79-1.87-1.93,8.47,8,3.66,12.49,1.82l.88,16.83c-1.64,2.16-6.37,2.27-8.59-.84-5-1.64-8.94-12.44-12.27-8.15-13.39,7.4,7.92,11.75-1.56,20.12,11.42,9.14,30.13-1.13,39.74.42l4.32-3.58c6.1,4.07-5.78,7.46,3.45,5.53-2.93,7.79-11,11.29-20.19,12.69s-19.36.74-26.53.07c-5.51-6.89-19.66-6.47-19.4-20.92-4.53,1.89-10.66-2.14-14.8,3.27-2.49,11.35-8,14.6-14.21,16.64s-12.91,2.94-17.83,9.47c2.88.25,2.46,4.85,3.72,7.25-20.72,9.24-18.34-34.52-37.22-9.47-3.28,4.35-2.65,9.61,1.49,12.26,4.73-.19,11.72,2.69,14.79-3.4,2.28,3.08,10-3.2,10.29,6.66-12.5,6.46-8.76,21.75-19.54,26.11l.88,7c-3.46,2.6-7.64,14.39-15.21,14.37-16.11,7.38-7.1-10.94-10.64-16.42l-13.51,5.9c-1.94,10.8-10.43,11-18.45,11.41s-15.57.85-15.48,12.13l-1.51-4.16c2.52-9.65-11.88-10.66-16.15-6.89l-1.14,5.69c2.62,8.86-1.88,14.43-7.95,19.46S904.82,866,901,872.41c-2.63,1.55-5.76-.36-4.16-2.57L880.23,874c6.94,15.43-8.48,7.53-14,15.33-.58,9.23,2.29,15.75-1.15,24.78-12,2.21-17.76,8.67-23.4,14.76s-11.15,11.91-22.94,12.76c5.57,11.26-1.45,21.25,14.53,26.1-9.95,3.6-20.51,5.67-30.72,8.06s-20.07,5.13-28.71,9.92c.22,2.32.23,4.57.52,6.92C786.68,1014.49,804.08,1065.66,827,1060.89Z" transform="translate(-8.36)"/><path class="cls-3" d="M1189.42,783.63l-7,5,3,2.05C1191.42,793.05,1185.94,786.16,1189.42,783.63Z" transform="translate(-8.36)"/><path class="cls-2" d="M596.94,1046.71c-3,9.16-3.82,22.79,4.34,23.63,9.08-6.42,8.87-19.18,21.15-22C616,1041.11,603.27,1047.58,596.94,1046.71Z" transform="translate(-8.36)"/><path class="cls-3" d="M982.69,785.64l-9.41,8.53,7.25,4.61C991.6,796.14,977.57,790.45,982.69,785.64Z" transform="translate(-8.36)"/><path class="cls-2" d="M632,1150.07c3.23,3.6,4.42,9,6.87,3.58l.46-11.8C639.92,1144.56,625.1,1146.49,632,1150.07Z" transform="translate(-8.36)"/><path class="cls-2" d="M623.6,1183.66l10.74,9.86c1.41-4.55-.61-10.85,4.06-11.79C632.72,1183.57,627.87,1178.2,623.6,1183.66Z" transform="translate(-8.36)"/><path class="cls-2" d="M668.92,1146.24c-20.93-.86-.11,24.46-22.18,18.24-10.77,14.57,2.21,20.79,13.34,27.08,5.07-4.56-11.34-12.62-6.46-23.52,6.71-2.74,14.4-6.43,21-1C688.72,1156.17,665,1156.2,668.92,1146.24Z" transform="translate(-8.36)"/><polygon class="cls-2" points="637.95 1208.78 644.01 1203.33 634.5 1198.88 637.95 1208.78"/><polygon class="cls-2" points="688.74 1177.86 689.79 1168.83 679.84 1176.06 688.74 1177.86"/><path class="cls-2" d="M704.29,1210.37l4-3.63c.59-5.43-.59-10.8-6-10.82C698.05,1201.35,703.89,1205.85,704.29,1210.37Z" transform="translate(-8.36)"/><path class="cls-3" d="M743,1042.77c-27.53-5.82-55.91-4.4-81,3.93a95.4,95.4,0,0,1-2.89,19.31l-18.53,2c-11.31,10.1-22.27,24.74-18.88,42.86-3.65.06-5.28-1.74-8.93-1.68-.83,7.29-12.24,11.11-10.62,21.06-8.34,1-13.24-4.33-21.2-6.92-6.34,15.49-33.59,14.35-36.58,33.49-19.06-10.43-8,23.78-27.23,15.26-17.07,6-24.42,24.41-18.33,36.91-2.48-2.65-5.06-13.46-13.43-12.29-.17,1.82-1.37,4.59-.54,5.47-1,.93-14.18,5-13,12.3.3,2.79,1.14,4.44,2.72,5.56,11.37.26,17.84,14.39,22.28,31.53s6.87,37.28,10,49.69c-.29,2.44-.82,4.69-1.17,7.08a46.61,46.61,0,0,0,20.72-12.22c-6.14-2.53,4.62-11-4.49-10.71-1,.94-1.16,2.74-2.14,3.69l-12,1.3c2.63-9.17,21.52-17,17.2-29.57,9.44-3.94,18.08,1.26,27,2.84,11.81-9.35,31.37-14.34,33.76-29.8,9.39-11.94,18.81-5.78,27.55-2.33,1.75-8.15,14.84-12,11.13-20.07,13.92-3,26.75,5,38.11,9.41,11.12-1.91,6.23-7.28,7.18-16.31,15.71-11,13.27,20.64,29.33,6.08,3.83-1.82,6.12-6.35,6.85-11.1s-.06-9.68-2.49-12.38c11.93-.93,15.36-15.37,26.07-13.59-2.1-13.53,5.82-17.41,14.24-21.21s17.28-7.57,17.08-21.12c8-5.71,12.79-13.32,16.83-21.68s7.24-17.48,11.78-26.31C778.79,1064.36,762.71,1049.71,743,1042.77Z" transform="translate(-8.36)"/></g><g class="cls-1"><path class="cls-2" d="M296.9,806.72c4.34-5.23-4.39-2.38-1.12-3.45l9.78-10.77C298,802.56,315.11,807.2,296.9,806.72Z" transform="translate(-8.36)"/><path class="cls-2" d="M305.09,768.5l.72-5.3c3.67.1,11.35,1.44,8.07,6.31A10.23,10.23,0,0,0,305.09,768.5Z" transform="translate(-8.36)"/><path class="cls-3" d="M262.94,682.88l5.18.88c-2.23.72-1.47,6.82-5.18,6.75Z" transform="translate(-8.36)"/><path class="cls-3" d="M526.63,625.27a9.66,9.66,0,0,0,3.28,2.35c1.24,6.39.57,9.73-3,15-4.85-1.15-13.6,4.61-13.88-2.42l1-.64c-1.59-4.72-9.31-12.64-14.18-9.45,0,4.36,6.41,10.23,3.14,18.15-5.83,3.85-14.21,3.67-21-.5l-1.63,12.67c-6.77.17-10-4.9-15.51-7l1.94-5.65c-3.57-3.41-4.22-13.12-12.33-10.64-3.88,6.94-4.86,7.57-11,13.18-11.34-6.87-23.91,6-34.93,6.17-2.34,10.31-10.56,10.5-18.37,11.09s-15.17,1.63-15.64,13.66c-17.8.49-15.27,15-20.82,27.65-16.29-7.75,11.88-20.05,1.72-29.11-19.69,2-37.94,14.56-57.19,19.39-2.35,9,8.47,14.69-.75,19.75,1.77-5.69-4.56-13-8.1-12,4.21,0,1.08,3.69,1.46,6.36l3.26.66c7.95,18-13.82,2.39-17.36,13.75-5-5.31,3.52-1,2-7.34-2.84-8.34-8.94-17.34-19-17.57-7.19,8.13-15.43,8.48-24.2,8.08a118,118,0,0,0-13.48-.27,31.8,31.8,0,0,0-13.79,4c3.19,6.64-3.34,5.43-6.17,7.49,2-7.4-8.26-11.89-12.49-11.82-3.37,5.41.46,19.06-7.27,20.22l9.23,11.18c3.26.61,11.3-8.24,15.34-12.65,8,13.57,22.41-14.8,26.74,5.89l-3.95-1.6C216,729.73,216.85,751.49,208.6,762c-10.45-2.83-16.65-11.75-25-17.62-8.15-1.47-8.2,4.56-10.56,9.31-4.93,5.14-10-.1-14.69-2.66-1.86,1.39,2.09,3,.21,4.35-3.26-.59-7.23-2.17-9.09-.77,3.21,12.63,14.65,8.66,22.79,10.14-1.17,2.36-.73,5-3.29,5.43-1.86,1.38-2.31-1.28-3-2.28l-3.75,2.78c1.14,3.65,4.38,10.26-1,12.73l-5.81-6.21c-11.88,1.3-11.21,20.3,3.45,17l-1.37-8,17.4,6.59c4.83,6.92-4.45,7.81-2.14,15.11,1.14,9.66,14.33,10.36,20.1,10.58,3.49-7.09-5.76-6.22-9.92-6.14L186,796.54c1.85-1.4,5.8.19,6.92,3.84,3.72,3.28,4.56,14.63,8.28,11.88,12.73-1.93-3.86-13.66,5.92-17.83-7.34-12.62-25.22-9.84-32.86-14.67l-4.43,1.76c-4.16-5.91,6.53-4.82-1.61-6.31,4.22-6.12,11.8-6.48,19.74-4.49s16.28,6.38,22.05,9.61c3,8.31,14.72,13.15,11.12,26.24,4.17-.05,8.27,5.89,12.94,2.49,4.7-9.44,10-10.37,15.57-9.95s11.31,2.24,16.92-1.81c-2.3-1.33-.83-5.34-1.27-8,19.21-.49,6.57,38.35,28,22.83a8.37,8.37,0,0,0,1.82-11.71c-3.89-1.65-8.87-6.94-12.88-2.57-1.1-3.67-9-.93-6.76-10,11.81-1.07,12.55-16.53,22.52-16.2l1.08-6.68c3.49-1,10-10,16.16-7.05,15.06-.36,2.92,12.7,4.4,19l12.5,0c4.37-9.05,11.35-5.85,17.95-2.93s12.8,5.55,15.76-4.64l.1,4.35c-4.61,7.67,6.74,14.41,11.16,12.76l2.44-4.65c.28-9,5.39-12.28,11.67-14.24s13.7-2.7,18.59-6.82c2.54-.29,4.51,2.72,2.62,4l14.42,3.2c-1.21-16.73,8.88-3.23,15.52-7.76,3.11-8,2.7-15,8.09-21.55,10.26,3.19,16.7-.11,23-3.12s12.46-5.65,22.07-1.23c-1-12.41,7.62-18.18-3.62-29.49,9,1.18,18.06,3.95,26.9,6.38s17.5,4.52,25.81,4.2c.56-2.15,1.26-4.13,1.77-6.34C543.53,684.34,546.5,631.29,526.63,625.27Z" transform="translate(-8.36)"/><path class="cls-3" d="M149.6,730.52l7-2.2-2.09-3C150.13,721.13,153.12,729.41,149.6,730.52Z" transform="translate(-8.36)"/><path class="cls-2" d="M701.59,745.59c5.39-6.42,10.7-17.78,4.78-22.49-9.13,1.12-13.32,12.21-23.66,8.65C685.16,741.1,697.09,741.74,701.59,745.59Z" transform="translate(-8.36)"/><path class="cls-3" d="M320.89,805.69l9.77-4-4.68-7C316.33,792.69,326.25,803.37,320.89,805.69Z" transform="translate(-8.36)"/><path class="cls-2" d="M711,639.47c-1.19-4.68-.14-9.94-4-6.46l-4.63,9.9C702.92,640.29,715.06,646,711,639.47Z" transform="translate(-8.36)"/><path class="cls-2" d="M729.82,614.75,725.18,601c-2.78,3.23-3.55,9.65-7.51,8.15C722.75,610.32,724.51,617.34,729.82,614.75Z" transform="translate(-8.36)"/><path class="cls-2" d="M681,624.64c15.92,10.88,9-21,23.85-4.82,13.68-7.22,6-19-.39-29.88-5.64,1.43,4.15,16.46-3.64,23.42-6.22-1-13.56-1.57-16.78-9.5C669.14,606.46,687.66,617.92,681,624.64Z" transform="translate(-8.36)"/><polygon class="cls-2" points="713.25 581.9 706.5 583.6 712.22 592.12 713.25 581.9"/><polygon class="cls-2" points="662.09 583.63 657.98 590.96 668.4 589.48 662.09 583.63"/><path class="cls-2" d="M676.81,552l-4.55,1.15c-2.5,4.38-3.54,9.65.74,12.28C678.36,562.86,675.43,556.12,676.81,552Z" transform="translate(-8.36)"/><path class="cls-3" d="M587.38,679.5c19.69,17.69,42.27,30,64.4,34.64a82.8,82.8,0,0,1,8.76-15.39l15,7.27c12.17-3.2,25.6-10.57,29.41-27.8,2.83,1.76,3.44,4.11,6.27,5.87,3.22-5.83,13.31-3.45,15.64-12.79,6.76,3.24,8.57,10.29,13.69,16.47,10.4-10.25,30.68,4.71,39.93-10.11,10.52,18.58,14.86-16.22,26.18,1,15.05,3.82,27.47-7.94,27.7-21.69.85,3.53-1.33,14,5.36,17.37.81-1.45,2.76-3.16,2.48-4.34,1.11-.29,12.52,3.25,14.46-3.43a8.11,8.11,0,0,0,.12-6.1c-8.38-6.24-7.79-21.5-4.38-38.25s9.63-35,12.3-47.07c1.2-1.91,2.52-3.52,3.75-5.35a34.71,34.71,0,0,0-20.61-.62c3.64,5.36-7.92,6.84-.89,11.38,1.13-.26,2-1.69,3.1-2l9.55,5.22c-5.65,6.32-23.08,3-24.78,15.81-8.71-1.69-13.21-10.53-19.41-16.5-12.65,1.84-29.61-4-37.43,7.88-11.79,5.43-16.66-4.57-22.09-11.93-4.47,6.08-16.06,2.78-16.24,11.54-11.91-4.5-18.88-17.71-26.08-27.08-9.4-3.83-7.61,3.22-11.73,10.53-16.41,1.73-2.66-24.32-20.75-19.64-3.7-.31-7.2,2.47-9.55,6.2S668,569,668.93,572.54c-9.74-4.92-17.72,6-25.54-.72-3.25,12.77-10.91,12.26-18.93,11.62s-16.42-1.49-21,10.43c-8.32,1.28-14.86,5.61-21,11.07s-11.74,12-18.34,17.72C566.21,644.08,574.14,664.3,587.38,679.5Z" transform="translate(-8.36)"/></g><g class="cls-1"><path class="cls-2" d="M1058.48,819.24c-8.45,6.38,6.77,1.71,1.07,3.46L1040.78,836C1055.76,823.86,1028.22,822.18,1058.48,819.24Z" transform="translate(-8.36)"/><path class="cls-2" d="M1036.14,861.53l-2.39,5.78c-6,.59-18.51.63-12-5.17C1026.28,863.29,1030.44,863.28,1036.14,861.53Z" transform="translate(-8.36)"/><path class="cls-3" d="M1086.58,944.79h-8.3c3.81-1.16,3.91-7.52,10-8.12Z" transform="translate(-8.36)"/><path class="cls-3" d="M641.91,1059.19a12.84,12.84,0,0,0-5-1.74c-1-6.47.61-10.14,7.39-16.5,7.83.13,23.25-7.9,22.56-.53l-1.71.89c1.86,4.64,13.31,11.29,21.86,6.84.77-4.62-8.91-9.39-2.18-18.5,10.26-5.37,24.12-7,34.61-4l4.87-13.75c11.25-1.65,15.73,3,24.42,4.09l-4.2,6.4c5.3,2.84,4.69,13,18.47,8.61,7.61-8.17,9.33-9.06,20.44-16.27,17.46,4.92,40.5-11.3,58.68-13.78,11.56-22.86,54.51-7.36,60.82-33.09,29.42-4.11,28.16-18.89,40-33.47,25.28,5.06-23.73,23.59-8.78,31.23,32.83-5.91,65.43-22.88,98.18-31.54,5.83-10-10.77-14,5.55-21.14-4.16,6.38,4.67,13,10.71,11.26-6.94.8-1-3.72-1-6.49l-5.23-.09c-9.14-17.67,23.31-5.13,31.67-17.89,7.07,4.73-6,1.74-5,8.2,2.82,8.36,10.84,16.77,27.3,15.23,27.28-19.85,54.53-7.39,87.16-21.6-3.66-6.52,6.76-6.35,12-9-5,8.23,10.72,11.25,18,10.3,3.52-3.21,4.59-8.34,6.38-13a18.91,18.91,0,0,1,3.74-6.36,14.32,14.32,0,0,1,7.49-4c-4.39-3.29-8.71-6.65-13-10-5.41.08-21.17,11.12-28.85,16.49-9.92-13.07-40.33,19.62-42.6-1.62l6.11,1c21.73,1.29,25.44-21.66,41.77-34.41,16.74,1.05,25,9.32,37.91,13.69a26.81,26.81,0,0,0,8.26-1.36,15.71,15.71,0,0,0,5.21-3.06c2.76-2.43,4.45-5.57,7-8.5,9.72-7.09,17.48-3.07,25.26-2,3.59-2.27-3.09-2.5.51-4.74,2.83-.28,5.93-.44,8.79-.8s5.45-.94,7.25-2.18a7.91,7.91,0,0,0-5.52-5.79,23.13,23.13,0,0,0-9.69-.44c-7.34.82-16,3.23-22.82,3.65,2.53-2.93,2.3-5.7,6.78-7,3.46-2.14,3.71.63,4.74,1.48l7-4.44c-1.33-3.58-5.66-9.64,3.77-14.41q4.44,2.25,9,4.43a29.56,29.56,0,0,0,6.79-3.13,22.28,22.28,0,0,0,4.87-4c2.57-2.83,3.77-5.78,3.55-8.15s-1.86-4.15-5-4.69a16.41,16.41,0,0,0-5.75.22,41,41,0,0,0-8,2.47l1.3,8.24c-9.5.06-18.85-.24-28.07-.76-6.78-6,8.61-10,5.8-17.17-.29-5.07-5.68-6.61-12.09-6.9s-13.89.77-18.47,1.38c-6.88,8.48,8.17,5.3,14.84,3.93-2.45,6-5,11.94-7.75,17.92-3.33,2-9.51,1.29-10.61-2.39-5.41-2.66-4.53-14.65-11.08-10.86-10.5,2.41-9.69,5.83-8.32,9.52s3.31,7.6-5.23,10.84c4.59,6,14.47,7.37,24.73,7.45s20.87-1.18,26.87.26c2.61-1.13,5.21-2.21,7.81-3.37,6,5.09-12,7.43,1.58,6.37-8.37,8.18-21.53,10.84-34.48,10.58s-25.83-3.24-34.63-5.62c-2.92-8.31-21.16-11.35-12.1-26-6.89.82-12.19-4.8-20.75-.35-20.26,21.82-36.26,7.71-56.83,18.42,3.51,1,.12,5.55.23,8.31-32,4.07-1.87-39.68-41.31-19.14-6.84,3.57-9.32,9.07-5.74,12.82,6.1,1,13.16,5.74,20.84.34,1,3.71,14.73-.67,8.92,9.39-19.9,3.34-24.69,19.88-41.14,21.45l-3.29,7.33c-6,1.72-18.79,12.58-28.38,10.57-25.08,3.27-2.06-12.94-3.1-19.41L993,857.73c-18.56,20.91-43.6-8.13-57.78,14.71l.75-4.61c9.33-9.07-8.17-14-15.92-11.33L915,861.94c-4.72,19.3-36.88,17.82-54.84,28.59-4.31.84-7-2-3.56-3.74l-23.47-.4c-1.3,17.51-15.48,5.27-27.47,11.52-6.75,9.12-7.41,16.49-17.64,24.61-33-2.39-45.52,19.54-76,14.4-.53,12.93-16,21,.78,30.44-29.68,1.49-58.21-3.85-86.1.63-1.29,2.4-2.79,4.65-4,7.1C623.27,1000.64,610,1057.26,641.91,1059.19Z" transform="translate(-8.36)"/><path class="cls-3" d="M1289.5,869l-6.73,2.68-6.69,2.54,3.12,2.51C1286.33,879.72,1282.78,871.66,1289.5,869Z" transform="translate(-8.36)"/><path class="cls-2" d="M368.54,972.73c-9.92,7.93-20.43,20.94-11.25,24.62,7.7-1.56,13.71-5.49,19.88-8.86s12.5-6.15,20.88-5.45C395.32,973.78,375.5,975.79,368.54,972.73Z" transform="translate(-8.36)"/><path class="cls-3" d="M1018.23,824.94,1001,831.09l6.24,6.57C1022.89,837.91,1008.76,828.46,1018.23,824.94Z" transform="translate(-8.36)"/><path class="cls-2" d="M337.11,1086c1.29,4.66-1.28,10.39,5.75,5.93l9.25-11.34C350.83,1083.43,331.33,1080,337.11,1086Z" transform="translate(-8.36)"/><path class="cls-2" d="M301.75,1115.6l5.66,13.51c5.19-3.91,7.49-10.76,13.91-10C313,1118.87,311.09,1111.86,301.75,1115.6Z" transform="translate(-8.36)"/><path class="cls-2" d="M385.19,1095.12c-12.55-4-17.07,2-21.3,7.27s-8.16,9.83-19.41,2.9c-24.06,10.38-12.92,21.08-3.89,31.2,9.71-2.65-4.46-16.36,9.69-25.28,10.3-.29,22.5-1.28,26.71,6.35C402.38,1111.62,373,1103.61,385.19,1095.12Z" transform="translate(-8.36)"/><polygon class="cls-2" points="302.06 1148.34 313.74 1145.22 305.41 1137.44 302.06 1148.34"/><polygon class="cls-2" points="388.44 1135.84 396.43 1127.26 378.72 1131.08 388.44 1135.84"/><path class="cls-2" d="M381.38,1170.38l7.83-2.2c4.85-5.14,7.4-10.87.59-12.72C380.4,1159.35,384.31,1165.78,381.38,1170.38Z" transform="translate(-8.36)"/><path class="cls-3" d="M549.58,1015.86c-30.14-14.12-66.08-21.6-102.41-21.41a132.16,132.16,0,0,1-16.9,18.21l-24-4.21c-20.8,6.17-44.3,16.77-53.22,35.63-4.47-1.23-5.14-3.57-9.6-4.8-6.24,6.8-22.74,6.42-28.05,16.63-10.8-2.05-12.75-9-20.38-14.51-4.72,3.16-10.24,4.81-16.14,5.77s-12.17,1.18-18.4,1.57c-12.45.74-24.65,2-33.5,10.39-7.22-8.79-13.93-4.08-20.92.85s-14.24,10-21.93,1.7a59.8,59.8,0,0,0-17.27.93,55.9,55.9,0,0,0-15,5.21,40.55,40.55,0,0,0-11.23,8.2,22.39,22.39,0,0,0-5.82,10c-.57-3.59,5.12-14.34-4.9-17.59-1.61,1.52-5.1,3.31-4.91,4.49-.92.15-5.74-.66-10.88-.65s-10.58.66-12.94,4c-2,2.52-2.44,4.33-1.69,6.17,5.91,3.29,7.77,8.73,6.86,15.54a42.85,42.85,0,0,1-3.27,11,97.78,97.78,0,0,1-6.46,12.22c-1.28,2.1-2.66,4.22-4.1,6.35s-3,4.21-4.51,6.31c-3.11,4.19-6.38,8.41-9.64,12.38-6.52,7.93-12.92,15.33-17.38,21.11-2.78,1.73-5.68,3.15-8.51,4.8a98.43,98.43,0,0,0,17,3.15,91.8,91.8,0,0,0,19.3-.34c-2.37-2.82,1.68-4.42,4.92-6s5.66-3,.19-5.47c-2.07.19-4,1.58-6,1.8-2.53-1-5-1.93-7.55-3l-7.5-3.08c6-2.83,16.19-3.14,25.8-4.51,4.8-.72,9.45-1.57,13.27-3.21s6.85-3.85,8.42-7.11a33.31,33.31,0,0,1,16.63,6.56c4.38,3.14,8.11,6.79,12.79,9.7,5.65-.6,11.57-.9,17.63-1s12.16-.35,18.08-.84c11.82-1,22.86-3.42,30.66-10.18,21.2-7.35,27.66,2.17,35.69,8.93,8.72-7.08,27.83-5.79,29.56-15,19.37,2.42,29.05,14.87,39.75,23.25,15.31,2.16,13.37-4.89,21.46-13.37,14-2.59,14.14,3.6,14.75,9.41s1.59,11.18,17.22,6.81c12.36-1,25.21-14.71,23.14-21.69,15.62,3.06,30.59-10.16,42.67-4.91,7.3-14.13,20-15.4,33.28-16.55s27.12-2.18,36.5-15.8c28-6.55,45.82-24.42,69.36-39.42C579.34,1048.33,569.33,1028.81,549.58,1015.86Z" transform="translate(-8.36)"/></g></g></g></svg>