<svg id="Layer_1" data-name="Layer 1" xmlns="http://www.w3.org/2000/svg" viewBox="0 0 1920 1366"><defs><style>.cls-1{opacity:0.93;}.cls-2{opacity:0.85;}.cls-3{fill:#f7d1e7;}.cls-4{fill:#fcedf6;}.cls-5{fill:#f2b8da;}.cls-6{fill:#ee9fce;}.cls-7{fill:#de46a0;}.cls-8{fill:#ea8cc4;}.cls-9{fill:#e676b9;}.cls-10{fill:#e260ad;}</style></defs><title>bkgr-pk-str</title><g class="cls-1"><g class="cls-2"><g class="cls-2"><path class="cls-3" d="M1579.75,816.29c-2.29,1-6.35,1.67-8.64,2.67l-21.65-4-5.41-1-5.44-.86-10.86-1.72q-16.41,6.64-32.56,13.32c-2.86.11-5.83.3-8.86.44l-9.16.4c-6.15.25-12.28.51-18,.94a54.19,54.19,0,0,1-11.61.57c-2.15-.08-4.41-.29-6.78-.47s-4.84-.4-7.42-.67c-10.32-1.09-22.34-2.81-35.91-4-5.11.11-10,.45-14.64.68l-13.36.68c-8.51.43-16.25.81-23.42,1.24-3.59.18-7,.55-10.36.87s-6.54.68-9.65,1.06c-6.23.76-12.08,1.64-17.72,2.74,2.32,4.21-1.52,6.43-9.34,7.39-2,.25-4.16.38-6.59.51s-5.06.24-7.88.28c-5.65.08-12-.05-18.89-.29s-14.18-.62-21.71-1l-22.92-.67c-7.67-.2-15.27-.35-22.53-.37-3.63,0-7.17.13-10.59.26s-6.72.32-9.87.55c-.79,6-1.6,12.27-2.32,17.79a118.33,118.33,0,0,0-17.83.09c-5.51.44-10.79,1.1-16.39,2a210.54,210.54,0,0,1-42.1,2.72c-15.72,8.7-31.85,14-48.69,17.66-8.4,2-17,3.52-25.75,4.83q-6.59,1-13.32,1.79l-6.77.81c-2.27.28-4.55.61-6.84.91-7,2.16-12.33,4.14-17.59,6.12l-20.83.13c-3.48,0-7,.13-10.42.21l-10.44.29c-15.69,4.38-18.31,8.48-17.92,12.55s3.8,8.1.31,12.32l-9,.28c-3,.12-6,.3-9,.45l-18.28,1-18.62,1c-3.15.15-6.3.43-9.48.67l-9.6.75c-5.18-1.48-10.47-2.47-15.67-4,1.57-5.46,4.9-11.72,6.47-17.2l12.94-7.89,6.49-3.95,6.52-3.82c34.92-6.67,45.49-11.06,42-12.88,4-3.93,3.35-6-.28-6.92s-10.23-.42-18.16.57-17.17,2.61-26.08,4.11l-6.59,1.1-6.29,1.12c-4.06.7-7.83,1.28-11.12,1.67-1.85-2-5.4-3.82-7.22-5.87l21-9.27c7-3,14.12-5.92,21.21-8.88A173.81,173.81,0,0,0,898.36,840c6.11-2.43,10.33-4.61,14.71-6.6a69.47,69.47,0,0,1,15.72-5.12c3.4-.71,7.36-1.33,12.15-1.86,2.39-.25,5-.52,7.82-.7s5.93-.29,9.28-.38c1.9-3,5.63-6.72,7.52-9.74,6.31-1.39,12.19-2.73,18.09-4.13s11.81-2.92,18.21-4.35c5.35.48,10.71,1,16.09,1-2,3.91-5.83,8-9.67,12.07-1.86,1.12-6,3-13,4.92s-16.86,3.7-30.23,4.2c6,6.87,4.33,14.2-1.19,21A54.57,54.57,0,0,1,953.1,860a109.42,109.42,0,0,1-13.9,8.5,32.17,32.17,0,0,0,11.61.75,91.78,91.78,0,0,0,11.87-2.17c8.17-1.93,17.05-4.41,27.56-4.37,4-.66,8-1.36,12.22-2l12.76-1.75c8.64-1.15,17.5-2.26,26.37-3.26.59-9,.73-11.19.9-13.65l6.07-.52,6.22-.37c4.17-.23,8.4-.43,12.62-.56a221.76,221.76,0,0,1,24.73.47l4.95-1c1.61-.3,3.18-.54,4.72-.79,3.07-.49,6-.93,8.79-1.34,5.61-.8,10.73-1.47,15.58-2.11s9.41-1.25,13.91-1.95c2.25-.34,4.48-.73,6.72-1.12s4.49-.76,6.78-1.21c4.85-10.83,26.14-8.42,35.24-9.51,41.83-17,95.71-21.7,161.17-17.66,2.3,2.06,9.72,3.93,19,5.72,4.63.89,9.72,1.76,14.87,2.62l7.72,1.29c2.56.42,5.07,1,7.49,1.43,25.27-4.88,46.41-6.88,41.55-16.32-7.19-1.21-12.45-2.7-17.81-3.74l-21.72-3-5.44-.74c-1.81-.23-3.63-.4-5.44-.61L1379.28,790l-21.83-2.28-10.93-1.09c-3.65-.35-7.3-.56-11-.83-11.1-.14-24.06.11-35.27.44-4.94,1.56-9.86,3.31-14.76,5l-14.7,5.18a114.57,114.57,0,0,0-19.92-4.34q-3-.44-6.12-.82c-2.1-.23-4.25-.42-6.45-.61-4.4-.37-9-.7-13.68-1-9.38-.61-19.19-1.11-28.8-1.67s-19-.78-27.57-1.45c-5.3-1.3-11.06-2.59-16.84-3.94l-8.61-2.05c-2.84-.65-5.62-1.32-8.29-2q4.62-1.34,9.69-2.3c3.38-.59,6.91-1.06,10.56-1.45,7.3-.78,15.1-1.22,23.28-1.49,16.35-.71,34.24.08,52.67-.11l13.62.6,13.48.91,26.56,1.83c4.39.33,8.76.55,13.13,1l13,1.22,26,2.45c3.25,0,6.54,0,9.84,0l10,.25,20.15.53,20.18.56,19.83,1c6.7.52,13.23.89,19.59,1.17l9.4.36,9.12.46c12,.57,23.24,1,33.67,1.56,2.61.15,5.16.31,7.67.5s4.94.5,7.32.78c4.78.58,9.33,1.27,13.65,2.1a89.74,89.74,0,0,1,22.93,7.24l5.82,1.46c1.9.48,3.73,1,5.54,1.53l10.47,3,20.45,5.92C1581.33,811.93,1580.56,814.05,1579.75,816.29Z"/><path class="cls-4" d="M1399.05,815.5c-2.42-.47-4.93-1-7.49-1.43l-7.72-1.29c-5.15-.86-10.24-1.73-14.87-2.62-9.26-1.79-16.68-3.66-19-5.72-65.46-4-119.34.67-161.17,17.66-9.1,1.09-30.39-1.32-35.24,9.51-2.29.45-4.54.85-6.78,1.21s-4.47.78-6.72,1.12c-4.5.7-9.06,1.32-13.91,1.95s-10,1.31-15.58,2.11c-2.8.41-5.72.85-8.79,1.34-1.54.25-3.11.49-4.72.79l-4.95,1a221.76,221.76,0,0,0-24.73-.47c-4.22.13-8.45.33-12.62.56l-6.22.37-6.07.52c-.17,2.46-.31,4.69-.9,13.65-8.87,1-17.73,2.11-26.37,3.26l-12.76,1.75c-4.17.64-8.25,1.34-12.22,2-10.51,0-19.39,2.44-27.56,4.37a91.78,91.78,0,0,1-11.87,2.17,32.17,32.17,0,0,1-11.61-.75,109.42,109.42,0,0,0,13.9-8.5,54.57,54.57,0,0,0,10.76-9.71c5.52-6.82,7.15-14.15,1.19-21,13.37-.5,23.23-2.27,30.23-4.2s11.14-3.8,13-4.92c3.84-4.08,7.66-8.16,9.67-12.07l26.21-2.26c8.6-.61,17.22-1.12,26.27-1.71s17.63-1.16,26.23-1.64l26.32-1.1c.22-2.11,4.43-3.4,10.29-4.32,2.93-.46,6.28-.83,9.75-1.16s7.08-.51,10.52-.78c13.74-1,24.87-2.5,14.76-8.62,8.58.67,18,1,27.57,1.45s19.42,1.06,28.8,1.67c4.69.3,9.28.63,13.68,1,2.2.19,4.35.38,6.45.61s4.14.53,6.12.82a114.57,114.57,0,0,1,19.92,4.34l14.7-5.18c4.9-1.72,9.82-3.47,14.76-5,11.21-.33,24.17-.58,35.27-.44,3.65.27,7.3.48,11,.83l10.93,1.09,21.83,2.28,10.91,1.18c1.81.21,3.63.38,5.44.61l5.44.74,21.72,3c5.36,1,10.62,2.53,17.81,3.74C1445.46,808.62,1424.32,810.62,1399.05,815.5Z"/><path class="cls-5" d="M1168.3,786.52c10.11,6.12-1,7.61-14.76,8.62-3.44.27-7,.44-10.52.78s-6.82.7-9.75,1.16c-5.86.92-10.07,2.21-10.29,4.32l-26.32,1.1c-8.6.48-17.18,1.07-26.23,1.64s-17.67,1.1-26.27,1.71L1018,808.11c-5.38,0-10.74-.48-16.09-1-6.4,1.43-12.3,3-18.21,4.35s-11.78,2.74-18.09,4.13c-1.89,3-5.62,6.7-7.52,9.74-3.35.09-6.43.22-9.28.38s-5.43.45-7.82.7c-4.79.53-8.75,1.15-12.15,1.86a69.47,69.47,0,0,0-15.72,5.12c-4.38,2-8.6,4.17-14.71,6.6a173.81,173.81,0,0,1-26.07,8.09c-7.09,3-14.17,5.88-21.21,8.88l-21,9.27c1.82,2.05,5.37,3.82,7.22,5.87,3.29-.39,7.06-1,11.12-1.67l6.29-1.12,6.59-1.1c8.91-1.5,18.15-3.1,26.08-4.11s14.52-1.49,18.16-.57,4.27,3,.28,6.92c3.47,1.82-7.1,6.21-42,12.88l-6.52,3.82-6.49,3.95L837.83,899c-1.57,5.48-4.9,11.74-6.47,17.2-6.45,1.72-12.8,3.3-19.06,5l-18.65,5.19c-12.38,3.49-24.8,6.75-37.51,10.75l-15.36,3.24c-5.07,2-10.57,4-16.06,6-2.76.94-5.49,2-8.16,3l-7.81,2.88c-8.88-2.73-17.78-5-26.73-7.71-7.36.5-11.85,1.53-14.82,3a14.78,14.78,0,0,0-5.93,5.24c-2.86,4-5.43,8.7-18.87,13l-10.28,1.48L627,968l-5.13.81L601.33,972l-20.55,3.22c-6.84,1.13-13.65,2.4-20.48,3.63-9.59,3.38-18.31,6-26.37,8s-15.39,3.68-22.33,4.83-13.44,2-19.72,2.58c-3.14.31-6.23.57-9.28.83l-9.06.88c-12,1.18-24,2.52-37.59,5.76s-28.59,8.81-46.82,17.82c-23.61,6.17-47.39,12.12-72.43,19.9-7.67,3.7-15.35,7.39-23,11.17l-22.8,11.59c-7.58,3.89-15.19,7.67-22.72,11.63l-22.57,11.83-15.82,6.64c-5.27,2.23-10.49,4.58-15.74,6.86L162.6,1113c2.58-3.73-4.13-1.73-9.3-.9-15.24,7-21.74,14.28-32.16,22.76a124.9,124.9,0,0,1-20,13.61A140.55,140.55,0,0,1,65.7,1161.9c-1.61.45-3.24.82-4.86,1.22s-3.23.79-4.86,1.07l-4.86.91c-1.62.26-3.24.45-4.86.67l-2.41.32c-.81.08-1.62.12-2.42.19l-4.81.36-4.77.07-2.37,0-2.35-.12-4.54.28H15.8l-2.24-.17-4.49-.32L17,1184.16q8.91-13.23,17.88-26.42c6.22-8.61,12.44-17.22,18.76-25.73,9.86-12.18,19.22-24.15,29.19-35.63l7.38-8.69c1.24-1.44,2.44-2.92,3.71-4.34s2.55-2.84,3.82-4.27l15.44-17.27c3.53-3.85,7.16-7.64,11.86-12.64,14.39-13.71,18.47-13.36,20.79-11.38s3.17,5.84,11.57,0c2.55-2.25,5.22-4.79,8-7.5,1.37-1.36,2.77-2.75,4.18-4.17l4.36-4.26c5.86-5.76,11.83-11.8,17.61-17.21a141.07,141.07,0,0,1,16.59-13.23c5-3.25,9.43-5,12.88-4.44l13.93-11.61,7.1-5.86,7.28-5.69,14.53-11.29c2.39-1.88,4.85-3.67,7.28-5.45l7.22-5.29c12.54-11.93,19.94-20.41,27.24-28.19,1.83-1.94,3.66-3.83,5.58-5.69s4-3.62,6.23-5.43a134.32,134.32,0,0,1,16.19-11.14c3.44-2.55,6.93-4.87,10.31-7.23l10.08-7c3.36-2.3,6.66-4.67,10.1-6.94l10.5-6.93,14.28-9.42c1.85-6.13,8.51-12.12,16.25-17.27,1.93-1.29,3.93-2.52,5.94-3.69s4.08-2.21,6.08-3.21c4-2,7.78-3.69,10.91-5,4-2.64,8-5.39,12.13-8.07l12.58-8,12.6-7.87,12.53-7.33c1.92,1.47,5.55.82,10.17-1,2.32-.9,4.87-2.12,7.62-3.46s5.69-2.8,8.7-4.34c6-3.07,12.36-6.34,18.31-8.86s11.61-4.08,16.07-4.08l11.7-4.82c3.86-1.63,7.79-3.07,11.65-4.59,7.75-3,15.37-6,23-8.91l22.85-8.47c3.77-1.44,7.6-2.74,11.4-4.09l11.4-4.06c9.4-5.62,18.37-11.59,26.54-17.5l6-4.36c1.94-1.45,3.84-2.84,5.71-4.15,3.72-2.65,7.22-5.14,10.49-7.35,6.53-4.4,12-7.78,16.42-8.9s7.5-.26,9.18,3.59a208.81,208.81,0,0,0,22.55-7.56c7.71-2.9,15.61-6.18,23.84-9.49s16.88-6.37,25.91-9.25c2.26-.71,4.54-1.42,6.87-2.07s4.68-1.23,7.07-1.79c4.78-1.14,9.67-2.14,14.69-3,31.49-7.75,64.77-15.15,96.66-20.7,7.39-3,15.25-5.85,23.3-8.89s16.38-5.94,24.74-8.87c7.58-1.59,15.58-3.29,23.61-4.77s16-3.11,23.62-4.5c8.48-1.72,17-3.57,25.21-5.38s16.36-3.36,24-4.84c3.39-1.24,6.94-2.54,10.57-3.75s7.34-2.35,11-3.44a214.13,214.13,0,0,1,21.22-5.31c13.08-2.35,22.92-2.22,23.72,3.1,5.07-.7,10.18-1.25,15.34-1.84,3.54-5.34,12.59-7.47,21.41-8.92s17.43-2.13,20.11-5c1.33-1,4.37-1.89,8.37-2.67a120.18,120.18,0,0,1,14.14-1.62,126.57,126.57,0,0,1,15.33,0,41,41,0,0,1,12,2.27l17.32-1.3c19-1.75,38-3.85,57.18-5.65a29.32,29.32,0,0,1,10.72-5,73.23,73.23,0,0,1,13.71-2,155.09,155.09,0,0,1,26.29.89l20.88-1.2,20.9-.93c13.93-.66,27.88-.9,41.83-1.18,6.11-.22,12.32-.33,18.59-.47s12.58-.28,18.9-.31l18.92-.15,9.38-.09,9.27,0c.9-2.66,5.13-4.31,11.45-5.09a85.27,85.27,0,0,1,10.89-.54c4.05.07,8.47.34,13.1.8a212,212,0,0,1,29.06,4.89,158.15,158.15,0,0,1,26.66,8.6l16.48,1,8.39.51,8.06.56c9.37-2.6,18.65-4.78,27.93-6.88,24.2,2.32,63,3.38,73.64,10.63l16.46,1.6,16.41,1.73a99.58,99.58,0,0,1,17.6-1,54.43,54.43,0,0,1,11.39,1.74c6.47,1.69,11.63,4,21.19,4.9l8.65,1.06c1.36-5,2.66-10,4.06-15a44.2,44.2,0,0,1,15.24-2.62c1.21,0,2.34.08,3.57.18s2.52.26,3.78.39l7.61.94c2.57.34,5.26.54,8.09.65a41,41,0,0,0,9.22-.8,26.52,26.52,0,0,0,18.93-15.2l4.56-9.8-13.21-8.9a70.62,70.62,0,0,0-9.24-5.35c-7.8-4.14-12.09-3.86-17.67-4.6-4.28,7.39-17.38.65-33.38-7.66-2-1.07-4.06-2-6.16-3s-4.23-2-6.38-2.9c-4.3-1.89-8.68-3.67-13-5.11-2.17-.72-4.33-1.36-6.47-1.9a54.14,54.14,0,0,0-6.36-1.07,37.42,37.42,0,0,0-11.92.4c-12-3.25-13.88-7.63-18.49-11.86a30.3,30.3,0,0,0-10.49-6.27,72.73,72.73,0,0,0-9.74-2.84c-2-.43-4.12-.92-6.51-1.25s-5-.68-7.83-1c-4.57,3.13-12.91,3.69-23.55,2.56-5.34-.47-11.28-1.28-17.61-2.42q-4.76-.85-9.78-1.92l-5.08-1.1-5.2-1.06c-7-1.46-14.22-3.11-21.49-4.83l-5.45-1.31-5.47-1.21-10.87-2.46-10.65-2.42-5.21-1.17-5.1-1c-6.72-1.36-13.1-2.62-18.94-3.66l-18.53,4.61-18.35,4.44-4.38-1.13-4.33-1c-2.86-.63-5.69-1.22-8.48-1.75-5.58-1.08-11-2-16.35-2.69a295.17,295.17,0,0,0-30.71-2.24c-19.77-.31-38.36,1.22-57.39,3.22l-29.09,3c-5,.48-10,.93-15.19,1.32s-10.43.79-15.84,1.07a544.15,544.15,0,0,1-73-.95c-17.71-4.16-36.27-3.07-54.5-1.59s-36.16,3.22-53.22.33c-4.16,7.47-16.74,11.59-33.32,14.49-4.13.77-8.53,1.44-13.11,2s-9.33,1.27-14.22,1.81-9.87,1.23-14.91,1.82l-15.23,1.79c-5.08.66-10.12,1.44-15.09,2.18s-9.85,1.46-14.56,2.36c-9.39,1.88-18.17,3.81-25.7,6.13-15,4.93-25.13,10.62-25.68,18.43-4.95,1.37-10.06,2.67-15.27,3.93-2.61.65-5.25,1.22-7.89,1.9l-8,2-16.06,4c-5.33,1.44-10.64,2.93-15.86,4.42-20.91,6-40.29,13.22-54,22.17-5.75-.78-10.26-1.24-13.93-1.57s-6.47-.49-8.76-.49a22.09,22.09,0,0,0-10.23,2.07c-13.72,8.78-4.42,11.22-4.95,16.42-16,5.62-30.52,10.59-46.55,16.34,5.09-7.28-.59-7.23-8.95-5.4-4.17.92-9,2.28-13.47,3.39s-8.52,2.08-11.21,2a70.33,70.33,0,0,1-12.23,10.19A97.55,97.55,0,0,1,743.05,607a153.87,153.87,0,0,1-15.38,5.8c-5.32,1.78-10.86,3.38-16.56,4.93l-8.67,2.32-8.83,2.47c-6,1.68-12,3.44-18.15,5.45-12.17,4.16-24.65,9.1-36.72,16.27a72.71,72.71,0,0,0-10.48,8.47,43.58,43.58,0,0,0-6.13,7.64c-3,4.85-4.47,9.25-6.71,13.57a33.83,33.83,0,0,1-4.28,6.48,40.06,40.06,0,0,1-7.31,6.73c-6.3,4.62-15.88,9.52-31.12,15.4-21.07,25.47-28.59,29.33-68.77,49.23-21.74,1.93-51.31,20.54-84.64,34.86-3.06-2.47-7.39-3.57-10.62-6.47-8.13,3.06-16.46,5.67-24.83,8.31-21.7-1.43-32-7-60.82,5.24-.11-4.38,1.23-9.74,1.1-14.13,29.84-22.36,35.31-31.46,47.17-39.15,11-1,23.74-2.57,34.77-3.56,15.15-13.07,31.7-27.42,47-40.32l24.84-15.42,24.93-15.23c5.78-8.94,11.61-17.84,17.64-26.34,4.28-3.61,8.73-6.76,13-10.34,12.06-5.5,23.92-10.47,35.7-15.49l35.93-14.94c6.95-1.65,13.49-3.08,20.2-4.6s13.68-3,21.38-5c1.08,3,2.06,5.79,3.78,10.66,27-13.07,55.81-26.43,83.34-38.71l18.08-7.54,8.89-3.74,8.93-3.58,17.91-7.15L806,532.28c7.14,0,16.19.06,25.08-.4,3.8-3,7.55-6.13,11.18-9.07s7-5.81,10-8.41a72.07,72.07,0,0,1,13.86-5.17c4.4-1.12,8.57-1.87,12.54-2.68a76.66,76.66,0,0,0,11.45-3A39.29,39.29,0,0,0,901,497.69c-16.91-5.11,22.54-14.19,72.59-29.93,6.15-.77,11.86-1.43,17.57-2.08l4.28-.49,4.35-.4,9-.85c3.67-1.44,6.78-2.76,9.42-4s4.81-2.34,6.65-3.29a35.37,35.37,0,0,0,7.47-5.1c3.22-3,4-5.26,9.28-7.9,7.1-2.13,14.29-3.83,21.45-5.71l10.77-2.77c3.59-.92,7.22-1.67,10.84-2.52-6.26-3.42-1.28-6.07,7.16-8.52,2.11-.61,4.43-1.21,6.84-1.8s4.92-1.19,7.4-1.71c5-1.07,9.77-2.17,13.46-3.39,5.45.15,10.37.05,14.89-.26s8.64-.71,12.51-1.31c7.74-1.22,14.44-2.77,21.18-4.4a180.55,180.55,0,0,1,21.23-4,125.46,125.46,0,0,1,27.28,0c9.23-1.36,9.13-4,9-6.44s-.26-4.67,8.92-5c7.3-.07,12.75,0,18.21,0a138.09,138.09,0,0,0,16.33,11.38,134.57,134.57,0,0,0,15.16-.54c3.79-.34,8.44-.84,14.34-1.57,3-.37,6.23-.82,9.86-1.33s7.62-1.06,12-1.72c2.8,4.31,5.47,9.09,6.4,13.81,17.67,1.17,33.42,2.91,51,4.33,5.55-1.08,11.19-2.14,18.52-3.12,4.23.14,8.45.25,12.68.42l12.69.55c8.46.4,16.91.72,25.38,1.24l25.42,1.44L1498,422.4c-2.37,4.12.65,6.17,6.34,7.24s14.07,1.32,22.44,1.57c4.19.14,8.37.27,12.21.59a62.66,62.66,0,0,1,10.14,1.62c5.61,1.52,8.45,4.1,5.8,8.72l15.93,1.94c2.63-6,.13-10.13-1.84-13.76s-3.4-6.88,1.49-11.22c7.94,1.49,16.37,3.06,24.78,4.57,4.21.78,8.41,1.47,12.56,2.33s8.23,1.7,12.2,2.57c-1.36,4-2.69,8.55-4.11,13.05,23.27,8.8,28.93,7.2,32.92,3.74s6.17-8.5,22.26-5.56c8.56,2.7,16.64,5.42,24.69,8.21l6,2.09c2,.72,4,1.51,6.05,2.26l12.36,4.65c2.13,1.94,5.88,3.4,10.2,4.65,1.09.31,2.2.6,3.34.89l3.44.91,6.85,1.75c16.68,2,10-5.12,13.27-8.12l10.62,2.78c3.53,1,7,2,10.58,3.05l21.15,6.18c15.53,3.45,19.6,1.54,22.71-.54s5.26-4.24,17-.78c12.38,10.2,20.39,17.4,26.88,24.43a186.66,186.66,0,0,1,17.37,23.33c2.71-.08,5.49-.13,8.51-.09l32.34.46L1914,562.52a52.6,52.6,0,0,1-4.11,12.23c-.49,1-1,2-1.55,3s-1.16,2-1.78,2.91-1.28,1.9-2,2.84l-1,1.39c-.35.45-.7.85-1,1.28-1.42,1.66-3,3.31-4.53,4.86-1.49,1.39-3,2.75-4.66,4-.84.68-1.57,1.22-2.33,1.76s-1.53,1.08-2.32,1.6-1.6,1.07-2.34,1.52l-2.18,1.28-2.24,1.24-1.11.59-1,.51q-2.05,1-4.17,2c-1.29.56-2.56,1.08-3.86,1.6s-2.51,1-3.71,1.38c-4.9,1.74-9.15,2.93-13.24,4a62.5,62.5,0,0,1-9,1c-1.51.05-3.08.07-4.61,0l-3.76-.12c-4-.15-8.24-.59-12.63-1.16-8.79-1.13-18.12-2.77-26.85-3.27-7.27-6-20-11.67-12.7-19.29-6.65-1.73-15.11-3.53-23.61-4.91-4.81,1.37-9.59,2.74-14.14,4.14s-8.87,2.88-12.76,4.37c-6.9-.67-13.81-1.35-20.65-2.3a158,158,0,0,1-20.23-3.87c-22.56-1.51-45.22-2.3-67.85-2.93-11.9-1.78-24.28-3.27-36.68-4.82-12.4-1.39-24.81-2.79-36.78-4-23,1.79-44.38,4.29-67.24,6.58l-34.08,1.93-17,.93c-5.66.3-11.3.71-17,1-37.56-2.31-75.24-3.9-114.74-4.06l-17.24.85c-.15,1.84-.34,4.19-.54,6.56-10.59,2.8-21,5.87-33.16,8.46-6.93,1.32-13.81,2.7-20.69,4l-20.64,3.74-24,2.12c-8.3.75-16.79,1.68-25.3,2.52-10.25,1-20.4,2.26-32.3,3.61a221,221,0,0,0-22.53-.62,142.67,142.67,0,0,0-14.33,1c-7.64,1-12.3,2.3-19.08,2.32-20.28,5.29-11.75,10.22-25.15,15.16l-16,2.55-15.92,2.78c-6.54-.2-12.65-.26-18.37-.06s-11.06.61-16.12,1.1-9.85,1.08-14.4,1.83-8.9,1.6-13.13,2.47c-8.45,1.76-16.42,3.64-24.53,5.65-4.06,1-8.17,1.91-12.41,2.8s-8.64,1.68-13.21,2.52l-24,5.82-23.93,6.2-5.8,4.39c-1.91,1.46-3.76,3-5.58,4.45-3.62,3-7,5.84-10.06,8.62-12.57,7.26-24.83,15-37.12,22.51-15.78,6.44-31.56,12.85-45.41,19.65-13.17,1.87-26.23,4.22-39.37,6.44-5.25,1.46-10.41,3.13-15.58,4.7l-15.4,4.74c-2.56.76-5.07,1.59-7.57,2.41l-7.46,2.44-14.59,4.74c-6.73.7-11.66,1.37-16.74,2L621.28,762.8l-13.35,10.81-12.37,7.45L583,788.88l-12.49,7.82c-4.13,2.61-8.14,5.31-12.09,7.9L551,808.28a122.94,122.94,0,0,0-12.23-1.68c-4.29-.33-8.75-.51-13.18-.58l-14.95,7.79c-4.49,7.15-3.21,9.31-.91,10.16s5.69.49,5.61,2.65L503.7,837.78c-5.81,3.26-10.72,5.61-14.84,7.46a71.94,71.94,0,0,1-10.44,3.9,48.29,48.29,0,0,1-13.56,1.67,41.94,41.94,0,0,0-5.79.43,31.5,31.5,0,0,0-6.83,2.07,64.09,64.09,0,0,0-9.24,5c-1.82,1.15-3.79,2.47-5.94,4s-4.51,3.23-7,5.28c-1.29,5.23-2.56,10.45-2.42,14.77-5.59,3.56-11.27,7-16.84,10.67L394.2,904l-7.15,3.69-7,3.85-13.92,7.69c-2.29,1.28-4.62,2.51-6.86,3.82l-6.7,3.87q-6.68,3.84-13.18,7.48c-27.69,18.11-53.28,36.62-78.23,55.93-9,13.43-3.93,11.33,3.45,7.27s17.42-9.75,17.87-4.39c-3.87,6.12-6.5,10.52-8.16,13.71s-2.35,5.18-2.47,6.29c-.24,2.22,1.93,1.1,4.16.08,1-.66,2-1.31,2.85-2s1.74-1.24,2.52-1.86a41.9,41.9,0,0,0,4.08-3.66,49.92,49.92,0,0,0,5.72-7.16c3.26-4.73,6-9.59,12.58-14.45,1.75-.2,4.57-1.84,7.62-3.08,2.64,4.46,5.33,8.87,8.26,13.69a97.6,97.6,0,0,0-7.92,17.78l-4.91,7.13L294.61,1029l-11.71,9.36c-3.88,3.13-7.79,6.24-11.67,9.46s-7.66,6.63-11.58,10c-.14-3-4.24-.54-8.63,1.57a46.66,46.66,0,0,0-5.15,3.95,41.76,41.76,0,0,0-3.74,3.88,48.46,48.46,0,0,0-5.09,7.45c-1.41,2.45-2.7,4.88-4.38,7.38a44.74,44.74,0,0,1-2.88,3.79,48.45,48.45,0,0,1-3.76,4c-6,3.79-12.32,8-18.74,12.39-1.63,1.09-3.2,2.24-4.77,3.4l-4.76,3.5c-3.19,2.35-6.39,4.73-9.59,7.1a75.66,75.66,0,0,0-14.24,14.36,105,105,0,0,0-8.54,13.55c-2.38,4.51-4.52,9.09-7.34,13.81-1.4,2.37-2.95,4.78-4.76,7.27s-3.9,5-6.2,7.76l-14,17.37c-2.21,2.28-4.22,4.71-6.3,7.1l-6.19,7.2c-4.1,4.83-8.32,9.59-12.32,14.48q-5.4,9.24-12,19.31l-74.75-166c.07-.43.13-.85.18-1.27l0-.31v0a.48.48,0,0,1,.1-.09.27.27,0,0,1,.22-.09s.14,0,.21-.07a1.25,1.25,0,0,1,.26-.07c.24,0,.94-.22,1.5-.22a2.47,2.47,0,0,0,.56-.12l.63-.12.63-.09a6.23,6.23,0,0,0,.78-.17c.54-.13,1.1-.24,1.66-.33l2-.52,1-.23,1.21-.36,2.47-.69,2.8-.91c.48-.16.91-.25,1.45-.46l1.57-.56,1.57-.54c.53-.19,1-.35,1.64-.59l3.47-1.31c4.83-1.88,10-4,15.88-6.59l2.16-.94,2.28-1,4.6-2,9.89-4.46c13.75-6.15,27.31-12.23,40.31-18.16,15.56-7.66,31.78-11.29,46.79-15.66s29.07-9,40.3-19.33c7.18-2.62,14.62-5.38,22.13-8.37s15.13-6.18,22.74-9.45c3.81-1.62,7.59-3.32,11.41-4.93l11.42-4.82,22.37-9.43,10.81-4.43c3.57-1.37,7.08-2.7,10.53-4,6.89-2.52,13.5-4.79,19.73-6.69a177.09,177.09,0,0,1,17.45-4.47,75.67,75.67,0,0,1,14.69-1.36,255.88,255.88,0,0,1,28.34-13.68c5.38-2.34,11.11-4.46,17-6.7l17.91-6.69,18.16-6.77c6.06-2.18,12.05-4.39,17.85-6.63s11.43-4.51,16.77-6.83,10.36-4.72,15-7l38.71-7.59c6.29-1.26,12.58-2.3,18.82-3.4l18.65-3.24c6.08-2.12,12.42-4.24,18.92-6.28s13.23-3.88,20-5.79c13.5-3.8,27.15-7.72,40.34-11.2s25.68-7.26,36.79-11.06c11.16-3.63,20.87-7.48,28.33-11.68,19.73-2,41.4-4,61.21-5.47,8.94-1.79,18.41-3.17,27.16-4.94s16.83-3.71,23.12-6.21c6.75-.79,13.37-1.43,19.76-2.13l18.47-2.07c5.9-.66,11.53-1.29,16.84-1.82s10.34-.78,15-1c18.56-.76,31.15.79,34.57,8.11,5.39-1.22,10.85-2.64,18.11-4.39L993.25,799c1.84-.22,5.41-.49,9.09-.83,14.64-3.59,29.3-6.8,44.05-10.3l25.54-1.65c4.6-.76,9.19-1.4,13.56-2s8.51-1.28,12.22-1.86c12.92-1,24-2.41,36.85-3.86,2.67.7,5.45,1.37,8.29,2l8.61,2.05C1157.24,783.93,1163,785.22,1168.3,786.52Z"/><path class="cls-3" d="M612.46,992c-5,1.82-10.33,3.75-15.72,5.63L581,1003c-8.35,2.18-16.31,4.12-24.29,6s-16,3.63-24.35,5.78L509.13,1022c-15.24,2.63-29.94,5.71-44.72,8.64-7.39,1.49-14.81,2.87-22.24,4.41s-14.91,3.1-22.53,4.62l-8.27,2.88c-13,5.6-25.8,11.66-38.65,17.56l-19.24,8.9-19.1,9.2-15.49,5.93-7.87,3-7.51,3c-6.07-3.11-12.26-6.65-20-9.09l-38.94,15.59q-9.74,3.86-19.54,7.45-4.91,1.8-9.84,3.51c-3.28,1.15-6.55,2.33-9.84,3.45-3.72,6.22-7.64,11.5-11.43,17.23-5.85,3.08-12.74,6.09-19.87,9.08s-14.39,6.14-21.16,9.16c-13.54,6-24.84,12-27.65,17.92-4.48,6.68,1.13,6.84,10.08,4.08s21.17-8.12,30.55-12.92c6.89-4,12.08-6.55,16.25-7.94a28.48,28.48,0,0,1,9.82-1.75c5.16.09,8.37,2,14.42,1.38-4.33,3.68-8.67,7.24-13.2,10.89l-7,5.55-7.3,5.94c-8.93,3-21.1,8.73-34.1,15.07-13.1,6.49-28,14.15-42.44,19.88a181.05,181.05,0,0,1-20.54,6.94c-3.17.83-6.19,1.45-8.87,1.94a56.58,56.58,0,0,1-7.28.76c-4.15.18-7-.56-7.83-2s.26-3.73,3.41-7.08a168,168,0,0,1-27.67,4.64,142.51,142.51,0,0,1-30.17-1l-52.22-7.45L-18.29,1160c5.76-7.82,11.83-15.79,18.31-24,1.6-2.07,3.34-4.08,5.06-6.13l5.29-6.19q5.37-6.24,11.14-12.71c-3.71-1.3-8.5-1.16-12.19-2.5-6.38,5-17.21,19-25.47,29.41-8.41,10.27-15,16.47-14,5l15.23-21.12L.89,1101.06l3.94-5.17,4.06-5.07L17,1080.69l8.15-10.13c2.76-3.33,5.59-6.62,8.38-9.93l10-9.08,5-4.49c1.66-1.47,3.36-2.9,5-4.33,6.66-5.72,13.16-11.24,19.34-16.4-.79,4.75,2.13,4.07,6.34,2.2s9.85-4.85,14.21-5q26.58-34.92,55.64-68.19c7.29-11.45,9.46-17.08,11.46-22.56s3.94-10.7,10.92-21.51l11.34-9.91,11.54-9.65L205.87,882c1.9-1.62,3.86-3.17,5.82-4.73l5.85-4.67c11-6.21,17.08-8.38,20.27-8.09s3.43,3,2.71,6.72c-1.47,7.36-6.85,18.37-1.2,21l16.29-7a1307,1307,0,0,1,108.07-86.79,78.39,78.39,0,0,1,11-10.56c2.22-1.78,4.56-3.63,7.09-5.4s5.18-3.53,7.93-5.31c5.5-3.55,11.38-7.1,17.34-10.64s12.14-6.81,18.07-10.15c11.8-6.78,23.11-12.87,31.33-18.81s13.62-11.32,13.72-16.4c6.78-3.52,14-7.31,21.49-11.08s15.1-7.57,22.47-11.48L525,692.9c3.55-1.91,7-3.84,10.25-5.77a194.31,194.31,0,0,0,17.41-11.49c13.45-17.79,3.93-17.37-10.07-13.13-3.51,1-7.23,2.43-10.94,3.78s-7.4,2.73-10.76,3.87c-6.74,2.28-12.21,3.64-14.07,2.19,5.26-7.38,14.88-13.09,23.94-18.27,2.26-1.31,4.51-2.55,6.66-3.74s4.17-2.41,6-3.61c3.69-2.41,6.65-4.86,8.26-7.5,4.12-2.14,8.41-4.46,12.94-6.68l14.08-6.89c4.84-2.34,9.8-4.79,14.89-7.18l15.56-7.13c5.27-2.39,10.55-4.88,15.91-7.22l16.1-7,8-3.49c2.65-1.17,5.31-2.32,8-3.4l15.65-6.56,8.61-3.08c5.17-1.9,10.42-3.59,17.34-6q7.6-3.89,15.55-7.79c5.3-2.54,10.71-5,16.18-7.54s11-5,16.57-7.53l16.86-7.25,12.18-5c3.92-1.57,7.87-3,12.28-4.5,7.23-.81,14.46-1.74,21.68-2.66s14.47-1.6,21.7-2.28a210.52,210.52,0,0,1,30.07-9.91c5-1.27,10-2.47,15-3.45s10-1.84,15-2.65,10-1.56,14.9-2.29l14.88-2q14.84-1.95,29.6-4.36c-1.64,3.55-5.86,7.29-11.95,11.19A138.29,138.29,0,0,1,916,528.09c-4.6,1.79-9.48,3.68-14.6,5.4s-10.47,3.36-16,4.85-11.12,2.94-16.82,4.18-11.48,2.34-17.25,3.2c1.48,6.27-13.72,11-32.08,15.67-9.17,2.46-19.11,5-28.14,7.67-4.52,1.31-8.77,2.82-12.58,4.34a65,65,0,0,0-9.86,4.76c-2.77,11.84,22.32,8.23,46.58,6.19,3-.28,6-.54,9-.77s5.83-.31,8.58-.38a83.06,83.06,0,0,1,14.51.63c8,1.28,12.21,4.57,9,11.67A121.1,121.1,0,0,1,843,603.69c-2.37,1.27-4.79,2.49-7.24,3.67l-7.42,3.49c-9.92,4.61-20,8.55-28.57,12.28-17.12,7.61-28.44,13.67-21.34,19.83a156.49,156.49,0,0,1-25.13,7.8c-7.59,1.61-14.56,2.73-21.7,4-3.57.61-7.18,1.26-10.92,2s-7.61,1.66-11.64,2.92a164.56,164.56,0,0,0-27.42,11.16c.84,3.66,1.65,7.36,2.44,11.06,2.88-1.17,5.79-2.24,8.69-3.31l8.71-3.18c5.81-2.09,11.59-4.2,17.4-6.18l17.42-5.68c5.79-1.86,11.55-3.73,17.34-5.39l17.23-5c2.86-.81,5.69-1.68,8.55-2.45l8.53-2.29,16.86-4.54c2.78-.77,5.57-1.47,8.35-2.16l8.29-2.09c44-11.18,84.9-20.46,119.5-31.57-22.82-5-2.09-11.14,18-16.91,20.06-5.46,39.43-10.6,13.18-14.59l-14.29,2.31c-4.78.77-9.57,1.64-14.43,2.45-9.72,1.68-19.67,3.32-30,5.48a102.51,102.51,0,0,1,30.74-14.64c9.68-2.85,18.85-3.82,27.57-4.56,5.11-2.86,10.66-5.91,16.27-8.77s11.23-5.77,16.43-8.58c4.56-1.55,8.91-3.06,13.13-4.3s8.28-2.44,12.26-3.53c8-2.17,15.58-4.14,23.39-5.78s15.78-3.31,24.44-5.06,18.05-3.38,28.63-5.46c-.6-2.27.85-4.25,3.78-5.91s7.33-3.06,12.6-4.29,11.42-2.29,17.84-3.26,13.14-1.7,19.54-2.53c12.78-1.73,24.31-3.2,29.87-5.76s5.14-6.05-6.09-11.39c-6.79-6.42,2.64-7.73,16.7-8,7-.09,15.21.2,23.09.19,3.94,0,7.81-.06,11.43-.25a87.08,87.08,0,0,0,9.92-.9c1.63,1.89,5.55,2.81,10.95,3.14a188,188,0,0,0,19.76-.39c7.5-.42,15.64-1.09,23.57-1.64s15.67-.81,22.35-.71c9.46-5.6,36.67-8.49,26.91-16.21-19.89,1.16-21.8-1.59-24.18-4.32s-5.24-5.32-27.06-3.29c4.81-2.81-.07-7.71-.12-11.57s4.79-6.61,29-4.94c-5.65-5.86-3.26-10.1,3.94-13.38s19.19-5.38,32.64-7.27c6.72-.88,13.81-1.65,20.85-2.45s14-1.64,20.53-2.45c13-1.68,24.22-3.9,30.24-7.2,6.35-2.39,14.43-4.15,23.74-5.44a307.72,307.72,0,0,1,31-2.29c2.81-.08,5.65-.16,8.53-.2h8.72c5.88,0,11.86.12,17.88.26,12,.29,24.23,1,36.08,1.54,22-8.76,56.94-12.32,97-13.12s85.26.81,128,1.39c.94-3.63,1.93-7.45,2.83-11l7.3.77c22.72,6.29,38.63,9.52,50.87,12.46,4.45-2.53,8.42-5,12.17-7.46,1.88-1.24,3.7-2.49,5.5-3.76l1.34-.95q-5.36,46.76-10.67,93.29c-.17,2-.35,4-.52,6-.06.84-.11,1.67-.16,2.5s-.08,1.65-.14,2.56c-.11,1.77-.18,3.53-.21,5.29s-.11,3.55-.09,5.32.09,3.56.08,5.27.09,3.45.21,5.17l.1,1.29.06,1.23c0,.81.1,1.63.17,2.45s.16,1.63.26,2.45l.16,1.22.11,1.14c.16,1.51.37,3,.65,4.54a74.59,74.59,0,0,0,3.85,14.89q.32.75.69,1.5c.16.42.32.81.51,1.21s.39.8.62,1.2l.36.59a4.88,4.88,0,0,1,.26.47,10.41,10.41,0,0,0,1.17,1.71,6.65,6.65,0,0,0,.86,1.06l.26.24.08.09a1.88,1.88,0,0,0,.2.19,1.64,1.64,0,0,0,.23.16l-.13-.08-.08,0s0,0-.08,0l-.25-.13a4.34,4.34,0,0,0-1-.35l-60.69,188.44-19-7.7c-1.58-.64-3.15-1.31-4.75-1.93l-4.89-1.77-9.75-3.56c-10.16-12.27-3.09-15.23,9.5-15.32,3.13,0,6.61.12,10.22.34l2.73.17,2.7.28,5.41.57c7.2.75,14.17,1.34,19.33.91L1863,545.92a5.89,5.89,0,0,1,1.34.54.75.75,0,0,1,.14.08,2.37,2.37,0,0,1-.36-.29l-.13-.14c-.1-.1-.26-.24-.37-.36a4.9,4.9,0,0,1-.63-.78l-.07-.1-.13-.16-.26-.32c-.16-.22-.31-.43-.45-.65s-.27-.45-.39-.67l-.19-.35-.28-.46a16.62,16.62,0,0,1-1-1.87l-.19-.48-.1-.24-.14-.29c-.19-.4-.37-.8-.53-1.2-2.57-6.28-4.51-16-5.24-26.89,0-1.3-.2-2.77-.26-4.15s-.1-2.8-.11-4.19c-.07-2.82-.12-5.67,0-8.47s.13-5.54.31-8.2c.06-1.27.13-2.53.23-3.79l.31-3.6c.09-1.06.19-2.11.31-3.17l8.56-74.66-.7,0-2.83.09-5.67.19c-10.08,2.55-20.06,5.07-28.3,7.88-9.06,2.52-27.91,0-43.26-.82-7.66-.45-14.42-.58-18.59.39s-5.75,3.07-3,7c-21.47-3-34.18-2.16-44.16,0s-17.18,5.28-27.74,7c-8.16,3.33-3,6.78,6.67,9.73s23.73,5.54,33.49,6.91a236.29,236.29,0,0,1,26.29-.48,167.26,167.26,0,0,1,20.89,2.19c6.23,1.06,11.83,2.35,17,3.76s10,3,14.68,4.42c9.36,2.91,18.19,5.54,28.58,6.74a102.26,102.26,0,0,0,17,.44l2.37-.15.6,0,.31,0q-1,9.24-2.1,18.51-.17,1.36-.3,2.76c-.08,1-.17,1.94-.25,2.91-.11,1.12-.2,2.25-.28,3.39s-.12,2.32-.19,3.49-.15,2.5-.19,3.78a166.52,166.52,0,0,0,1.62,31.88c.09.54.22,1.11.3,1.62s.15,1,.24,1.48c.17,1,.38,2,.64,3,.12.5.25,1,.38,1.49s.2.89.31,1.33c.22.89.48,1.78.79,2.67s.53,1.66.8,2.42a24,24,0,0,0,.94,2.26c.21.41.29.68.42,1s.26.6.41.9.31.6.48.89l.27.45c.09.15.2.31.24.4a8.86,8.86,0,0,0,.78,1.29c.15.21.31.42.49.63s.18.27.3.41a6,6,0,0,0,.68.77,1.05,1.05,0,0,1,.22.21s.09.1.15.15l.19.15.1.07,0,0a.7.7,0,0,0-.16-.09h0l-.1-.06-.4-.19a5.07,5.07,0,0,0-.75-.25l-26.41,105c-4.46-2.3-9.2-4.6-14.09-6.91l-7.44-3.46-3.79-1.73c-1.28-.56-2.59-1.07-3.89-1.6l-15.66-6.32-7.74-3.13-7.71-2.87c-10.13-3.81-19.49-7.74-27.58-11.16s-14.45-7.18-18.48-10.8c-8-5.48-15.53-9.37-21.2-13-1.42-.92-2.72-1.82-3.89-2.73a26.74,26.74,0,0,1-3.14-2.67,11.66,11.66,0,0,1-3.42-6c-4.1-.66-8.34-1.13-12.7-1.51s-8.83-.7-13.49-.77l-14.22-.32-7.31-.22c-2.46-.08-4.94-.21-7.47-.26-5-.14-10.18-.39-15.37-.82q-3.9-.32-7.84-.78l-8-1c-5.38-.74-10.81-1.73-16.31-3q-4.12-1-8.29-2.21c-2.78-.83-5.61-1.64-8.44-2.61-20.45-6.48-10.76-22.72-67-26.18-6.14,3.58-12.24,7.63-18.42,11.67a160.82,160.82,0,0,1-25.66-1.74c-3.69-.59-7.07-1.24-10-2a49,49,0,0,1-7.5-2.44c-8.07-3.5-8-7.82,5.66-10.73a79.24,79.24,0,0,1,8.58.5c3.09.35,6.39.78,9.88,1.13a86.45,86.45,0,0,0,22.82-.31c-7.85-3.56-15.6-7.51-23.43-11.05-3-.54-6.08-1-9.14-1.37s-6.15-.62-9.24-.82c-6.18-.41-12.4-.57-18.64-.53s-12.54.36-18.83.73-12.59.88-18.92,1.46c-12.66,1.21-25.32,2.47-38,3.45a348.7,348.7,0,0,1-37.58,1.13c-.09-4.22-5.44-7.81-15.08-10.49S1285,513,1268,512.7c-10.74,3.31-27.54,5.7-43.33,6.22a143.62,143.62,0,0,1-22.08-.71,56.61,56.61,0,0,1-8.92-1.75,24.4,24.4,0,0,1-6.63-2.82c-13.53,1.91-26.93,4.35-40.24,6.86l-9.94,2c-3.31.66-6.61,1.33-9.88,2.07l-9.83,2.14c-3.27.73-6.53,1.55-9.79,2.31-9.76,5-6.5,9.79-8.12,14.7-2.75.3-5.54.53-8.33,1l-8.44,1.28-8.55,1.39c-2.87.5-5.76.92-8.65,1.56-5.78,1.19-11.61,2.45-17.48,3.74l-4.41,1c-1.47.34-2.93.73-4.4,1.1l-8.84,2.26c-11.81,2.88-23.6,6.51-35.34,9.83l-17.48,5.41c-2.89.9-5.79,1.74-8.66,2.66l-8.57,2.78c-22.8,7.08-44.62,14.41-64.89,19.48q-7.58,2-14.85,3.6c-4.85,1-9.6,1.87-14.2,2.68s-9.09,1.34-13.45,1.69-8.6.46-12.67.46c-17,7.25-13.46,10.84-11.6,14.61s2,7.58-21.27,15.94a69.83,69.83,0,0,1-14,3.91,14.54,14.54,0,0,1-7.71-.66c-3.62-1.58-4.75-5-6.86-7.65-4.16-5.26-12.51-8-52.12,14.8l4.33,13c-1.73.78-3.62,1.7-5.64,2.7l-6.31,3.29c-4.36,2.29-9,4.7-13.35,6.8a103.79,103.79,0,0,1-12,5.06c-3.47,1.1-6.26,1.45-7.92.61-12.61,7.24-18.88,12.75-22.22,16.95s-3.66,7.32-4.25,10.2-1.41,5.55-5.69,9a57.18,57.18,0,0,1-9.4,5.83c-2.14,1.11-4.59,2.29-7.4,3.57s-6,2.71-9.58,4.23c-2.83,4.31-5.32,8.29-8.72,12.79a154.34,154.34,0,0,1-14.12,16.07l-27.9,17.94c-9.18,5.93-18.16,11.85-26.73,17.62-.39-5.25.81-10.89.42-16.11-10.32,1.85-22.07,4.85-32.39,6.81-21.07,11.42-55.44,39.43-64.78,35.52a271.58,271.58,0,0,1-30.74-9.06c-14.78,5.12-26.6,8.37-39.87,12.58L355.45,826l-27.82,18.29c-.41-.83-.79-1.69-1-2.12-.17-4.37,1.18-9.74,2.51-15.08,6.35-10.89-18.92,4.64-19.45-.6,4.29-11.2,8.84-22,13.32-32.8,30.17-5.31,37.65-5.7,58.84-9.52.79,1.72,1.41,3,2,4.28,8.37-2.64,16.7-5.25,24.83-8.31,3.23,2.9,7.56,4,10.62,6.47,33.33-14.32,62.9-32.93,84.64-34.86,40.18-19.9,47.7-23.76,68.77-49.23,15.24-5.88,24.82-10.78,31.12-15.4a40.06,40.06,0,0,0,7.31-6.73,33.83,33.83,0,0,0,4.28-6.48c2.24-4.32,3.66-8.72,6.71-13.57a43.58,43.58,0,0,1,6.13-7.64,72.71,72.71,0,0,1,10.48-8.47c12.07-7.17,24.55-12.11,36.72-16.27,6.12-2,12.2-3.77,18.15-5.45l8.83-2.47,8.67-2.32c5.7-1.55,11.24-3.15,16.56-4.93a153.87,153.87,0,0,0,15.38-5.8,97.55,97.55,0,0,0,13.88-7.64,70.33,70.33,0,0,0,12.23-10.19c2.69.08,6.74-.89,11.21-2s9.3-2.47,13.47-3.39c8.36-1.83,14-1.88,8.95,5.4,16-5.75,30.52-10.72,46.55-16.34.53-5.2-8.77-7.64,4.95-16.42a22.09,22.09,0,0,1,10.23-2.07c2.29,0,5.1.17,8.76.49s8.18.79,13.93,1.57c13.73-8.95,33.11-16.2,54-22.17,5.22-1.49,10.53-3,15.86-4.42l16.06-4,8-2c2.64-.68,5.28-1.25,7.89-1.9,5.21-1.26,10.32-2.56,15.27-3.93.55-7.81,10.66-13.5,25.68-18.43,7.53-2.32,16.31-4.25,25.7-6.13,4.71-.9,9.6-1.59,14.56-2.36s10-1.52,15.09-2.18l15.23-1.79c5-.59,10-1.31,14.91-1.82s9.63-1.22,14.22-1.81,9-1.27,13.11-2c16.58-2.9,29.16-7,33.32-14.49,17.06,2.89,35,1.13,53.22-.33s36.79-2.57,54.5,1.59a544.15,544.15,0,0,0,73,.95c5.41-.28,10.68-.65,15.84-1.07s10.22-.84,15.19-1.32l29.09-3c19-2,37.62-3.53,57.39-3.22a295.17,295.17,0,0,1,30.71,2.24c5.33.73,10.77,1.61,16.35,2.69,2.79.53,5.62,1.12,8.48,1.75l4.33,1,4.38,1.13,18.35-4.44,18.53-4.61c5.84,1,12.22,2.3,18.94,3.66l5.1,1,5.21,1.17,10.65,2.42,10.87,2.46,5.47,1.21,5.45,1.31c7.27,1.72,14.49,3.37,21.49,4.83l5.2,1.06,5.08,1.1q5,1.07,9.78,1.92c6.33,1.14,12.27,1.95,17.61,2.42,10.64,1.13,19,.57,23.55-2.56,2.84.3,5.44.63,7.83,1s4.54.82,6.51,1.25a72.73,72.73,0,0,1,9.74,2.84,30.3,30.3,0,0,1,10.49,6.27c4.61,4.23,6.51,8.61,18.49,11.86a37.42,37.42,0,0,1,11.92-.4,54.14,54.14,0,0,1,6.36,1.07c2.14.54,4.3,1.18,6.47,1.9,4.34,1.44,8.72,3.22,13,5.11q3.22,1.43,6.38,2.9c2.1,1,4.17,1.95,6.16,3,16,8.31,29.1,15,33.38,7.66,5.58.74,9.87.46,17.67,4.6a70.62,70.62,0,0,1,9.24,5.35l13.21,8.9-4.56,9.8a26.52,26.52,0,0,1-18.93,15.2,41,41,0,0,1-9.22.8c-2.83-.11-5.52-.31-8.09-.65l-7.61-.94c-1.26-.13-2.51-.28-3.78-.39s-2.36-.17-3.57-.18a44.2,44.2,0,0,0-15.24,2.62c-1.4,5-2.7,10-4.06,15l-8.65-1.06c-9.56-.89-14.72-3.21-21.19-4.9a54.43,54.43,0,0,0-11.39-1.74,99.58,99.58,0,0,0-17.6,1l-16.41-1.73-16.46-1.6c-10.67-7.25-49.44-8.31-73.64-10.63-9.28,2.1-18.56,4.28-27.93,6.88l-8.06-.56-8.39-.51-16.48-1a158.15,158.15,0,0,0-26.66-8.6,212,212,0,0,0-29.06-4.89c-4.63-.46-9-.73-13.1-.8a85.27,85.27,0,0,0-10.89.54c-6.32.78-10.55,2.43-11.45,5.09l-9.27,0-9.38.09-18.92.15c-6.32,0-12.64.2-18.9.31s-12.48.25-18.59.47c-14,.28-27.9.52-41.83,1.18l-20.9.93-20.88,1.2a155.09,155.09,0,0,0-26.29-.89,73.23,73.23,0,0,0-13.71,2,29.32,29.32,0,0,0-10.72,5c-19.15,1.8-38.18,3.9-57.18,5.65l-17.32,1.3a41,41,0,0,0-12-2.27,126.57,126.57,0,0,0-15.33,0,120.18,120.18,0,0,0-14.14,1.62c-4,.78-7,1.71-8.37,2.67-2.68,2.85-11.28,3.61-20.11,5s-17.87,3.58-21.41,8.92c-5.16.59-10.27,1.14-15.34,1.84-.8-5.32-10.64-5.45-23.72-3.1a214.13,214.13,0,0,0-21.22,5.31c-3.7,1.09-7.41,2.25-11,3.44s-7.18,2.51-10.57,3.75c-7.64,1.48-15.73,3.06-24,4.84s-16.73,3.66-25.21,5.38c-7.59,1.39-15.59,3-23.62,4.5s-16,3.18-23.61,4.77c-8.36,2.93-16.69,5.8-24.74,8.87s-15.91,5.92-23.3,8.89c-31.89,5.55-65.17,12.95-96.66,20.7-5,.83-9.91,1.83-14.69,3q-3.59.84-7.07,1.79c-2.33.65-4.61,1.36-6.87,2.07-9,2.88-17.67,6-25.91,9.25s-16.13,6.59-23.84,9.49a208.81,208.81,0,0,1-22.55,7.56c-1.68-3.85-4.82-4.74-9.18-3.59s-9.89,4.5-16.42,8.9c-3.27,2.21-6.77,4.7-10.49,7.35-1.87,1.31-3.77,2.7-5.71,4.15l-6,4.36c-8.17,5.91-17.14,11.88-26.54,17.5l-11.4,4.06c-3.8,1.35-7.63,2.65-11.4,4.09l-22.85,8.47c-7.65,2.86-15.27,5.92-23,8.91-3.86,1.52-7.79,3-11.65,4.59l-11.7,4.82c-4.46,0-10.07,1.66-16.07,4.08s-12.29,5.79-18.31,8.86c-3,1.54-5.94,3-8.7,4.34s-5.3,2.56-7.62,3.46c-4.62,1.82-8.25,2.47-10.17,1l-12.53,7.33-12.6,7.87-12.58,8C436,819.25,432,822,428,824.64c-3.13,1.34-6.92,3-10.91,5-2,1-4,2.06-6.08,3.21s-4,2.4-5.94,3.69c-7.74,5.15-14.4,11.14-16.25,17.27l-14.28,9.42L364,870.19c-3.44,2.27-6.74,4.64-10.1,6.94l-10.08,7c-3.38,2.36-6.87,4.68-10.31,7.23a134.32,134.32,0,0,0-16.19,11.14c-2.22,1.81-4.29,3.59-6.23,5.43s-3.75,3.75-5.58,5.69c-7.3,7.78-14.7,16.26-27.24,28.19l-7.22,5.29c-2.43,1.78-4.89,3.57-7.28,5.45l-14.53,11.29L242,969.51l-7.1,5.86L221,987c-3.45-.6-7.85,1.19-12.88,4.44a141.07,141.07,0,0,0-16.59,13.23c-5.78,5.41-11.75,11.45-17.61,17.21l-4.36,4.26c-1.41,1.42-2.81,2.81-4.18,4.17-2.74,2.71-5.41,5.25-8,7.5-8.4,5.84-9.21,2-11.57,0s-6.4-2.33-20.79,11.38c-4.7,5-8.33,8.79-11.86,12.64l-15.44,17.27q-1.91,2.14-3.82,4.27c-1.27,1.42-2.47,2.9-3.71,4.34l-7.38,8.69c-10,11.48-19.33,23.45-29.19,35.63-6.32,8.51-12.54,17.12-18.76,25.73q-9,13.15-17.88,26.42l-7.92-17.77,4.49.32,2.24.17h6.79l4.54-.28,2.35.12,2.37,0,4.77-.07,4.81-.36c.8-.07,1.61-.11,2.42-.19l2.41-.32c1.62-.22,3.24-.41,4.86-.67l4.86-.91c1.63-.28,3.24-.68,4.86-1.07s3.25-.77,4.86-1.22a140.55,140.55,0,0,0,35.47-13.46,124.9,124.9,0,0,0,20-13.61c10.42-8.48,16.92-15.81,32.16-22.76,5.17-.83,11.88-2.83,9.3.9l31.46-13.8c5.25-2.28,10.47-4.63,15.74-6.86l15.82-6.64,22.57-11.83c7.53-4,15.14-7.74,22.72-11.63l22.8-11.59c7.64-3.78,15.32-7.47,23-11.17,25-7.78,48.82-13.73,72.43-19.9,18.23-9,33.3-14.43,46.82-17.82s25.57-4.58,37.59-5.76l9.06-.88c3-.26,6.14-.52,9.28-.83,6.28-.62,12.78-1.41,19.72-2.58s14.29-2.76,22.33-4.83,16.78-4.61,26.37-8c6.83-1.23,13.64-2.5,20.48-3.63L601.33,972l20.52-3.2L627,968l5.14-.72,10.28-1.48c.09.92.13,1.35.23,2.35-4.77,3.86-10,7.74-15.15,11.79S617.18,988,612.46,992Z"/><path class="cls-6" d="M306.8,1019.7l4.91-7.13a97.6,97.6,0,0,1,7.92-17.78c-2.93-4.82-5.62-9.23-8.26-13.69-3.05,1.24-5.87,2.88-7.62,3.08-6.61,4.86-9.32,9.72-12.58,14.45a49.92,49.92,0,0,1-5.72,7.16,41.9,41.9,0,0,1-4.08,3.66c-.78.62-1.62,1.23-2.52,1.86s-1.83,1.3-2.85,2c-2.23,1-4.4,2.14-4.16-.08.12-1.11.84-3.06,2.47-6.29s4.29-7.59,8.16-13.71c-.45-5.36-10.39.41-17.87,4.39s-12.47,6.16-3.45-7.27c25-19.31,50.54-37.82,78.23-55.93q6.51-3.63,13.18-7.48l6.7-3.87c2.24-1.31,4.57-2.54,6.86-3.82L380,911.52l7-3.85L394.2,904l16.61-11c5.57-3.64,11.25-7.11,16.84-10.67-.14-4.32,1.13-9.54,2.42-14.77,2.48-2.05,4.84-3.74,7-5.28s4.12-2.85,5.94-4a64.09,64.09,0,0,1,9.24-5,31.5,31.5,0,0,1,6.83-2.07,41.94,41.94,0,0,1,5.79-.43,48.29,48.29,0,0,0,13.56-1.67,71.94,71.94,0,0,0,10.44-3.9c4.12-1.85,9-4.2,14.84-7.46l11.66-11.16c.08-2.16-3.3-1.79-5.61-2.65s-3.58-3,.91-10.16L525.61,806l8-.53c2.74-.19,5.53-.38,8.36-.48,5.63-.25,11.25-.43,16.46-.41,3.95-2.59,8-5.29,12.09-7.9L583,788.88l12.52-7.82,12.37-7.45,13.35-10.81,13.55-10.57c5.08-.61,10-1.28,16.74-2l14.59-4.74,7.46-2.44c2.5-.82,5-1.65,7.57-2.41l15.4-4.74c5.17-1.57,10.33-3.24,15.58-4.7,13.14-2.22,26.2-4.57,39.37-6.44,13.85-6.8,29.63-13.21,45.41-19.65,12.29-7.51,24.55-15.25,37.12-22.51,3-2.78,6.44-5.67,10.06-8.62,1.82-1.47,3.67-3,5.58-4.45l5.8-4.39,23.93-6.2,24-5.82c4.57-.84,9-1.62,13.21-2.52s8.35-1.83,12.41-2.8c8.11-2,16.08-3.89,24.53-5.65,4.23-.87,8.58-1.71,13.13-2.47s9.34-1.32,14.4-1.83,10.41-.87,16.12-1.1,11.83-.14,18.37.06l15.92-2.78,16-2.55c13.4-4.94,4.87-9.87,25.15-15.16,6.78,0,11.44-1.33,19.08-2.32a142.67,142.67,0,0,1,14.33-1,221,221,0,0,1,22.53.62c11.9-1.35,22-2.64,32.3-3.61,8.51-.84,17-1.77,25.3-2.52l24-2.12,20.64-3.74c6.88-1.26,13.76-2.64,20.69-4,12.14-2.59,22.57-5.66,33.16-8.46.2-2.37.39-4.72.54-6.56l17.24-.85c39.5.16,77.18,1.75,114.74,4.06,5.66-.34,11.3-.75,17-1l17-.93,34.08-1.93c22.86-2.29,44.19-4.79,67.24-6.58,12,1.22,24.38,2.62,36.78,4,12.4,1.55,24.78,3,36.68,4.82,22.63.63,45.29,1.42,67.85,2.93A158,158,0,0,0,1714.1,591c6.84,1,13.75,1.63,20.65,2.3,3.89-1.49,8.21-3,12.76-4.37s9.33-2.77,14.14-4.14c8.5,1.38,17,3.18,23.61,4.91-7.29,7.62,5.43,13.3,12.7,19.29,8.73.5,18.06,2.14,26.85,3.27,4.39.57,8.65,1,12.63,1.16l3.76.12c1.53.05,3.1,0,4.61,0a62.5,62.5,0,0,0,9-1c4.09-1.06,8.34-2.25,13.24-4,1.2-.42,2.36-.85,3.71-1.38s2.57-1,3.86-1.6,2.8-1.28,4.17-2l1-.51,1.11-.59,2.24-1.24,2.18-1.28c.74-.45,1.58-1,2.34-1.52s1.56-1.06,2.32-1.6,1.49-1.08,2.33-1.76c1.61-1.3,3.17-2.66,4.66-4,1.58-1.55,3.11-3.2,4.53-4.86.35-.43.7-.83,1-1.28l1-1.39c.68-.94,1.33-1.88,2-2.84s1.24-1.91,1.78-2.91,1.06-2,1.55-3a52.6,52.6,0,0,0,4.11-12.23l10.57-46.61-32.34-.46c-3,0-5.8,0-8.51.09l-8.46-3.4c-2.18-6.92-4.23-14.28-6.28-21.63-.78-.5-1.66-1.1-2.64-1.79s-2.06-1.37-3.21-2.17c-2.29-1.59-4.87-3.46-7.55-5.49-5.37-4.06-11.2-8.77-16.11-13.28-11.75-3.46-13.9-1.25-17,.78s-7.18,4-22.71.54l-21.15-6.18c-3.53-1-7-2.09-10.58-3.05l-10.62-2.78c-3.31,3,3.41,10.07-13.27,8.12l-6.85-1.75-3.44-.91c-1.14-.29-2.25-.58-3.34-.89-4.32-1.25-8.07-2.71-10.2-4.65l-12.36-4.65c-2-.75-4-1.54-6.05-2.26l-6-2.09c-8-2.79-16.13-5.51-24.69-8.21-16.09-2.94-18.28,2.13-22.26,5.56s-9.65,5.06-32.92-3.74c1.42-4.5,2.75-9,4.11-13.05-4-.87-8.06-1.72-12.2-2.57s-8.35-1.55-12.56-2.33c-8.41-1.51-16.84-3.08-24.78-4.57-4.89,4.34-3.46,7.57-1.49,11.22s4.47,7.77,1.84,13.76l-15.93-1.94c2.65-4.62-.19-7.2-5.8-8.72A62.66,62.66,0,0,0,1539,431.8c-3.84-.32-8-.45-12.21-.59-8.37-.25-16.75-.45-22.44-1.57s-8.71-3.12-6.34-7.24l-25.46-1.67-25.42-1.44c-8.47-.52-16.92-.84-25.38-1.24l-12.69-.55c-4.23-.17-8.45-.28-12.68-.42-7.33,1-13,2-18.52,3.12-17.59-1.42-33.34-3.16-51-4.33l-19-3.58c-5-.92-8.73-1.62-11.66-2.2-5.86-1.18-8.45-1.81-11-2.58-4.57.38-8.24.56-11.19.59a45.75,45.75,0,0,1-6.9-.29c-3.42-.48-4.73-1.49-5.43-2.79-1.41-2.57-.33-6.35-9-9.18-5.46,0-10.91-.07-18.21,0-9.18.3-9,2.52-8.92,5s.22,5.08-9,6.44a125.46,125.46,0,0,0-27.28,0,180.55,180.55,0,0,0-21.23,4c-6.74,1.63-13.44,3.18-21.18,4.4-3.87.6-8,1-12.51,1.31s-9.44.41-14.89.26c-3.69,1.22-8.51,2.32-13.46,3.39-2.48.52-5,1.11-7.4,1.71s-4.73,1.19-6.84,1.8c-8.44,2.45-13.42,5.1-7.16,8.52-3.62.85-7.25,1.6-10.84,2.52L1063,438c-7.16,1.88-14.35,3.58-21.45,5.71-5.26,2.64-6.06,4.92-9.28,7.9a35.37,35.37,0,0,1-7.47,5.1c-1.84.95-4,2.07-6.65,3.29s-5.75,2.54-9.42,4l-9,.85-4.35.4-4.28.49c-5.71.65-11.42,1.31-17.57,2.08-50.05,15.74-89.5,24.82-72.59,29.93a39.29,39.29,0,0,1-10.84,5.82,76.66,76.66,0,0,1-11.45,3c-4,.81-8.14,1.56-12.54,2.68a72.07,72.07,0,0,0-13.86,5.17c-3,2.6-6.44,5.47-10,8.41s-7.38,6.1-11.18,9.07c-8.89.46-17.94.41-25.08.4l-18.38,6.88-17.91,7.15-8.93,3.58-8.89,3.74-18.08,7.54c-27.53,12.28-56.36,25.64-83.34,38.71-1.72-4.87-2.7-7.63-3.78-10.66-7.7,2-14.64,3.49-21.38,5s-13.25,2.95-20.2,4.6c.09-4.83,1.66-11,1.6-16.28,10.88-6.51,20.16-12.36,31.18-18.72,26.46-16.42,55-33.08,82.48-48.32-.4-1.39-.77-2.7-1.15-4.08l18.58-8c6.16-2.56,12.32-5,18.45-7.48l9.22-3.7,9.33-3.59,18.93-7.32c.75-4.82,3.11-10.74,3.94-15.58,8.81-2.66,17.55-5.42,26.23-7.78l12.76-3.56,6.2-1.71,6.1-1.55c15.43-7.77,3.92-9.26,6.84-14.2,5.33-1.8,10.6-3.72,17.8-6l11.86-3.78,6.51-2.07,3.33-1.06,3.37-1c.25,1.86.49,3.25.66,4.67.6,4.2,1.26,8.87,2,13.52l-16.47,7.43c-5.62,2.53-11.24,5-16.33,7.56l9.38,6.42,9.37,6.57,11.32-5c3.73-1.61,7.36-3.29,11-4.73L930.52,451c3.34-1.4,6.68-2.57,9.9-3.82l9.44-3.61,8.94-3.46c2.9-1.13,5.75-2.13,8.48-3.17,21.85-8.43,38.05-14.9,46-22.16,7.3-2.27,15.07-4.37,23.1-6.35,2-.49,4-1,6.08-1.45l6.19-1.26c4.15-.83,8.35-1.62,12.57-2.4l6.34-1.15,3.18-.56,3.2-.47,12.75-1.83,12.62-1.75,12.36-1.46,6-.73,5.9-.63q5.85-.64,11.4-1.33c7.37-.77,14.31-1.71,20.61-2.62s12-2,16.92-3.16a55.06,55.06,0,0,0,12.24-4.22c-6.92-.15-12.69-.29-17.59-.27s-8.93.08-12.31.17c-6.77.17-11,.54-14.79.81-6.15-4.7-2.58-9.06,8.79-12.35s30.42-5.22,54.59-4.4c-5-4.5-1.76-8.38,2.67-11.67s10-6.09,9.39-8.65c21.12,3.87,33,2.32,45,0,6-1.13,12.11-2.54,19.28-3.37,3.59-.43,7.47-.75,11.78-.87s9,0,14.25.41c.62-3.71,1.33-7.43,2-11.15l19.29-4c15.49,1.11,31.35,2.3,47,3.56l46.79,3.76c41.7,2.72,82.06,6,124.61,10.71l23.56,4.13,11.93,2.06,12,2.24c8,1.52,16,2.93,24,4.49l23.72,4.82c7.22,1.8,14.49,3.88,21.73,5.89s14.47,4,21.67,6.08c37.78,11.56,50.21,12.51,58.75,11,2.13-.35,4-.81,6-1.23a34.88,34.88,0,0,1,6.43-.89c4.87-.21,11.39.45,22.14,3.37l6.16,2.05c2,.68,4.07,1.36,6.1,2.12l12.09,4.42,12,4.4,6,2.2c2,.72,4,1.56,5.93,2.34l23.69,9.54c2,.81,4,1.56,5.94,2.43l5.94,2.6,12,5.25q6.71,3.15,13,6l12.19,5.75c7.86,3.66,15.16,6.93,21.82,9.88l96.64,42.75-32.63,95.63c-1.37,4-2.91,7.92-4.6,11.75q-1.28,2.87-2.65,5.65c-.93,1.86-2,3.81-3.09,5.68-2.16,3.75-4.5,7.39-7,10.87s-5.11,6.68-7.85,9.82q-2.07,2.36-4.21,4.58l-1.07,1.11-1,1-2.09,2c-2.8,2.61-5.7,5.09-8.66,7.43l-1.11.87-.55.43-.51.37-2,1.48c-1.37,1-2.75,1.91-4.14,2.82s-2.8,1.81-4.21,2.67l-2.11,1.28c-.37.22-.69.39-1,.56l-.94.52c-2.51,1.37-5,2.67-7.59,3.89-1.27.6-2.55,1.19-3.82,1.76-1.11.47-2.22.93-3.34,1.37q-3.35,1.34-6.68,2.5l-1.67.57-1.48.47-2.9.86c-1.92.56-3.85,1.08-5.76,1.56-1,.26-1.78.42-2.62.61l-2.49.53c-1.66.33-3.3.65-4.94.94-.86.16-1.52.25-2.25.36l-2.14.3c-1.43.19-2.84.37-4.25.53l-1,.12-.94.09-1.86.15-3.67.26-1.81.11-1.63,0c-2.14.06-4.33.11-6.32.1s-3.79-.08-5.63-.14a153.66,153.66,0,0,1-18-1.85c-.4-.06-.46-.08-.6-.11l-.4-.1-.79-.19-1.5-.4c-1-.26-1.9-.54-2.77-.83a29.69,29.69,0,0,1-4.53-1.86c-2.57-1.35-4.23-2.95-4.93-4.93-22.79,6.54-55.34-2.18-66.77,1.81-31-.88-61-3.85-91.84-6.35s-62.56-4.84-96.77-4.13c-6.4,0-13,.08-19.73.16s-13.61.13-20.52.26c-13.83.35-27.87.62-41.44,1.34l-11.21-.24c-4-.09-8.22-.17-12.41-.19a83.8,83.8,0,0,0-15.49-9c-3.77-.21-7.21-.36-10.36-.41s-6,0-8.6.06a125.48,125.48,0,0,0-13,1,94.35,94.35,0,0,0-15.8,3.6c-6,.6-12.45,1.1-19.37,1.51s-14.22.89-21.85,1.22l-48.43,2.07c-33.47,1.34-68.05,3.33-96.37,6.22-1.75,2.5-5.19,5.14-8.6,7.32L1189,669l-9.51-.09c-6.39,0-13-.08-20.43,0-14.87,1.71-31.46,3.53-46.24,5.55q-6.19,2.39-12.34,4.85c-4.08,1.67-8.12,3.42-12.11,5.14s-7.92,3.46-11.77,5.19l-5.71,2.59-5.55,2.66c-6.49,1.27-13,2.66-19.47,4-3.25.67-6.47,1.42-9.7,2.16s-6.46,1.44-9.69,2.12c-3.38-2.25-5.09-5.27-8.53-7.51-2,.8-4,1.55-6,2.27s-3.89,1.46-5.8,2.13c-3.81,1.35-7.53,2.55-11.17,3.63s-7.21,2-10.71,2.87S977.41,708.25,974,709c-6.74,1.41-13.28,2.49-19.7,3.37s-12.69,1.77-19,2.53c-12.58,1.44-25,3.2-38,5.93a202.26,202.26,0,0,0-20,5.46q-5.15,1.68-10.46,3.71c-3.54,1.39-7.09,3-10.74,4.68,4.18-5.29-2.8-5.52-12.18-3.59-2.34.49-4.84,1.11-7.34,1.82s-5,1.59-7.35,2.47a60.7,60.7,0,0,0-11.54,5.49c-4,.94-7.56,1.63-11.15,2.36s-7.14,1.54-11.1,2.56c-5.7-4.56-11.5-9.09-19-13.08-3.4.86-6.79,1.84-10.2,2.81l-10.28,2.93-10.38,3c-3.47,1-6.9,2.08-10.36,3.12l-20.68,6.31-20.27,6.59c-9.3,3.69-18,7.73-26.62,11.53l-6.41,2.86-3.18,1.41L655,774.64l-12.51,5.78-11.27,10.89-11.34,11.21c-3.77,3.75-7.56,7.44-11.24,11.19S601.4,821.26,597.9,825c8.44-.33,16.52-1.16,25-1.28-5.49,4.18-10.59,8-15.51,11.33s-9.63,6.21-14.16,8.8c-9,5.31-17.29,9.46-25.27,13.39-6.09,2-13.35,5.34-20.9,8.19l-8,6.12-7.85,6.28c-5.22,4.2-10.46,8.34-15.61,12.54-7.7,2.24-15.21,4.92-21.36,6.85-28.33,19.16-55.81,39.24-82.62,59.79l-12.34,4.61c-4.13,1.53-8.3,3-12.37,4.64-8.17,3.2-16.41,6.38-24.58,9.76C343.07,990.52,325.24,1004.21,306.8,1019.7Z"/><path class="cls-4" d="M489.12,774.51c-14.76,3.32-22,3.67-24.48,2.21s-.06-4.6,4.44-8.06c8.92-7,26.53-14.6,30.15-12Z"/><path class="cls-5" d="M1555.37,836.92l-14.75-3.42-15.2-3.06c-10.19-2-20.42-4-30.23-5.76q16.18-6.69,32.56-13.32l10.86,1.72,5.44.86,5.41,1,21.65,4c5.83,5.35,13.75,10.12,21.4,15.39C1580.63,835.41,1567.19,835.81,1555.37,836.92Z"/><path class="cls-5" d="M971.33,902.79c-.93,2.46-6.62,4.9-14.44,7.57s-17.74,5.7-27.23,8.81c-5.17,2.31-10.75,4.56-16.33,6.75s-11.12,4.55-16.26,6.74c-10.24.12-22.24.48-32.54.64l-32.35,9.79a96.55,96.55,0,0,1-17.39-6c8.45-3.93,17-7.2,23.75-10.74,3.39-2,6.84-4,8.49-6.2l9.6-.75c3.18-.24,6.33-.52,9.48-.67l18.62-1,18.28-1c3-.15,6-.33,9-.45l9-.28c3.49-4.22.09-8.25-.31-12.32s2.23-8.17,17.92-12.55l10.44-.29c3.47-.08,6.94-.22,10.42-.21l20.83-.13C978.52,894.51,974.94,898.66,971.33,902.79Z"/><path class="cls-5" d="M712.72,999.69c-7.68-.38-16,.91-24.38,2.93s-16.81,5.07-24.85,7.75-15.65,5.2-22.38,6.55-12.54,1.77-17,0c-.24-2.36-.57-4.69-.8-6.56l11.19-5.92c3.81-2,7.74-3.89,11.7-5.87l24.28-11.85,10-3.23,10-3q10-3,20.09-5.66l6.77-1.56c8.75,2.27,8.93,4.64,9.14,7C721.84,986.56,717.28,993.37,712.72,999.69Z"/><path class="cls-5" d="M558.05,1070.37c-6.89-.83-12.27-2.57-17.6-3.87,2.68-4.74,3.73-9,6.42-13.7,4.76-2.24,10-4.42,15.23-6.74s10.45-4.66,15.24-7c8.75,1.37,17.46,2.66,24.57,4.59C608,1051,572.05,1061.5,558.05,1070.37Z"/><path class="cls-5" d="M534.81,1030.64c-13.43,2.7-26.86,5.3-40.37,7.6a159,159,0,0,1-30.78,14.93c-4.48,1.64-8.71,2.92-12.7,4.25s-7.77,2.58-11.42,4c-9.7,3.85-19.83,7.73-30.16,11.67s-20.75,8.3-31.19,12.59L366.26,1090c-3.91,1.4-7.72,2.93-11.56,4.38l-23.39,9c-13.16,3.93-26.05,8.76-39.14,13-4.49,1.43-10.79,4-18.05,7.1s-15.37,6.88-23.64,10.38-16.66,6.76-24.27,9.28-14.49,4.18-19.83,4.22c-6,.62-9.26-1.29-14.42-1.38a28.48,28.48,0,0,0-9.82,1.75c-4.17,1.39-9.36,3.92-16.25,7.94-9.38,4.8-21.66,10.27-30.55,12.92s-14.56,2.6-10.08-4.08c2.81-6,14.11-11.88,27.65-17.92,6.77-3,14.08-6.07,21.16-9.16s14-6,19.87-9.08c3.79-5.73,7.71-11,11.43-17.23,3.29-1.12,6.56-2.3,9.84-3.45s6.57-2.31,9.84-3.51q9.81-3.58,19.54-7.45L283.53,1081c7.72,2.44,13.91,6,20,9.09l7.51-3,7.87-3,15.49-5.93,19.1-9.2,19.24-8.9c12.85-5.9,25.66-12,38.65-17.56l8.27-2.88c7.62-1.52,15.11-3.06,22.53-4.62s14.85-2.92,22.24-4.41c14.78-2.93,29.48-6,44.72-8.64l23.22-7.17C533.42,1021.69,534.07,1025.87,534.81,1030.64Z"/><path class="cls-5" d="M402.55,1196c-1.77-.31-5,.41-8.29.67l-4.52-19.75c6.09-3.13,10.86-6.54,16.29-9.83a71.21,71.21,0,0,1,20.4-8.61c4.7,2,9.35,3.92,14,5.77l13.82,5.64a74.89,74.89,0,0,0-8.62,2.69,58,58,0,0,0-6.92,3.26,96.26,96.26,0,0,0-10.95,7.25C421,1188,414.49,1192.84,402.55,1196Z"/><path class="cls-5" d="M491.83,950.73,502.16,942l5.28-4.48,2.66-2.26,2.7-2.19c7.24-5.85,14.43-11.81,21.46-17.33l6.88-3.75c.14.45.53,1.32.88,2.18-1.41,5-2.94,9.57-2.72,14.23-2.14,5-11.23,12.1-21,17.65-9.64,5.71-19.89,10-24.57,9C492.38,952,492,951.17,491.83,950.73Z"/><path class="cls-5" d="M609.37,807.23c9.69-4.59,14-8.57,16.9-12.61s4.25-8.14,8.12-12.79c3.16-.83,4.92-.57,8.11-1.41L655,774.64l3.14-1.47,3.18-1.41,6.41-2.86c8.6-3.8,17.32-7.84,26.62-11.53l20.27-6.59,20.68-6.31c3.46-1,6.89-2.15,10.36-3.12l10.38-3,10.28-2.93c3.41-1,6.8-2,10.2-2.81,7.45,4,13.25,8.52,19,13.08-4.53,2.41-9.42,5.07-14.29,7.77s-9.65,5.66-14.06,8.36L757.86,765c-3.09,1-6.19,2.08-9.25,3.21l-18.45,6.63a50.45,50.45,0,0,0-7.52.27,45.37,45.37,0,0,0-6.42,1.25,50.33,50.33,0,0,0-10.67,4.34c-3.23,1.73-6.27,3.66-9.43,5.55A77.06,77.06,0,0,1,686,791.75c-21,6.3-28.05,10.94-31.72,14.28s-3.83,5.75-10.64,8.37l-20.75,9.29c-8.44.12-16.52.95-25,1.28A199.32,199.32,0,0,0,609.37,807.23Z"/><path class="cls-5" d="M1104.8,738.56a172.24,172.24,0,0,1-15.78,13.6c-7.51,2.8-12.59,4.36-16.44,4.91a16.27,16.27,0,0,1-8.82-.84c-2.41-.94-4.64-2.4-7.77-3.92a43.89,43.89,0,0,0-5.52-2.25,56.78,56.78,0,0,0-7.66-1.89l7.71-1.35,7.74-1.23,15.47-2.46c5.15-.86,10.34-1.57,15.52-2.32Z"/><path class="cls-5" d="M1313.81,711.2c10.64-.13,21.24-.22,31.85-.12l15.92.28c5.31.1,10.61.17,15.93.37l8.22-.1,17.27-.2h17.47c11.71-.07,23.68.13,36,.24,6.57.15,13.15.51,19.72.8s13.13.59,19.7,1c13.14.84,26.26,1.64,39.41,2.73a38.49,38.49,0,0,0,10.66,2.26c2.11.22,4.34.38,6.62.54l6.93.51c9.27.72,18.26,1.77,22.54,5.49-6.74,1.41-13.36,2.44-19.9,3.17q-4.92.55-9.76.91c-3.24.25-6.45.47-9.65.62-6.41.31-12.76.42-19.08.41s-12.6,0-18.88-.13c-12.57-.26-25.08-.38-37.73,0-6.33.15-12.67.61-19.06,1.21s-12.85,1.41-19.33,2.66c-10.59-.23-17.58-2.92-25-5.6s-15.23-5.19-27.45-5.29c-6.64.78-13.23,1.71-19.84,2.55s-13.22,1.67-19.8,2.64c-18.1,3-24.83,1.46-28.38-1.72s-3.93-8.22-9.27-12.17C1303.9,713.07,1308.9,711.87,1313.81,711.2Z"/><path class="cls-7" d="M1331.53,697c4.11-.13,8.12-.31,12.09-.41l11.82-.29c7.84-.17,15.68-.43,24-.49l23.95-6.79c11.49,1.05,20.81,1.82,28.55,2.44l19,1.7c5.12.47,9.21.83,12.84,1.3s6.78,1,10,1.63c5.86-.11,11.3-.34,16.76-.64l16.83-.81c14.25-.32,29-.34,43.66-.44l22,.07,10.92.05,10.81.14c18.78,3.2,33.11,5.57,42.68,6.37s14.39.18,14.13-2.44l20,1.61c6.69.53,13.39,1.18,20.07,1.76.11-4.19,8.25-4.34,18.42-3s22.36,4,30.61,5.39l26.51,2.19,26.34,2.47,26,2.61,6.45.65,6.15.61,2.31.2,2.42.18,4.87.3,5.16.18,2.61.06,2.79,0c1.88,0,3.69,0,5.61-.06s4.08-.14,6.12-.24l3.08-.18,3.4-.28c2.28-.2,4.47-.41,6.81-.69q3.81-.48,7.61-1.08l1.89-.3,1-.16,1-.19c1.44-.27,2.88-.55,4.31-.85,2.1-.42,4.19-.88,6.27-1.36l1.58-.38,1.8-.46,3.59-1q3.58-1,7.12-2.13c1.1-.34,2.56-.85,3.9-1.33s2.73-1,4.08-1.5q4.07-1.55,8-3.26l1.06-.47,1.16-.53,2.29-1.07c1.52-.73,3-1.47,4.54-2.24s3-1.55,4.49-2.36l2.22-1.22c.74-.42,1.42-.8,2.3-1.33q5-3,9.85-6.28,2.41-1.65,4.77-3.37c.8-.58,1.53-1.11,2.37-1.76l2.57-2c3.4-2.73,6.71-5.6,9.91-8.57,1.6-1.49,3.17-3,4.72-4.54s3.23-3.38,4.8-5.12c3.15-3.48,6.17-7.1,9-10.81a170.29,170.29,0,0,0,15.25-24c.57-1.07,1.07-2.07,1.56-3.08l1.45-3.06q1.43-3.08,2.74-6.2c1.75-4.18,3.34-8.42,4.77-12.69L2066,463.74,1935.11,411l-7.63-3.07-7.62-3.07-11.29-10.56-5.74-5.28L1897,383.9c-5.78-1.11-12.07-2.8-18.62-4.75-3.27-1-6.6-2-10-3.07l-10.14-2.92c-13.53-3.82-26.92-7.58-37.73-7.89l-9.66-2.79c-27.07-8-56-15-83-21-1.93-.46-3.73-.85-5.44-1.19l-4.9-1-8.9-1.83-18.29-4.16-17.82-3.8-17.82-3.85L1636.72,322l-13-6.36-6.48-3.21q-3.23-1.61-6.43-3.28c4.9-3.09,9.89-6.2,13-9.5,65.62,9.49,130.65,21.37,198.12,40.2l14.46,4.22c4.74,1.4,9.43,3,14.11,4.49l14.09,4.57c4.74,1.57,9.54,3,14.44,4.85,10.87,3.76,22,7.48,33.27,11.48l34.5,13.1,158.1,60L2050.53,607a212.6,212.6,0,0,1-9.85,24.54c-1.83,3.91-4.11,8.15-6.42,12.18s-4.8,8.06-7.4,12c-1.3,2-2.64,3.88-4,5.78s-2.76,3.71-4.2,5.54c-2.86,3.65-5.86,7.23-9,10.7-1.55,1.73-3.14,3.44-4.75,5.12l-1.21,1.26-1.15,1.15-2.33,2.27q-4.71,4.5-9.71,8.74-2.49,2.12-5,4.16l-2.57,2-2.33,1.74c-3.13,2.29-6.34,4.52-9.6,6.65q-2.45,1.61-4.94,3.14l-2.5,1.52-1.26.75-1.1.63q-4.41,2.51-8.94,4.81t-9.18,4.41l-2,.9-2,.85-4,1.65c-2.71,1.07-5.43,2.09-8.18,3.06l-2.06.72-1.8.58-3.56,1.12q-3.57,1.1-7.19,2.08l-3.61,1-3.17.76q-3.14.72-6.29,1.37l-3.16.62-1.59.3-1.47.26q-5.52.93-11.08,1.63l-1.38.17-1.23.14-2.45.25-4.92.43a243.65,243.65,0,0,1-32.72.32c-2.55-.1-5.11-.24-7.64-.4s-4.84-.36-7.25-.58l-4.51-.21-8.92-.45-18-1-36.89-2c-28.18-3.11-58.06-5.92-87.85-8.47-15.55,5.55-27.15,2.94-39.85-.43-6.35-1.69-13-3.71-20.48-4.91a95.83,95.83,0,0,0-25.68-.74c-4.28-3.72-13.27-4.77-22.54-5.49l-6.93-.51c-2.28-.16-4.51-.32-6.62-.54a38.49,38.49,0,0,1-10.66-2.26c-13.15-1.09-26.27-1.89-39.41-2.73-6.57-.43-13.13-.7-19.7-1s-13.15-.65-19.72-.8c-12.34-.11-24.31-.31-36-.24H1403l-17.27.2-8.22.1c-5.32-.2-10.62-.27-15.93-.37l-15.92-.28c-10.61-.1-21.21,0-31.85.12A179.49,179.49,0,0,0,1331.53,697Z"/><path class="cls-5" d="M1755.93,739.56l36.89,2,18,1,8.92.45,4.51.21q3.61.33,7.25.58c2.53.16,5.09.3,7.64.4-1.38,2.25-2.63,4.51-4.08,6.74l-3.84-.35-3.65-.4-3.63-.43-.63-.09-.27,0-.54-.09-4.31-.7-8.65-1.41-17.45-2.78-17.8-2.6C1768.24,741.18,1762.14,740.32,1755.93,739.56Z"/><path class="cls-5" d="M1879,358c-4.9-1.83-9.7-3.28-14.44-4.85l-14.09-4.57c-4.68-1.49-9.37-3.09-14.11-4.49l-14.46-4.22a45.4,45.4,0,0,1,15.78-1.61,36.93,36.93,0,0,1,7,1.24,63.57,63.57,0,0,1,6.72,2.21c4.45,1.72,8.9,3.85,13.7,6s10,4.32,15.88,6.52Z"/><path class="cls-5" d="M1344.07,279.71c-2.12,1.31-6.12,2.54-8.27,3.84-8.35-.13-16.87-.17-25.29-.25s-17-.08-25.48,0c-16.94,0-33.92.25-50.49.54-7.63-1.31-13.2-2.73-19-4,24.58-6.68,42.89-11.07,62.37-13.15,4.84-.5,9.77-.86,14.9-1.07s10.36-.21,15.94-.08,11.38.48,17.63,1,12.8,1.22,19.92,2.1C1345.55,272.35,1344.84,275.89,1344.07,279.71Z"/><path class="cls-3" d="M1595.92,851.3c-3.35-.58-6.41-1.23-9.23-1.68s-5.38-1-7.71-1.44a91.17,91.17,0,0,1-11.47-3c-6.12-2.15-9.54-4.68-12.14-8.25,11.82-1.11,25.26-1.51,37.14-2.57a156.78,156.78,0,0,0,17,6C1604.35,844,1599.32,847.25,1595.92,851.3Z"/><path class="cls-3" d="M897.07,932.66a74.13,74.13,0,0,1-16.7,8.45A175.32,175.32,0,0,1,860.51,947c-13.58,3.21-27.2,4.7-36.62,4.65,1.65-2.65,4.92-5.57,8.29-8.52l32.35-9.79C874.83,933.14,886.83,932.78,897.07,932.66Z"/><path class="cls-3" d="M402.55,1196c-7.75,10.47-19.82,18.22-32,23.75a178.27,178.27,0,0,1-17.76,6.9,147.49,147.49,0,0,1-14.69,4,113,113,0,0,0-18.25-4.76,254.08,254.08,0,0,1,37.79-20.05c14.13-5.8,28-9.86,36.63-9.16C397.58,1196.41,400.78,1195.69,402.55,1196Z"/><path class="cls-3" d="M1839.1,744.19a243.65,243.65,0,0,0,32.72-.32l4.92-.43,2.45-.25,1.23-.14,1.38-.17q5.57-.69,11.08-1.63l1.47-.26,1.59-.3,3.16-.62q3.15-.65,6.29-1.37l3.17-.76,3.61-1q3.61-1,7.19-2.08l3.56-1.12,1.8-.58,2.06-.72c2.75-1,5.47-2,8.18-3.06l4-1.65,2-.85,2-.9q4.64-2.1,9.18-4.41t8.94-4.81l1.1-.63,1.26-.75,2.5-1.52q2.49-1.53,4.94-3.14c3.26-2.13,6.47-4.36,9.6-6.65l2.33-1.74,2.57-2q2.57-2,5-4.16,5-4.23,9.71-8.74l2.33-2.27,1.15-1.15,1.21-1.26c1.61-1.68,3.2-3.39,4.75-5.12,3.12-3.47,6.12-7,9-10.7,1.44-1.83,2.84-3.67,4.2-5.54s2.7-3.83,4-5.78q3.9-5.86,7.4-12c2.31-4,4.59-8.27,6.42-12.18a212.6,212.6,0,0,0,9.85-24.54l54.33-164.31-158.1-60-34.5-13.1c-11.31-4-22.4-7.72-33.27-11.48l2-3.74c8-10,24.78-1.51,34.62-1.88,20.19,7.69,27.82,13.4,35.74,19.11l155.74,112.43-45.13,126.73q-3.41,9.58-7.73,19-2.16,4.68-4.55,9.27c-.76,1.49-1.67,3.14-2.56,4.71s-1.81,3.18-2.76,4.76c-3.76,6.32-7.9,12.55-12.37,18.6a221.75,221.75,0,0,1-14.62,17.41c-1.32,1.41-2.65,2.81-4,4.2s-2.76,2.79-4.06,4q-4,3.76-8.25,7.43t-8.81,7.19l-2.29,1.75-1.15.87-1.06.76c-1.4,1-2.82,2-4.27,3q-4.34,3-8.92,5.81c-1.53.94-3.08,1.88-4.65,2.8s-3.24,1.88-4.56,2.58c-5.62,3-11.55,5.94-17.76,8.66-1.65.73-2.85,1.2-4.25,1.77l-4.15,1.62q-4.19,1.59-8.57,3.08l-2.21.74-1.11.36-1,.3-3.88,1.15c-2.61.75-5.28,1.48-8,2.17l-4.13,1-3.63.79c-2.44.52-4.93,1-7.47,1.47l-3.84.67-3.45.52c-2.29.33-4.62.63-7,.92l-3.59.4-3.22.29c-2.17.19-4.39.36-6.64.5s-4.26.23-6.37.31-4.2.13-6.36.16-4,0-6,0l-3.06,0-1.53,0-1.44-.05-5.87-.24-1.5-.07-1.42-.09-2.86-.2C1836.47,748.7,1837.72,746.44,1839.1,744.19Z"/><path class="cls-3" d="M1610.81,309.19c-11.48-1.56-24.9-3.53-36.21-4.79-12-2.6-23.6-5.14-35.07-7.31s-23-4.57-34.9-6.74c.57-2.22,1.16-4.57,1.74-6.86,11.32.59,22.4.77,33,.72,5.32,0,10.51-.08,15.65,0s10.19.23,15.12.49c9.86.54,19.26,1.53,28.27,3.94a82.46,82.46,0,0,1,25.34,11.05C1620.7,303,1615.71,306.1,1610.81,309.19Z"/><path class="cls-3" d="M1397.25,282.47c-16.53-1-34.64-1.93-53.18-2.76.77-3.82,1.48-7.36,2.24-11.12,18.31,2.24,36.15,4.58,52.39,7C1398.23,277.8,1397.72,280.2,1397.25,282.47Z"/><path class="cls-6" d="M1609.56,840.37a156.78,156.78,0,0,1-17-6c-7.65-5.27-15.57-10-21.4-15.39,2.29-1,6.35-1.68,8.64-2.67l13.55,2.52c4.48.88,8.92,1.88,13.31,2.8l25.44,5.44c6.51,4.5,10.22,7.89,11.47,10.4s.36,4.09-2.18,4.94C1636.06,844.12,1624,843,1609.56,840.37Z"/><path class="cls-6" d="M1071.93,786.26l-25.54,1.65c-14.75,3.5-29.41,6.71-44.05,10.3-3.68.34-7.25.61-9.09.83l-34.42,3.71c-7.26,1.75-12.72,3.17-18.11,4.39-3.42-7.32-16-8.87-34.57-8.11-4.63.21-9.66.47-15,1s-10.94,1.16-16.84,1.82l-18.47,2.07c-6.39.7-13,1.34-19.76,2.13-6.29,2.5-14.36,4.47-23.12,6.21s-18.22,3.15-27.16,4.94c-19.81,1.48-41.48,3.49-61.21,5.47-1.9-1-5.53-1.7-9.2-2.84l21.42-5.6,5.36-1.4,5.39-1.3,10.78-2.61,21.57-5.2,10.79-2.6,10.83-2.41c-.07-3.36-.13-6.14-.2-9.44l21.8-4.16,10.9-2.12,5.45-1.06,5.48-1c14.6-2.56,29.21-5.12,43.82-7.54a242,242,0,0,0,35.81,1.39c3.25-.08,6.57-.21,10-.37s6.87-.38,10.43-.5c7.12-.31,14.56-.74,22.34-1.23l22.25-2.4c7.49-.73,15-1.32,22.48-2,14.94-1.24,29.61-2.7,43.45-3.45,14.74-.72,19.62,1.07,23.66,4.32,2,1.63,3.83,3.62,6.54,5.85a47.3,47.3,0,0,0,4.89,3.5c1,.6,2,1.22,3.22,1.85s2.46,1.31,3.87,2c-3.71.58-7.85,1.25-12.22,1.86S1076.53,785.5,1071.93,786.26Z"/><path class="cls-6" d="M823.89,951.61c-2.56.42-5.09.89-7.84,1.43l-9.12,1.75c-4.09,4-9.49,7.1-15.71,9.62a101.4,101.4,0,0,1-9.89,3.38q-2.6.75-5.29,1.43c-1.79.47-3.6.95-5.44,1.39-14.68,3.6-30.75,6-44.13,9.6-.21-2.33-.39-4.7-9.14-7l6.24-2.35,3.12-1.17,3.12-1.1,12.37-4.41c8.16-2.92,16.13-5.79,23.7-8.59a146.1,146.1,0,0,0,16.49-12.3l32.42-6.19a96.55,96.55,0,0,0,17.39,6C828.81,946,825.54,949,823.89,951.61Z"/><path class="cls-6" d="M700.61,958.41l-14.36,2.25c-4.85.79-9.78,1.48-14.67,2.39l-29,5.1c-.1-1-.14-1.43-.23-2.35,13.44-4.34,16-9.07,18.87-13a14.78,14.78,0,0,1,5.93-5.24c3-1.49,7.46-2.52,14.82-3,9,2.73,17.85,5,26.73,7.71C705.45,954.42,702.18,956.61,700.61,958.41Z"/><path class="cls-6" d="M582.82,1016.56c-8.13,3.34-16.37,6.2-24.52,9.52-3.38.5-7.16,1.23-11.15,2s-8.14,1.75-12.34,2.54c-.74-4.77-1.39-9-2.46-15.86,8.35-2.15,16.38-3.87,24.35-5.78s15.94-3.82,24.29-6C581.79,1009,582.31,1012.75,582.82,1016.56Z"/><path class="cls-6" d="M189,1049.92c-7.63,12.51,1.76,13.51-11.77,17.39-39.4,22.87-26.65-3.61-20.61-8.3C167,1056.52,178.76,1052.86,189,1049.92Z"/><path class="cls-6" d="M106.78,1071.73c4-11.59,8.71-14.74,13.25-18.35,6.35-3.67,10.76-5.64,13.93-6.37s5.11-.25,6.46.88c2.71,2.25,3.16,7.15,6.9,10.6-6.78,2.17-13.49,4.48-20.23,6.73S113.58,1069.65,106.78,1071.73Z"/><path class="cls-6" d="M65.13,1098.11a6.49,6.49,0,0,1,2.39,6.13q-.63,3.38-4.49,6.8a28,28,0,0,1-4.52,3.23,39.23,39.23,0,0,1-5.81,2.84c-.54.2-1.08.42-1.64.64s-1.1.35-1.67.52c-1.13.34-2.31.67-3.53,1s-2.41.46-3.67.66l-1.92.28-1.88.11c1-1.37-.33-2.44-2.44-2.92a19.19,19.19,0,0,0-3.51-.41,12.39,12.39,0,0,0-1.91.15,16.68,16.68,0,0,0-1.79.33c-.88-.08-1.71-.12-2.5-.13s-1.43-.17-2.09-.2-1.3,0-1.87,0a14.9,14.9,0,0,0-1.6-.08,13.87,13.87,0,0,0-1.47.08c-.47.06-.87,0-1.29.06a12.64,12.64,0,0,0-2.36.43L57.63,1212c2.79-5.63,4.39-10.58,7.25-16.79a110.16,110.16,0,0,1,5.55-10.49,162.61,162.61,0,0,1,9.65-13.55c-5.84-1.17-5.38-5.43-1.91-11.42.87-1.5,1.93-3.11,3.12-4.8s2.6-3.4,4-5.21l9.34-11.38c2.38-2.93,4.77-6,7.31-9l7.74-9.1,7.74-9.11c1.29-1.5,2.52-3,3.83-4.47l3.84-4.3q6.31-8.05,12.63-16.13c2.09-2.7,4.33-5.27,6.53-7.87s4.44-5.17,6.67-7.72c5,.84,10.22,2.1,14.31,4.56,1.87-1.64,3.78-3.21,5.88-4.87s4.4-3.45,6.9-5.63c12.53-13.56,25.21-27.07,38.33-40,21-10.42,12.07,0,3.29,10.35-8.58,10.61-17,21.13,3.65,10.66-2.07,2-5.22,6.32-8.89,11.42-1.84,2.55-3.8,5.29-5.83,8s-4,5.59-6,8.2c-4.05,5.21-8.1,9.65-11.68,11.81s-6.64,2.07-8.8-2c-6.21,5.24-12.14,10.85-17.27,14.94-1.19,1.6-2.27,3.1-3.25,4.48s-1.79,2.72-2.55,3.92c-1.5,2.42-2.64,4.44-3.48,6.14-1.69,3.4-2.22,5.52-2.19,7,.07,2.89,2.39,3.1,2.23,5.38l-9.44,11.36c-2.9,3.5-5.64,6.66-8.27,9.6s-5.14,5.64-7.59,8.2-4.69,5.09-7,7.51l-14,14.52c-4.72,5.2-9.76,10.9-15.47,17.79-3.42-1.41-7.86.4-12.68,4.64S70.78,1209.34,65,1217l-48.27-108.3c.6.07,1.21.15,1.83.25.32,0,.62.12,1,.16h1c.72,0,1.38.1,2.16.06s1.58-.11,2.38-.14A78,78,0,0,0,36.6,1107C45.3,1104.79,55.64,1101,65.13,1098.11Z"/><path class="cls-6" d="M226,1089.85a48.45,48.45,0,0,0,3.76-4,44.74,44.74,0,0,0,2.88-3.79c1.68-2.5,3-4.93,4.38-7.38a48.46,48.46,0,0,1,5.09-7.45,41.76,41.76,0,0,1,3.74-3.88,46.66,46.66,0,0,1,5.15-3.95c4.39-2.11,8.49-4.61,8.63-1.57,3.92-3.41,7.77-6.74,11.58-10s7.79-6.33,11.67-9.46l11.71-9.36,12.19-9.25a44.08,44.08,0,0,1-4.1,9.27c-.9,1.56-1.9,3.14-3,4.72s-2.2,3.21-3.42,4.82a162.87,162.87,0,0,1-17.17,18.94c-6.2,6.2-12.78,12-18.92,17.15s-11.58,9.75-15.95,13.11c-2.31,2.21-4.55,4.37-5.71,5.49-5.87,7.81-12.77,16.84-18.55,24.62l-10.79,11.47-8.9,6.26c-3.05,2.14-6,4.43-9.1,6.7s-6.16,4.64-9.29,7-6.3,4.73-9.3,7.26c-5.72,8.9-9.76,12-13.56,13.42s-7.39,1-12,3.08c2.3-2.74,4.39-5.28,6.2-7.76s3.36-4.9,4.76-7.27c2.82-4.72,5-9.3,7.34-13.81a105,105,0,0,1,8.54-13.55,75.66,75.66,0,0,1,14.24-14.36c3.2-2.37,6.4-4.75,9.59-7.1l4.76-3.5c1.57-1.16,3.14-2.31,4.77-3.4C213.7,1097.84,220,1093.64,226,1089.85Z"/><path class="cls-6" d="M643.61,814.4c4.87-9.4,11.38-13.3,18.66-15.76,1.83-.62,3.7-1.14,5.61-1.64l5.88-1.39A73.36,73.36,0,0,0,686,791.75a77.06,77.06,0,0,0,10.15-5.49c3.16-1.89,6.2-3.82,9.43-5.55a50.33,50.33,0,0,1,10.67-4.34,45.37,45.37,0,0,1,6.42-1.25,50.45,50.45,0,0,1,7.52-.27L725,779.67,720,784.6l-10.07,9.83c-4.54,1.72-9.11,3.4-13.62,5.26-7.39,3.48-14.64,7.4-21.93,11.33C664.54,811.61,653.39,813.31,643.61,814.4Z"/><path class="cls-6" d="M1504.63,290.35c-7.84.71-15.7,1.52-23.52,2.36s-15.53,1.84-23.27,2.65l-9.43-.73-8.83-.6-16.76-1.11c-8.58-3.42-17-7.14-25.57-10.45.47-2.27,1-4.67,1.45-6.92,34.78,2,71.87,4.57,107.67,7.94C1505.79,285.78,1505.2,288.13,1504.63,290.35Z"/><path class="cls-8" d="M1307.89,332c-.7,3.72-1.41,7.44-2,11.15-5.26-.39-10-.5-14.25-.41s-8.19.44-11.78.87c-7.17.83-13.28,2.24-19.28,3.37-12.08,2.35-23.92,3.9-45,0,.6,2.56-5,5.35-9.39,8.65s-7.72,7.17-2.67,11.67c-24.17-.82-43.27,1.22-54.59,4.4s-14.94,7.65-8.79,12.35c3.77-.27,8-.64,14.79-.81,3.38-.09,7.4-.15,12.31-.17s10.67.12,17.59.27a55.06,55.06,0,0,1-12.24,4.22c-4.91,1.17-10.62,2.27-16.92,3.16s-13.24,1.85-20.61,2.62q-5.55.69-11.4,1.33l-5.9.63-6,.73-12.36,1.46-12.62,1.75-12.75,1.83-3.2.47-3.18.56-6.34,1.15c-4.22.78-8.42,1.57-12.57,2.4l-6.19,1.26c-2,.45-4.07,1-6.08,1.45-8,2-15.8,4.08-23.1,6.35-7.93,7.26-24.13,13.73-46,22.16-2.73,1-5.58,2-8.48,3.17l-8.94,3.46-9.44,3.61c-3.22,1.25-6.56,2.42-9.9,3.82l-20.95,8.51c-3.64,1.44-7.27,3.12-11,4.73l-11.32,5-9.37-6.57-9.38-6.42c5.09-2.54,10.71-5,16.33-7.56l16.47-7.43c-.72-4.65-1.38-9.32-2-13.52-.17-1.42-.41-2.81-.66-4.67l-3.37,1L892,425.13l-6.51,2.07L873.59,431c-7.2,2.24-12.47,4.16-17.8,6-2.92,4.94,8.59,6.43-6.84,14.2l-6.1,1.55-6.2,1.71L823.89,458c-8.68,2.36-17.42,5.12-26.23,7.78-.83,4.84-3.19,10.76-3.94,15.58l-18.93,7.32-9.33,3.59-9.22,3.7c-6.13,2.48-12.29,4.92-18.45,7.48l-18.58,8c.38,1.38.75,2.69,1.15,4.08-27.53,15.24-56,31.9-82.48,48.32-11,6.36-20.3,12.21-31.18,18.72.06,5.28-1.51,11.45-1.6,16.28l-35.93,14.94c-11.78,5-23.64,10-35.7,15.49-4.24,3.58-8.69,6.73-13,10.34-6,8.5-11.86,17.4-17.64,26.34l-24.93,15.23-24.84,15.42c-15.32,12.9-31.87,27.25-47,40.32-11,1-23.78,2.52-34.77,3.56-.73-5.65.06-12.28.89-18.94-12.26,6.83-24.5,13.64-36.54,21-4.16-.63-8.49-1.7-11.14-3.32-10.28,2.8-21.76,7-32,9.84,5.58-8.68,9.47-16.81,15.08-25.53-8-4.79-15.87-9.13-23.86-13.92L304.44,696c5.74-.14,11.81-.61,17.87-1.09s12.17-.93,17.93-1.06L329.77,709l15.16-4.83,22.2-12.75c7.28-4.19,14.51-8.45,22.13-13,1.56,3.44,17.53-4,25.65-3,6.61-6.91,13.2-13.84,20-20.28,9.19-5.66,19.75-12.3,29-17.88,5.63-9.45,11.06-19.38,15.3-27.86l7.78-4.66c-1.5-3.6-2.9-7-4.34-10.46,9.27-5.61,20.4-12.05,29.79-17.58,5.1.76,11.79-2,20.33-7.94s19.11-15.11,32.06-27.16c21-11.48,40.47-22,62-32.93l12.37-6.33c4.1-2.1,8.26-4.09,12.32-6.11,8.15-4,16-8,23.63-11.52,14.43-9.95,2.54-11,4.7-16.69a38,38,0,0,1,7.83-6.29l27.89-15,14.1-7.42,7-3.75c2.34-1.27,4.69-2.52,7.07-3.74l23.49-10.15,23.42-9.77c3.88-1.65,7.82-3.22,11.78-4.78l11.88-4.72c4-1.56,7.94-3.22,12-4.71L838.58,393,851,389.12c4.12-1.24,8.26-2.41,12.36-3.61l12.27-3.57,6.12-1.77,6.18-1.66c8.23-2.2,16.42-4.47,24.73-6.64l25.29-6.34c9.56-2,18.72-3.62,27.8-5.42,4.54-.93,9.14-1.67,13.77-2.51s9.33-1.69,14.14-2.6l8.83,1.67c2.95.58,5.89,1.09,8.8,1.49,7.75-1,15.46-2,23.21-2.91s15.55-1.72,23.33-2.71a43.19,43.19,0,0,0,6.67,4.11,69.94,69.94,0,0,0,12.42,4.54l11.71-4.34,5.88-2.16,5.91-2.05,11.87-4.08,11.88-3.89c-7.46-4,.1-8,8.47-12s17.53-7.85,13-12.2a64,64,0,0,0,8.21-2.84l10,.1,9.53.19,9.52.14,9.85.09,21.81,4.07c7.26,1.29,14.65,2.69,23,4C1260,328.06,1284.11,329.86,1307.89,332Z"/><path class="cls-6" d="M371.3,740.43c-11.86,7.69-17.33,16.79-47.17,39.15-35.18,19.21-16.36-2.08-20-5.85,10.52-10.25,16.92-21.19,31.51-31.26,12-7.34,24.28-14.15,36.54-21C371.36,728.15,370.57,734.78,371.3,740.43Z"/><path class="cls-9" d="M765.88,955.62c-7.57,2.8-15.54,5.67-23.7,8.59l-12.37,4.41-3.12,1.1-3.12,1.17-6.24,2.35-6.77,1.56c-3.85-5.34-7.74-10.67-9.95-16.39,1.57-1.8,4.84-4,8.14-6.2l7.81-2.88c2.67-1,5.4-2,8.16-3,5.49-1.94,11-3.94,16.06-6l15.36-3.24,13.12,2.94,13.11,3.2A146.1,146.1,0,0,1,765.88,955.62Z"/><path class="cls-8" d="M801.56,798.7,792,801.43l-9.63,3-19.44,6-19.41,6-18.92,6.22c-1.9-1-5.53-1.7-9.2-2.84l-14.88,2.09L693.1,823l-7.4,1.16-29.62,4.71a49.48,49.48,0,0,1-12.6,7.55,125.16,125.16,0,0,1-15.72,5.74c-11,3.3-22.57,5.73-31.42,8.2-9.72,2.34-19.44,4.64-29.4,6.9s-20.17,4.46-30.72,7.12c-10.32,4.94-20.64,9.39-32.74,14.35l-12.7.17c-4.09,0-8.18.09-12.72.26-7,1.94-14.06,3.75-21.1,5.56-3.51.91-7,1.79-10.52,2.74s-7,2-10.45,3c-9.63,2.67-19.7,5.48-29.75,8.35l-7.53,2.16-7.44,2.29-14.56,4.59c2.91-4,5.76-8.42,7-11.8,4.42-1,8.72-2,13-2.92l12.73-2.48,25.75-4.82c-3.65-5.68-11.91-5.68-21.69-3.58-4.88,1.05-10.14,2.63-15.38,4.27s-10.43,3.49-15.24,4.89c-.41-2.32-.84-4.71-1.16-6.52l8.26-4.13c2.75-1.38,5.53-2.66,8.29-4l16.48-7.82,16.18-7.72,7.92-3.81,7.82-3.68c21.56-4.19,41.2-8,61.09-11.19,28.5-7,57.13-13.24,85.8-19.35-4.23,3.42-8.41,7-12.39,10.43s-7.72,6.74-11,9.81c7.33,0,16.29-1.06,25.29-2,8.81-2.94,17.19-5.77,25.58-8.66l12.63-4.4,6.41-2.27,6.57-2.24c1.55-3.24,4.88-7.37,8.28-11,9.89-1.81,19.78-3.74,29.68-5.67,4.93-1,9.93-1.81,14.9-2.69l14.92-2.53L736,798.4c7.23-1.14,14.51-2.1,21.76-3.16l21.77-3.11c3.63-.51,7.25-1,10.88-1.53l10.92-1.34C801.43,792.56,801.49,795.34,801.56,798.7Z"/><path class="cls-9" d="M646.58,823.85,640,826.09l-6.41,2.27L621,832.76c-8.39,2.89-16.77,5.72-25.58,8.66-9,.89-18,1.93-25.29,2,3.31-3.07,7.06-6.38,11-9.81s8.16-7,12.39-10.43c10-1.55,20.31-3.32,30.66-5.14l15.47-2.73,15.21-2.45C651.46,816.48,648.13,820.61,646.58,823.85Z"/><path class="cls-9" d="M435.15,885.76l-25.75,4.82-12.73,2.48c-4.26.9-8.56,1.89-13,2.92-1.22,3.38-4.07,7.82-7,11.8-9.5,3.31-19,6.56-28.51,9.93l-28.29,10.34c-6.43,2.36-12.77,4.63-19,7l-18.58,7.13-18.59,7.13c-3.11,1.21-6.26,2.38-9.39,3.63l-9.45,3.8c-16,2.91-30.42,4.63-42.28,9.51-13.24,6.59-24.79,12.45-39.8,19.25L121.53,1005c-6.93,3.21-13.78,6.64-20.67,10l-20.67,10.08-10.34,5-9.36,4.63c-6,3-11.24,5.47-16,7.67L41,1044l-3.16,1.35-1.55.67-1.39.55-2.74,1.1-2.37.87c-.37.13-.83.34-1.13.42l-1,.31-1,.34-.49.18a4.1,4.1,0,0,1-.4.11c-.5.14-1,.29-1.51.47-.11,0-.25.07-.34.08l-.26,0-.48.06c-.3,0-.56.11-.72.15l-.85-1.17c-.06-.09-.13-.16-.18-.24l0-.32,0-.28,0-.14v.07c.13,1.37.23,2.73.3,4.07l0,1,.07.72.12,1.43c.13,1.9.19,3.76.17,5.58,0,1,0,1.5,0,2.12s0,1.19,0,1.78,0,1.17-.07,1.75l-.12,1.65a27.56,27.56,0,0,1-.36,3.83l96.88,181.13a222.34,222.34,0,0,0,15.9-20.33l-5.1-4.89c2.76-3.75,5.69-7.48,8.52-11.2q3.63-3.77,6.78-7c2.12-2.15,4-4.18,5.91-6,3.74-3.57,6.9-6.51,9.62-8.85,5.43-4.69,9.08-7,12-7.24,1.36-9.84,6.37-18.8,12.27-26.46,6.11-7.51,13.09-13.72,18.24-18.42,1.09-2.32,2.29-4.56,3.41-6.87s2.23-4.66,3.26-7.1L220,1117.82c5.78-7.78,12.68-16.81,18.55-24.62,1.16-1.12,3.4-3.28,5.71-5.49,8.28-2.1,15.55-2.69,24.05-4.31a77.94,77.94,0,0,1-4.58,7l-13.53,13c-2.29,2.14-4.44,4.41-6.65,6.62l-6.6,6.66,5.83,7.38-6.61,8.75-6.48,9.24-6.42,9.28-3.12,4.57-2.92,4.59c-4.7,3.83-8.09,6.92-11.83,9.68l-5.1,5.71c-3.45,6.13-6.69,11.49-9.77,16.23q-2.31,3.56-4.51,6.67c-1.43,2.11-2.78,4.11-4.13,6-2.69,3.73-5.26,7-7.75,9.88q-1.86,2.17-3.67,4.12l-3.51,3.75c-4.52,4.82-8.84,8.81-13.14,13-2.13,2.13-4.35,4.26-6.41,6.69s-4.18,5-6.31,8l-8.82,12.89L21.55,1072.47a88.89,88.89,0,0,0,.15-19.31q-.21-4.44-.8-8.73l-.31-2.12-.32-2.75q-.35-2.77-.79-5.5t-1-5.4l-.14-.67c0-.14-.12-.72-.09-.57l0,0,.07,0a.34.34,0,0,1,.14,0h.07a.31.31,0,0,0,.14,0,5.19,5.19,0,0,1,.87-.28c.08,0,.13,0,.24-.06l.35-.14.72-.25.72-.22c.28-.09.64-.25.95-.36l2-.74,2.46-1,.62-.24.73-.31,1.45-.63,1.46-.62c.48-.2,1.09-.49,1.63-.73l3.37-1.52a33.12,33.12,0,0,0,6.89,2.38,24.68,24.68,0,0,0,6.37.2,15.33,15.33,0,0,0,1.52-.24c.51-.1,1-.22,1.52-.35a27.43,27.43,0,0,0,2.91-.93c.48-.18.94-.37,1.41-.57l1.48-.7c1-.48,1.93-1,2.88-1.56l1.41-.85,1.46-.91c1-.64,2-1.3,3-2l6.14-4.2a102.25,102.25,0,0,1,13.49-8.1l13.81-7.07,7-3.58,7.16-3.48c9.55-4.64,19.13-9.23,28.34-13.52q4.56-2.72,9.13-5.23c3.06-1.64,6.14-3.19,9.23-4.71,6.16-3,12.36-5.81,18.58-8.45s12.49-5.11,18.79-7.49,12.72-4.49,19.14-6.65l19.45-6.46,9.85-3.27,10-3.22c13.44-4.37,27.11-9.19,41.25-14.75L340,899.34c13.84-4.94,27.78-9.68,41.68-14.52.32,1.81.75,4.2,1.16,6.52,4.81-1.4,10-3.28,15.24-4.89s10.5-3.22,15.38-4.27C423.24,880.08,431.5,880.08,435.15,885.76Z"/><path class="cls-9" d="M415.89,965.38c-1.56-3-2.71-5.33-4.27-8.4,26.81-20.55,54.29-40.63,82.62-59.79,6.15-1.93,13.66-4.61,21.36-6.85,8.39-.39,16.64-1.13,23.71-.21,3.35-2.34,6.66-4.74,10.06-6.94l10.08-6.57,9.84-6.36c3.21-2.11,6.45-4,9.55-6,9.58-3.92,19.08-8,28.79-11.6l14.49-5.51,3.63-1.35,3.66-1.28,7.32-2.52a76.09,76.09,0,0,1,10.92-9.65c2.11-1.62,4.33-3.16,6.55-4.65l6.52-4.35c8.39-5.58,15-10.18,13.61-12.36,7.29-3.93,14.54-7.85,21.93-11.33,4.51-1.86,9.08-3.54,13.62-5.26l19-3.54c6.33-1.12,12.64-2.24,18.9-3.51,9.33-6,22.83-10.25,36.23-14.7,6.74-2.14,13.51-4.18,19.77-6.44,3.14-1.13,6.15-2.3,9-3.53s5.52-2.43,7.95-3.77c6.43-.69,12.8-1.49,19.15-2.29s12.75-1.39,19.11-2A77,77,0,0,0,874,751c4.65-1.53,8.94-3.31,13.11-4.87a66.06,66.06,0,0,1,12.37-3.6,32.31,32.31,0,0,1,13,.6c25.18-6.25,50.64-11.62,76.2-16.83,12.66-3.79,25.39-7.83,38.22-11.86,4.86.08,9.76.18,14.59-.19,9.6-2.81,18.87-5.28,27.94-7.81,4.53-1.3,9-2.41,13.54-3.62l13.43-3.64c4.87,0,10.17,0,15.47,0s10.58,0,15.46.13l12-3.65,11.74-3.63c3.9-1.2,7.8-2.45,11.77-3.61s8-2.29,12.13-3.41c6.54.54,13,1,19.6,1.59l19.58,1.81c18.29-6,39.87-9,61.09-11.61,5.3-.7,10.6-1.24,15.81-1.85s10.34-1.25,15.34-2a252.67,252.67,0,0,0,28-5.09c3.48-1.59,19.09-3.2,33.09-3.55s26.39.94,23.39,4.7a41.78,41.78,0,0,0,9.17,1.57c3.63.3,7.76.47,12.11.5,8.71.1,18.35-.34,26.93-.23,17.16.1,29.93,1.44,22,9.49a205.36,205.36,0,0,0-26.1,2,52.41,52.41,0,0,0-11.78,3.16c-5.28,2.11-7.58,3.86-20,3.4-7-.59-13.39-1-19.35-1.43s-11.45-.73-16.5-.86c-10.13-.32-18.59-.36-25.84-.13-14.48.66-24.12,2.24-32.56,4.71-8.38,1.81-16.74,3.73-24.87,5.64s-16,4-23.48,5.84L1237.28,700c-7.68-.94-15.39-1.94-23.48-2.6-6.13.42-12.27.87-18.36,1.45s-12.11,1.42-18,2.41A160.52,160.52,0,0,0,1160,705.1a127.7,127.7,0,0,0-16.51,6l19.4,1.21,19.4,1.38c12.89.84,25.83,2.08,38.68,3.25-8.53,9.64-8.59,12-8.72,14.35-38.53.08-72.28,3.43-107.4,7.3l-15.55,2.25c-5.18.75-10.37,1.46-15.52,2.32l-15.47,2.46-7.74,1.23-7.71,1.35-18.32,2.77c-6.25.93-12.58,2-19,3-12.84,1.93-25.76,4.28-38.36,6.37-1.6.32-4.72,1-6.28,1.37-11.9,4.75-23.09,8.62-34.17,12.42-5.56,1.85-11.13,3.57-16.8,5.19s-11.39,3.34-17.35,4.88c-3,.77-6,1.52-9.11,2.26l-9.4,2.29c-6.4,1.52-13.1,3-20.21,4.45s-14.55,3.16-22.53,4.76l-6.08,1.2L819,800.46l-13.12,2.71c-3.61,1-7.25,1.88-10.84,2.92l-10.79,3.1c-7.2,2.09-14.48,4.07-21.69,6.36l-21.87,6.75-22.17,7.31,16.46-12.26,4.13-3.06,4.17-3,8.38-6c-4.76.47-9.91,1.07-15.05,1.68s-10.23,1.38-15,1.93c-3.37,1.28-6.48,2.66-9.4,4.11q-2.19,1.1-4.24,2.24c-1.35.78-2.66,1.59-3.94,2.4-5.1,3.27-9.62,6.72-14,10.18l-6.58,5.19c-2.17,1.77-4.38,3.52-6.67,5.22a105,105,0,0,1-15.21,9.6,150.9,150.9,0,0,1-23.93,18.81c-4.81,3.18-9.88,6.47-15.2,9.61s-10.9,6.17-16.44,9.29-11.26,6-16.94,8.78l-8.42,4.11q-4.17,2-8.29,3.86t-8.11,3.51l-7.8,3.18c-5,2-9.88,3.76-14.36,5.14l-7.76,1.57c-10.51,3.21-19.55,5.79-28.71,8.31-14.9,8.85-28,17.75-40.76,19.85q-4,2.7-7.86,5.45l-3.9,2.76L449.22,955q-7.59,5.79-15.17,11.61L430.32,969,427,971.3l-6,4.13Z"/><path class="cls-9" d="M1495.07,667.63l24,2.86c7.85.94,15.69,2,24,3.07,4,1.1,7.65,2.06,11.28,3s7.28,1.84,11.33,2.76a124.38,124.38,0,0,0,17.66-3.77c30.23,1.79,58.76,3.73,89,6.27,0-2,1.92-2.92,5-3.25a67.92,67.92,0,0,1,11.75.37c9.06.81,19.5,2.06,25.15.07,30.51,2,23.36,10.27,53.36,14.39,10.07-5.43,10.62-7.71,11.26-10,9.24,1.07,18.93,2.1,29.46,3.43l16.49,2,4.36.53,1.1.14,2.7.3,2.89.29,3,.25a189.63,189.63,0,0,0,28.78.14q3-.53,6-1.1l3.21-.67L1880,688l3.25-.77,1.72-.43,1.83-.48c2.43-.65,4.84-1.34,7.21-2.07l1.91-.6,2-.67c1.35-.45,2.69-.92,4-1.39s2.65-1,4-1.47l2.15-.86,2.25-.93q4.48-1.89,8.79-4l2.42-1.22,2.45-1.29c1.62-.87,3.22-1.77,4.81-2.68s3.11-1.84,4.7-2.83q2.63-1.67,5.18-3.44c1.7-1.18,3.38-2.38,5-3.61l2.44-1.87c.81-.63,1.57-1.22,2.48-2,3.49-2.9,6.85-5.95,10-9.1,1.61-1.61,3.09-3.1,4.73-4.93s3.14-3.57,4.65-5.4a132.35,132.35,0,0,0,8.4-11.31c2.58-3.93,5-8,7.15-12.06a121,121,0,0,0,5.62-12.08c1.63-4,3.08-8.06,4.34-12.1l39.6-126.69L1924,438c-14.07-3.07-24.21-7.17-28.66-11.81a59.44,59.44,0,0,1-3.06-6,21.87,21.87,0,0,1-1.73-5.36c-6.59-2.82-12.82-5.41-18.74-7.79q-4.44-1.78-8.64-3.41c-1.41-.54-2.79-1.08-4.16-1.58l-4.07-1.39c-10.69-3.61-20.29-6.51-29.12-8.87-8.83-2.17-16.89-3.71-24.53-5-3.82-.63-7.53-1.16-11.17-1.63s-7.24-.7-10.8-1l-15.6-4.05c-5.19-1.35-10.39-2.73-15.58-3.88-10.37-2.38-20.75-4.85-31.09-7.11-12.36-4.91-22.88-9.5-33.39-13.91-7.42,1-14.29,2-21.15,3.05s-13.71,2-21,3.25l-16.32-7.06-8.36-3.61c-2.75-1.17-5.43-2.25-8-3.32l-19-2.63c-7.26-1.06-15.61-2-25.82-3.26-6.22,1.62-12.32,2.75-18.46,4.4-42.55-4.74-82.91-8-124.61-10.71-2.79-4.16-6-8.48-9.44-12.85s-7.07-8.77-10.75-13.19l21.6,2.69c7.22.89,14.43,1.73,21.66,2.44a269.87,269.87,0,0,0,30.19,6.29c2.09.29,4.06.53,6,.73s3.7.39,5.4.52c3.42.25,6.47.33,9.2.28,10.92-.19,16.71-2.48,20-4.29,13.59-.71,23.35.55,31.34,2.91s14.31,6,20.95,9.87c15.32.32,30.79,1.14,46.46,1.42,5,1.24,10.16,2.71,15.35,4.11l15.7,4.25,7.87,2.14,7.84,2.3,15.36,4.54c4.58-.1,9.26-.28,14.07-.24l14.71.14,15.12.24,3.82.07,3.85.16,7.72.34c8.93,2.54,16.22,4.58,22.6,6.19s11.88,3.07,17.21,4a123.78,123.78,0,0,0,16.27,1.72l4.45.14c1.53.07,3.11.12,4.75.15,3.28.07,6.81.09,10.67.06l9.66,2.79c10.81.31,24.2,4.07,37.73,7.89l10.14,2.92c3.36,1.06,6.69,2.1,10,3.07,6.55,2,12.84,3.64,18.62,4.75l5.81,5.08,5.74,5.28,11.29,10.56,7.62,3.07,7.63,3.07L2066,463.74l-44.66,133.73c-1.43,4.27-3,8.51-4.77,12.69q-1.32,3.12-2.74,6.2l-1.45,3.06c-.49,1-1,2-1.56,3.08a170.29,170.29,0,0,1-15.25,24c-2.85,3.71-5.87,7.33-9,10.81q-2.35,2.61-4.8,5.12c-1.55,1.55-3.12,3.05-4.72,4.54-3.2,3-6.51,5.84-9.91,8.57l-2.57,2c-.84.65-1.57,1.18-2.37,1.76q-2.35,1.73-4.77,3.37-4.83,3.3-9.85,6.28c-.88.53-1.56.91-2.3,1.33l-2.22,1.22c-1.48.81-3,1.59-4.49,2.36s-3,1.51-4.54,2.24l-2.29,1.07-1.16.53-1.06.47q-4,1.71-8,3.26-2,.76-4.08,1.5c-1.34.48-2.8,1-3.9,1.33q-3.54,1.13-7.12,2.13l-3.59,1-1.8.46-1.58.38c-2.08.48-4.17.94-6.27,1.36-1.43.3-2.87.58-4.31.85l-1,.19-1,.16-1.89.3q-3.8.6-7.61,1.08c-2.34.28-4.53.49-6.81.69l-3.4.28-3.08.18q-3.06.15-6.12.24c-1.92.05-3.73.06-5.61.06l-2.79,0-2.61-.06-5.16-.18-4.87-.3-2.42-.18-2.31-.2-6.15-.61-6.45-.65-26-2.61-26.34-2.47-26.51-2.19c-8.25-1.37-20.44-4-30.61-5.39s-18.31-1.18-18.42,3c-6.68-.58-13.38-1.23-20.07-1.76l-20-1.61c.26,2.62-4.57,3.21-14.13,2.44s-23.9-3.17-42.68-6.37l-10.81-.14-10.92-.05-22-.07c-14.7.1-29.41.12-43.66.44.48-2.8,1.05-6,1.46-8.83l-16.3-2.63c-5.3-.82-10.6-1.63-16.34-2.44C1483.57,676.25,1489.32,671.66,1495.07,667.63Z"/><path class="cls-10" d="M1327.18,328c-6-2.32-11.63-4.74-17.22-7.16s-11.28-4.76-17.44-7c16.84-10.29,29.09-15,12.75-17.85-14.69-2.32-18.92-.26-23.06,1.74a22.9,22.9,0,0,1-7.55,2.5c-3.42.51-8.19.52-15.65-.5-4.72-.53-9-.86-13.29-1.23l-13.3-1.14c.75-4.75,1.38-8.79,2.12-13.56,16.57-.29,33.55-.53,50.49-.54,8.53,0,17,0,25.48,0s16.94.12,25.29.25c21.45,5.57,44,11.43,66.86,17-.71,3.3-1.26,5.9-1.87,8.78l21.6,2.69c7.22.89,14.43,1.73,21.66,2.44-7.16,7-14.17,14-23.07,20.91l-46.79-3.76C1358.53,330.34,1342.67,329.15,1327.18,328Z"/><path class="cls-9" d="M1307.89,332c-23.78-2.17-47.86-4-70.36-5.76,15.78-4.19,29.89-8.8,47.46-12.59l7.53.17c6.16,2.27,11.81,4.65,17.44,7s11.17,4.84,17.22,7.16Z"/><path class="cls-9" d="M1145.63,320.51c4.49,4.35-4.7,8.3-13,12.2s-15.93,8-8.47,12l-11.88,3.89-11.87,4.08-5.91,2.05-5.88,2.16-11.71,4.34a69.94,69.94,0,0,1-12.42-4.54,43.19,43.19,0,0,1-6.67-4.11c-7.78,1-15.55,1.87-23.33,2.71s-15.46,2-23.21,2.91c-2.91-.4-5.85-.91-8.8-1.49L993.61,355c5.72-2.72,12-5.41,18.31-8.13s12.62-5.48,18.49-7.94l23.7-4.84,5.93-1.21,6-1.06,11.94-2.13,12-2.13,12-1.93c8-1.33,16-2.41,24-3.62C1131.88,321.5,1137.79,321.1,1145.63,320.51Z"/><path class="cls-9" d="M679.81,468c9.6,2.93,5.71,9.55-4,17.43-2.41,2-5.22,4-8.22,6.14s-6.23,4.32-9.6,6.51c-6.74,4.4-14,8.79-20.77,13.08-2.39-1.4-6.42-2-10.47-2.51-21.49,10.94-41,21.45-62,32.93-13,12.05-23.55,21.14-32.06,27.16s-15.23,8.7-20.33,7.94c-9.39,5.53-20.52,12-29.79,17.58,1.44,3.47,2.84,6.86,4.34,10.46l-7.78,4.66-7.6,3.32-7.88,3.52c-5.31,2.34-10.65,4.64-15.65,6.59-1.42-3.33-2.78-6.53-4.43-10.42,16.07-17,46.34-38,79.63-57.58l17.58-15.08c5.91-5,11.78-10.11,17.81-15,5.54-2.22,11-4.35,16.38-6.44l8.05-3.1,8.1-3L624,500.07,637.59,492l14.09-8.13c4.74-2.7,9.41-5.47,14.15-8.08Z"/><path class="cls-9" d="M673.38,510.34a56.2,56.2,0,0,1-10.47,9c-4.07,2.81-8.67,5.4-13.39,8s-9.7,5.07-14.58,7.51c-2.44,1.22-4.87,2.42-7.22,3.63s-4.64,2.46-6.83,3.69l-4.48-13,5.85-3.08,5.59-2.85,11.44-5.85C650.16,515.44,662.69,512.52,673.38,510.34Z"/><path class="cls-9" d="M434.91,655.07c-6.8,6.44-13.39,13.37-20,20.28-8.12-1-24.09,6.45-25.65,3-7.62,4.56-14.85,8.82-22.13,13l-22.2,12.75L329.77,709l10.47-15.15c-5.76.13-11.84.59-17.93,1.06s-12.13.95-17.87,1.09c11.5-8.64,23.27-16.82,34.79-25.41a127,127,0,0,0,20.68,2.79l10.35-6.66,10.7-6.81,21.2-13.45,27.33-3.92C431.2,646.45,433.06,650.79,434.91,655.07Z"/><path class="cls-8" d="M838.54,926.39c-6.76,3.54-15.3,6.81-23.75,10.74l-32.42,6.19-13.11-3.2-13.12-2.94c12.71-4,25.13-7.26,37.51-10.75l18.65-5.19c6.26-1.71,12.61-3.29,19.06-5,5.2,1.49,10.49,2.48,15.67,4C845.38,922.37,841.93,924.38,838.54,926.39Z"/><path class="cls-8" d="M670.45,986.68l-24.28,11.85c-4,2-7.89,3.86-11.7,5.87l-11.19,5.92q-10.14,1.3-20.24,2.88c-6.74,1-13.49,2.09-20.22,3.36-.51-3.81-1-7.61-1.83-13.56l15.75-5.39c5.39-1.88,10.77-3.81,15.72-5.63,4.72-3.94,9.86-8,15-12s10.38-7.93,15.15-11.79l29-5.1c4.89-.91,9.82-1.6,14.67-2.39l14.36-2.25c2.21,5.72,6.1,11.05,9.95,16.39q-10.06,2.69-20.09,5.66l-10,3Z"/><path class="cls-8" d="M244.89,956.72c-4.37,5-12.17,9.17-21.83,13.3-4.82,2.09-10.14,4.09-15.65,6.36s-11.3,4.62-17.14,7.2c-11.85,6.38-26.11,12.48-41.16,19s-31.25,12.72-46.81,19.6c-7.8,3.38-15.5,6.8-22.94,10.27-7.65,3.54-14.12,6.84-19.82,9.92-11.11,6-18.56,11-22.93,16.15-.54.32-.92.49-1.34.71l-1.17.56q-.56.26-1.05.45l-.47.19-.4.1a4.76,4.76,0,0,1-2.38.13,2.41,2.41,0,0,1-.77-.38,3.56,3.56,0,0,1-.53-.67,10.22,10.22,0,0,1-.78-1.78,18.46,18.46,0,0,0-1.8-4.18,6.5,6.5,0,0,0-1.61-1.7,4.65,4.65,0,0,0-1.81-1.29,2.37,2.37,0,0,0-.53,0l-.26,0c-.1,0-.06,0-.09,0s0,0-.05,0h0l.09,1.53.05.92c0,.31,0,.62,0,.81l.13,1.33c.07.9.12,1.8.16,2.72.18,7.95,0,11.41-.48,14.57l91.9,177.72,15.78-21.81,5.1,4.89L117,1252.63,21.55,1072.47a89.36,89.36,0,0,0,.14-19.49l-.13-2.22-.17-2,.05.31a.53.53,0,0,0,0,.18l.16.1.33.24.35.29c.18.06.4.09.6.15l.64.18a1.85,1.85,0,0,0,.74.16c.5-.18,1-.33,1.51-.47a4.1,4.1,0,0,0,.4-.11l.49-.18,1-.34,1-.31c.3-.08.76-.29,1.13-.42l2.37-.87,2.74-1.1,1.39-.55,1.55-.67L41,1044l3.46-1.56c4.8-2.2,10-4.68,16-7.67l9.36-4.63,10.34-5L100.86,1015c6.89-3.35,13.74-6.78,20.67-10l41.28-19.51c15-6.8,26.56-12.66,39.8-19.25C214.47,961.35,228.93,959.63,244.89,956.72Z"/><path class="cls-8" d="M133.06,1190.36l14-17.37c4.59-2,8.19-1.67,12-3.08s7.84-4.52,13.56-13.42c3-2.53,6.2-4.88,9.3-7.26s6.23-4.68,9.29-7,6-4.56,9.1-6.7l8.9-6.26c-1,2.44-2.12,4.79-3.26,7.1s-2.32,4.55-3.41,6.87c-10.17,13.15-15.89,22-19.77,28.86s-6.54,11.46-10.74,16c-2.89.25-6.54,2.55-12,7.24-2.72,2.34-5.88,5.28-9.62,8.85-1.9,1.77-3.79,3.8-5.91,6s-4.36,4.49-6.78,7c-1.59-4.85-6.51-5.33-9.19-7.69-1.34-1.18-2.11-2.83-1.61-5.76a23.4,23.4,0,0,1,1.8-5.45c.49-1.1,1.08-2.31,1.78-3.63.36-.66.73-1.36,1.15-2.08S132.57,1191.13,133.06,1190.36Z"/><path class="cls-8" d="M306.8,1019.7l4.91-7.13c4-3.29,8.26-6.36,12.43-9.48l12.57-9.27c2.07-1.55,4.22-3,6.36-4.51l6.42-4.45L362.33,976c8.17-3.38,16.41-6.56,24.58-9.76,4.07-1.63,8.24-3.11,12.37-4.64L411.62,957c1.56,3.07,2.71,5.35,4.27,8.4l-14.63,10.33c-4.85,3.52-9.63,7.14-14.46,10.72-9.74,7.08-19.13,14.63-28.66,22l-3.56,2.78-3.49,2.86-7,5.71-7,5.71c-2.32,1.9-4.68,3.77-6.93,5.74l-13.61,11.63c-2.26,1.94-4.56,3.83-6.77,5.8l-6.61,5.91c-3,2.47-6,4.86-8.91,7.21s-5.86,4.63-8.68,7c-5.68,4.74-11.38,9.49-17.31,14.57-8.5,1.62-15.77,2.21-24.05,4.31,4.37-3.36,9.9-7.91,15.95-13.11s12.72-10.95,18.92-17.15a162.87,162.87,0,0,0,17.17-18.94c1.22-1.61,2.33-3.25,3.42-4.82s2.08-3.16,3-4.72A44.08,44.08,0,0,0,306.8,1019.7Z"/><path class="cls-8" d="M547,865.4c7.55-2.85,14.81-6.19,20.9-8.19,8-3.93,16.28-8.08,25.27-13.39,4.53-2.59,9.24-5.47,14.16-8.8s10-7.15,15.51-11.33l20.75-9.29c9.78-1.09,20.93-2.79,30.72-3.38,1.4,2.18-5.22,6.78-13.61,12.36l-6.52,4.35c-2.22,1.49-4.44,3-6.55,4.65A76.09,76.09,0,0,0,636.73,842l-7.32,2.52-3.66,1.28-3.63,1.35-14.49,5.51c-9.71,3.62-19.21,7.68-28.79,11.6-3.1,2-6.34,3.86-9.55,6l-9.84,6.36-10.08,6.57c-3.4,2.2-6.71,4.6-10.06,6.94-7.07-.92-15.32-.18-23.71.21,5.15-4.2,10.39-8.34,15.61-12.54l7.85-6.28Z"/><path class="cls-8" d="M730.16,774.85l18.45-6.63c3.06-1.13,6.16-2.17,9.25-3.21l9.27-3.14c4.41-2.7,9.2-5.61,14.06-8.36s9.76-5.36,14.29-7.77c4-1,7.53-1.79,11.1-2.56s7.19-1.42,11.15-2.36a60.7,60.7,0,0,1,11.54-5.49c2.37-.88,4.85-1.76,7.35-2.47s5-1.33,7.34-1.82c9.38-1.93,16.36-1.7,12.18,3.59,3.65-1.7,7.2-3.29,10.74-4.68s7-2.59,10.46-3.71a202.26,202.26,0,0,1,20-5.46c13.06-2.73,25.45-4.49,38-5.93,6.28-.76,12.56-1.57,19-2.53s13-2,19.7-3.37c3.37-.7,6.78-1.54,10.28-2.39s7.07-1.8,10.71-2.87,7.36-2.28,11.17-3.63c1.91-.67,3.84-1.4,5.8-2.13s3.94-1.47,6-2.27c3.44,2.24,5.15,5.26,8.53,7.51q4.85-1,9.69-2.12c3.23-.74,6.45-1.49,9.7-2.16,6.49-1.39,13-2.78,19.47-4,4.84-3.9,11.37-7.51,17.29-10.67s11.26-5.81,13.71-7.58c4.93-.72,9.89-1.31,16.48-2.18,14.78-2,31.37-3.84,46.24-5.55,7.43-.05,14,0,20.43,0l9.51.09,9.66.22c3.41-2.18,6.85-4.82,8.6-7.32,28.32-2.89,62.9-4.88,96.37-6.22l48.43-2.07c7.63-.33,14.94-.81,21.85-1.22s13.41-.91,19.37-1.51a94.35,94.35,0,0,1,15.8-3.6,125.48,125.48,0,0,1,13-1c2.6-.07,5.46-.1,8.6-.06s6.59.2,10.36.41a83.8,83.8,0,0,1,15.49,9c4.19,0,8.4.1,12.41.19l11.21.24c13.57-.72,27.61-1,41.44-1.34,6.91-.13,13.78-.18,20.52-.26s13.33-.17,19.73-.16c34.21-.71,65.93,1.6,96.77,4.13s60.82,5.47,91.84,6.35c11.43-4,44,4.73,66.77-1.81.7,2,2.36,3.58,4.93,4.93a29.69,29.69,0,0,0,4.53,1.86c.87.29,1.79.57,2.77.83l1.5.4.79.19.4.1c.14,0,.2.05.6.11a153.66,153.66,0,0,0,18,1.85c1.84.06,3.72.11,5.63.14s4.18,0,6.32-.1l1.63,0,1.81-.11,3.67-.26,1.86-.15.94-.09,1-.12c1.41-.16,2.82-.34,4.25-.53l2.14-.3c.73-.11,1.39-.2,2.25-.36,1.64-.29,3.28-.61,4.94-.94l2.49-.53c.84-.19,1.61-.35,2.62-.61,1.91-.48,3.84-1,5.76-1.56l2.9-.86,1.48-.47,1.67-.57q3.33-1.17,6.68-2.5c1.12-.44,2.23-.9,3.34-1.37,1.27-.57,2.55-1.16,3.82-1.76,2.54-1.22,5.08-2.52,7.59-3.89l.94-.52c.3-.17.62-.34,1-.56l2.11-1.28c1.41-.86,2.82-1.75,4.21-2.67s2.77-1.86,4.14-2.82l2-1.48.51-.37.55-.43,1.11-.87c3-2.34,5.86-4.82,8.66-7.43l2.09-2,1-1,1.07-1.11q2.15-2.22,4.21-4.58c2.74-3.14,5.38-6.38,7.85-9.82s4.79-7.12,7-10.87c1.07-1.87,2.16-3.82,3.09-5.68s1.8-3.74,2.65-5.65c1.69-3.83,3.23-7.76,4.6-11.75l32.63-95.63L1920.29,447c-6.66-2.95-14-6.22-21.82-9.88l-12.19-5.75q-6.33-2.83-13-6l-12-5.25-5.94-2.6c-2-.87-4-1.62-5.94-2.43l-23.69-9.54c-2-.78-4-1.62-5.93-2.34l-6-2.2-12-4.4-12.09-4.42c-2-.76-4.06-1.44-6.1-2.12l-6.16-2.05c-10.75-2.92-17.27-3.58-22.14-3.37a34.88,34.88,0,0,0-6.43.89c-2,.42-3.82.88-6,1.23-8.54,1.47-21,.52-58.75-11-7.2-2.09-14.42-4-21.67-6.08s-14.51-4.09-21.73-5.89L1617.13,359c-8-1.56-16-3-24-4.49l-12-2.24-11.93-2.06-23.56-4.13c6.14-1.65,12.24-2.78,18.46-4.4,10.21,1.23,18.56,2.2,25.82,3.26l19,2.63c2.58,1.07,5.26,2.15,8,3.32l8.36,3.61,16.32,7.06c7.28-1.25,14.13-2.23,21-3.25s13.73-2,21.15-3.05c10.51,4.41,21,9,33.39,13.91,10.34,2.26,20.72,4.73,31.09,7.11,5.19,1.15,10.39,2.53,15.58,3.88l15.6,4.05c3.56.28,7.15.54,10.8,1s7.35,1,11.17,1.63c7.64,1.26,15.7,2.8,24.53,5,8.83,2.36,18.43,5.26,29.12,8.87L1859,402c1.37.5,2.75,1,4.16,1.58q4.2,1.63,8.64,3.41c5.92,2.38,12.15,5,18.74,7.79a21.87,21.87,0,0,0,1.73,5.36,59.44,59.44,0,0,0,3.06,6c4.45,4.64,14.59,8.74,28.66,11.81l109.19,23.77-39.6,126.69c-1.26,4-2.71,8.09-4.34,12.1a121,121,0,0,1-5.62,12.08c-2.17,4.09-4.57,8.13-7.15,12.06a132.35,132.35,0,0,1-8.4,11.31q-2.27,2.75-4.65,5.4c-1.64,1.83-3.12,3.32-4.73,4.93-3.19,3.15-6.55,6.2-10,9.1-.91.77-1.67,1.36-2.48,2l-2.44,1.87c-1.64,1.23-3.32,2.43-5,3.61s-3.43,2.33-5.18,3.44c-1.59,1-3.11,1.91-4.7,2.83s-3.19,1.81-4.81,2.68l-2.45,1.29-2.42,1.22q-4.31,2.08-8.79,4l-2.25.93-2.15.86q-2,.75-4,1.47c-1.33.47-2.67.94-4,1.39l-2,.67-1.91.6c-2.37.73-4.78,1.42-7.21,2.07l-1.83.48-1.72.43L1880,688l-3.28.73-3.21.67q-3,.57-6,1.1a189.63,189.63,0,0,1-28.78-.14l-3-.25-2.89-.29-2.7-.3-1.1-.14-4.36-.53-16.49-2c-10.53-1.33-20.22-2.36-29.46-3.43-.64,2.27-1.19,4.55-11.26,10-30-4.12-22.85-12.36-53.36-14.39-5.65,2-16.09.74-25.15-.07a67.92,67.92,0,0,0-11.75-.37c-3,.33-5,1.26-5,3.25-30.27-2.54-58.8-4.48-89-6.27a124.38,124.38,0,0,1-17.66,3.77c-4-.92-7.7-1.81-11.33-2.76s-7.26-1.88-11.28-3c-8.26-1-16.1-2.13-24-3.07l-24-2.86c-5.75,4-11.5,8.62-18.9,13.12l-15-.32c7.9-8-4.87-9.39-22-9.49-8.58-.11-18.22.33-26.93.23-4.35,0-8.48-.2-12.11-.5a41.78,41.78,0,0,1-9.17-1.57c3-3.76-9.39-5-23.39-4.7s-29.61,2-33.09,3.55a252.67,252.67,0,0,1-28,5.09c-5,.71-10.13,1.35-15.34,2s-10.51,1.15-15.81,1.85c-21.22,2.57-42.8,5.61-61.09,11.61l-19.58-1.81c-6.55-.61-13.06-1-19.6-1.59-4.13,1.12-8.16,2.26-12.13,3.41s-7.87,2.41-11.77,3.61l-11.74,3.63-12,3.65c-4.88-.08-10.17-.1-15.46-.13s-10.6-.05-15.47,0L1083,702.85c-4.49,1.21-9,2.32-13.54,3.62-9.07,2.53-18.34,5-27.94,7.81-4.83.37-9.73.27-14.59.19-12.83,4-25.56,8.07-38.22,11.86-25.56,5.21-51,10.58-76.2,16.83a32.31,32.31,0,0,0-13-.6,66.06,66.06,0,0,0-12.37,3.6C883,747.72,878.69,749.5,874,751a77,77,0,0,1-15.12,3.65c-6.36.58-12.75,1.19-19.11,2s-12.72,1.6-19.15,2.29c-2.43,1.34-5.11,2.56-7.95,3.77s-5.84,2.4-9,3.53c-6.26,2.26-13,4.3-19.77,6.44-13.4,4.45-26.9,8.74-36.23,14.7-6.26,1.27-12.57,2.39-18.9,3.51l-19,3.54L720,784.6l5.07-4.93Z"/><path class="cls-8" d="M944.72,662c13.24-2.7,26.43-5.61,39.74-8l.9,16-8.28,1.58c-9.89,1.05-21.42,3-31.35,4.11C945.28,669.64,945,665.83,944.72,662Z"/><path class="cls-8" d="M1033,654.64c21.8,2.16,36.67,1.21,31.75,6.25-8.27,1.33-16.12,2.58-24,3.54-3.93.46-7.85.92-11.83,1.3s-8,.63-12.17.76A114.7,114.7,0,0,1,1033,654.64Z"/><path class="cls-8" d="M1380,622.09c6.35-3.33,14.56-4.42,23.33-4.7s18.07.21,26.65-.27l32.37.31c2.87,3.79,4,7.55,6.78,11.34-18.79.61-39.28.89-58,1.91a52.43,52.43,0,0,1-17-2.76C1389.21,626.29,1384.82,624.13,1380,622.09Z"/><path class="cls-8" d="M1484.47,629.09c22.3-.9,44.62-1.48,67-1.89,23.15,4.85,22.5,8.16,21.66,12.29-32-2.65-59.52-1.76-90.15-1.55C1483.72,633.75,1484,631.43,1484.47,629.09Z"/><path class="cls-8" d="M1654.09,411.55c-3.7-3.27-7.4-6.66-11.12-10.06s-7.44-6.62-11.21-9.82l7.63,1.22c2.57.41,5.16.8,7.77,1.29l15.77,2.85,15.77,2.87,15.45,3.15c11.67,5.73,8.31,9.21-1.24,10.53a96.91,96.91,0,0,1-17.93.36A136.68,136.68,0,0,1,1654.09,411.55Z"/><path class="cls-8" d="M1560.45,388.73c-7.15-1.31-14.33-2.72-21.48-3.88s-14.32-2.26-21.52-3.25c-.43-5.67,9.09-8.2,20.65-7.64A68.3,68.3,0,0,1,1556,377.3c5.79,1.91,11.06,4.58,14.81,8C1566.72,386.2,1562.69,387.12,1560.45,388.73Z"/><path class="cls-8" d="M1335,373.22c-16.32-.22-4.36-5.79-7.29-9.19,12.21-2.06,27.14-1.5,40.09.36s24.12,5,29,7.82c5.71,7.34-4.2,7.24-18.29,5.43S1346,372.5,1335,373.22Z"/><path class="cls-8" d="M871.69,474.4c-3.62,5.22-11.11,9.07-18.83,12.71s-15.68,7-20.37,10.69c-6.83,2.19-13.2,4.24-18.92,5.76a121.32,121.32,0,0,1-14.75,3.14c-8,1-12.1-.56-9.81-6.3l9.67-5.86,9.8-5.64,9.84-5.57,4.94-2.74,5-2.61L850,476C857.23,475.38,864.49,474.92,871.69,474.4Z"/><path class="cls-10" d="M86.81,1002.35a102.25,102.25,0,0,0-13.49,8.1l-6.14,4.2c-1,.68-2,1.34-3,2l-1.46.91-1.41.85c-1,.55-1.91,1.08-2.88,1.56l-1.48.7c-.47.2-.93.39-1.41.57a27.43,27.43,0,0,1-2.91.93c-.5.13-1,.25-1.52.35a15.33,15.33,0,0,1-1.52.24,24.68,24.68,0,0,1-6.37-.2,33.12,33.12,0,0,1-6.89-2.38c6.22-1.85,13.74-4.52,22.47-7.73l13.91-5.07Q79.73,1004.83,86.81,1002.35Z"/><path class="cls-7" d="M242.78,1124c4.38-4.39,8.69-8.83,13.1-13.18l13.43-12.9c5.32-6.36,10-11.52,13.76-16.07s6.86-8.35,9.37-11.69a126.93,126.93,0,0,0,10.77-15.59l6.61-5.91c2.21-2,4.51-3.86,6.77-5.8l13.61-11.63c2.25-2,4.61-3.84,6.93-5.74l7-5.71,7-5.71,3.49-2.86,3.56-2.78c9.53-7.39,18.92-14.94,28.66-22,4.83-3.58,9.61-7.2,14.46-10.72l14.63-10.33,5.17,10,6-4.13,3.3-2.27,3.73-2.44,4,8-2.88,2.57-2.74,2.55-5.26,4.85q-5.1,4.69-9.62,8.73c-3,2.66-5.81,5.25-8.44,7.59s-5.1,4.49-7.44,6.43c-9.41,7.68-16.31,12.52-22.32,14.4l-9.18,7.16c-3,2.41-6,4.9-9,7.35l-9,7.35-4.49,3.68-4.4,3.77-17.6,15.09-17.21,15.45q-34.09,31.2-65.64,64.51c-5.9,8.31-10,11.08-13.74,12.19a31.87,31.87,0,0,1-5.63.89,26.22,26.22,0,0,0-6.21,1.33l2.92-4.59,3.12-4.57,6.42-9.28,6.48-9.24Z"/><path class="cls-10" d="M237,1116.64l6.6-6.66c2.21-2.21,4.36-4.48,6.65-6.62l13.53-13a77.94,77.94,0,0,0,4.58-7c5.93-5.08,11.63-9.83,17.31-14.57,2.82-2.4,5.74-4.69,8.68-7s5.89-4.74,8.91-7.21a126.93,126.93,0,0,1-10.77,15.59c-2.51,3.34-5.56,7.16-9.37,11.69s-8.44,9.71-13.76,16.07l-13.43,12.9c-4.41,4.35-8.72,8.79-13.1,13.18Z"/><path class="cls-10" d="M434.05,966.59q7.59-5.82,15.17-11.61l3.81-2.87,3.9-2.76q3.9-2.76,7.86-5.45c12.75-2.1,25.86-11,40.76-19.85,9.16-2.52,18.2-5.1,28.71-8.31-7,5.52-14.22,11.48-21.46,17.33l-2.7,2.19-2.66,2.26L502.16,942l-10.33,8.73-27,11.62c-4.49,1.86-8.83,3.93-13.29,5.94s-8.93,4.11-13.49,6.27Z"/><path class="cls-10" d="M661.51,847.88a105,105,0,0,0,15.21-9.6c2.29-1.7,4.5-3.45,6.67-5.22l6.58-5.19c4.41-3.46,8.93-6.91,14-10.18,1.28-.81,2.59-1.62,3.94-2.4s2.78-1.51,4.24-2.24c2.92-1.45,6-2.83,9.4-4.11,4.75-.55,9.86-1.26,15-1.93s10.29-1.21,15.05-1.68l-8.38,6-4.17,3-4.13,3.06-16.46,12.26c-5,1.32-9.72,2.85-14.48,4.29l-14.15,4.39-3.52,1.11-3.5,1.18-7,2.4Z"/><path class="cls-10" d="M1143.44,711.07a127.7,127.7,0,0,1,16.51-6,160.52,160.52,0,0,1,17.45-3.85c5.93-1,11.95-1.84,18-2.41s12.23-1,18.36-1.45c8.09.66,15.8,1.66,23.48,2.6l23.46,2.81c7.47-1.84,15.35-3.88,23.48-5.84s16.49-3.83,24.87-5.64c8.44-2.47,18.08-4.05,32.56-4.71,7.25-.23,15.71-.19,25.84.13,5,.13,10.55.5,16.5.86s12.39.84,19.35,1.43l-23.95,6.79c-8.27.06-16.11.32-24,.49l-11.82.29c-4,.1-8,.28-12.09.41a179.49,179.49,0,0,1-17.72,14.19c-4.91.67-9.91,1.87-14.87,3-16.25-.23-30.84-.19-47.13.34-9.73.75-21.18,1.54-30.89,2.33-12.85-1.17-25.79-2.41-38.68-3.25l-19.4-1.38Z"/><path class="cls-10" d="M1594.76,694.47c18.78,3.2,33.11,5.57,42.68,6.37s14.39.18,14.13-2.44c.26,2.62-4.57,3.21-14.13,2.44S1613.54,697.67,1594.76,694.47Z"/><path class="cls-10" d="M1820.57,365.27c10.81.31,24.2,4.07,37.73,7.89l10.14,2.92c3.36,1.06,6.69,2.1,10,3.07,6.55,2,12.84,3.64,18.62,4.75l5.81,5.08,5.74,5.28,11.29,10.56-11.29-10.56-5.74-5.28L1897,383.9c-5.78-1.11-12.07-2.8-18.62-4.75-3.27-1-6.6-2-10-3.07l-10.14-2.92C1844.77,369.34,1831.38,365.58,1820.57,365.27Z"/><path class="cls-10" d="M1514.8,318c-3.3,1.81-9.09,4.1-20,4.29-2.73.05-5.78,0-9.2-.28-1.7-.13-3.5-.3-5.4-.52s-3.86-.44-6-.73a269.87,269.87,0,0,1-30.19-6.29c12,.64,23.61,1.22,35.2,1.7Z"/><path class="cls-7" d="M1285,313.68c-9-2.08-18.23-3.59-27.56-5.11-21.39,2.65-43,6.12-64.73,9.62l-9.85-.09-9.52-.14-9.53-.19-10-.1a64,64,0,0,1-8.21,2.84c-7.84.59-13.75,1-19.71,1.5-19.53-2.58-37.36-5.28-57.4-7.27l-9,1.2c-3,.38-6,.92-9,1.38-12,2.89-23.57,5.38-34.68,8.35l-16.55,4.24c-2.75.67-5.45,1.43-8.15,2.19L983,334.38c-4-.59-6-1.58-10.08-2.6-9,.4-18.28,1.32-27.93,2.14-4.82.44-9.74.81-14.64,1.31l-14.78,1.5c3.64-3.64,8.73-6.79,14.68-9.62a184.66,184.66,0,0,1,20-7.32c3.57-1.11,7.19-2.22,10.84-3.25l10.91-3c7.17-2,14-4.09,20-6.39l21.53-4.49c3.65-.74,7.27-1.59,11-2.26l11.08-2.08,11.1-2.08c3.69-.68,7.37-1.43,11.08-2l21.94-3.57c2.57-.33,5.14-.69,7.68-1l7.51-.81c4.9-.51,9.58-1.07,13.69-1.41,3.92,2,7.82,4,9.62,6.16,3,.09,6.22.11,9.41.23l9.71.32c6.52.18,13,.51,18.9.86a178.55,178.55,0,0,0,21.34-12.28c12-1,26.1-2.31,38-3,5.79,1.26,11.36,2.68,19,4-.74,4.77-1.37,8.81-2.12,13.56l13.3,1.14c4.27.37,8.57.7,13.29,1.23,7.46,1,12.23,1,15.65.5a22.9,22.9,0,0,0,7.55-2.5c4.14-2,8.37-4.06,23.06-1.74,16.34,2.86,4.09,7.56-12.75,17.85Z"/><path class="cls-10" d="M1156.22,295.07c-5.94-.35-12.38-.68-18.9-.86l-9.71-.32c-3.19-.12-6.37-.14-9.41-.23-1.8-2.2-5.7-4.19-9.62-6.16,22.56-2.23,47-3.81,69-4.71A178.55,178.55,0,0,1,1156.22,295.07Z"/><path class="cls-10" d="M1125.92,322a117,117,0,0,1-19.06,5.14c-7.08,1.46-14.82,2.47-23,3.72s-16.9,2.2-25.87,3.47-18.19,2.85-27.56,4.59c-5.87,2.46-12.18,5.23-18.49,7.94s-12.59,5.41-18.31,8.13c-4.81.91-9.5,1.77-14.14,2.6s-9.23,1.58-13.77,2.51c-9.08,1.8-18.24,3.46-27.8,5.42l-25.29,6.34c-8.31,2.17-16.5,4.44-24.73,6.64l-6.18,1.66-6.12,1.77-12.27,3.57c-4.1,1.2-8.24,2.37-12.36,3.61L838.58,393c4-10.74,8-21.57,14.32-32.82l15.47-6.05,3.87-1.52,3.91-1.44,7.84-2.9,15.68-5.85c5.25-1.94,10.57-3.77,15.86-5.69l14.78-1.5c4.9-.5,9.82-.87,14.64-1.31,9.65-.82,19-1.74,27.93-2.14,4.08,1,6.07,2,10.08,2.6l8.09-2.28c2.7-.76,5.4-1.52,8.15-2.19l16.55-4.24c11.11-3,22.67-5.46,34.68-8.35,3-.46,6-1,9-1.38l9-1.2C1088.56,316.73,1106.39,319.43,1125.92,322Z"/><path class="cls-7" d="M852.9,360.18c-6.29,11.25-10.35,22.08-14.32,32.82l-12.25,4.59c-4.08,1.49-8,3.15-12,4.71L802.43,407c-4,1.56-7.9,3.13-11.78,4.78l-23.42,9.77-23.49,10.15c-2.38,1.22-4.73,2.47-7.07,3.74l-7,3.75-14.1,7.42-27.89,15c-6.27,1.67-12.12,3.16-17.79,4.55s-11.15,2.67-16.56,4.07c-15.91,5.23-10.21-8-13.74-13,8.73-9.61,21-15.29,31.31-20.22,5.16-.8,10.42-1.48,15.65-2.21l15.8-2.18c5.27-.77,10.72-1.42,16.17-2.15l16.64-2.26c5.32-9.87,12.78-20,20.28-30.13C787.71,384.15,819,371.7,852.9,360.18Z"/><path class="cls-10" d="M735.12,428.26l-16.64,2.26c-5.45.73-10.9,1.38-16.17,2.15l-15.8,2.18c-5.23.73-10.49,1.41-15.65,2.21,27.7-13.41,55.73-26.8,84.54-38.93C747.9,408.3,740.44,418.39,735.12,428.26Z"/><path class="cls-10" d="M679.81,468l-14,7.79c-4.74,2.61-9.41,5.38-14.15,8.08L637.59,492,624,500.07,591.2,512.16l-8.1,3-8.05,3.1c-5.39,2.09-10.84,4.22-16.38,6.44,7.15-12.38,16.06-25.82,23.62-38.19l14-7.38,14.46-7.4c4.84-2.47,9.65-5,14.48-7.37l14.32-7.07c3.53,5-2.17,18.23,13.74,13,5.41-1.4,10.91-2.67,16.56-4.07s11.52-2.88,17.79-4.55A38,38,0,0,0,679.81,468Z"/><path class="cls-10" d="M463.91,637.19c-9.25,5.58-19.81,12.22-29,17.88-1.85-4.28-3.71-8.62-5.42-12.58,6.71-6.88,11.82-12.84,18.59-19.73,5-2,10.34-4.25,15.65-6.59l7.88-3.52,7.6-3.32C475,617.81,469.54,627.74,463.91,637.19Z"/><path class="cls-7" d="M558.67,524.69c-3.29,4.43-7.34,7.83-12.14,11.29s-10.28,7-16.15,12l-7.1,6.76c-21.14,15.81-43.53,32.41-64.18,48.16l-15.45,9.42c1.65,3.89,3,7.09,4.43,10.42-6.77,6.89-11.88,12.85-18.59,19.73l-27.33,3.92c2-4,4.17-8.13,4.77-11.26l-20,7.56q-10,3.76-20.09,7.34c-8.67,6.62-18.77,14.25-27.6,20.49-11.52,8.59-23.29,16.77-34.79,25.41L283.7,709.54c-32.64,8.58-26.56-3.23-31.72-6,13.78-15.81,55.62-34.25,54.13-46,22.4-14.61,48.17-31.12,72.62-46.54,9.18-5.79,18.75-11.83,28.64-17.93l14.93-9.24,15.2-9.26c6.53-5.39,12.22-9.8,17.21-13.55s9.3-6.85,13.23-9.54c7.93-5.34,14.3-9.07,21.47-13.28q45.52-26.49,92.88-51.69C574.73,498.87,565.82,512.31,558.67,524.69Z"/><path class="cls-10" d="M402.16,646.41,381,659.86l-10.7,6.81-10.35,6.66a127,127,0,0,1-20.68-2.79c8.83-6.24,18.93-13.87,27.6-20.49q10.13-3.56,20.09-7.34l20-7.56C406.33,638.28,404.21,642.38,402.16,646.41Z"/><path class="cls-7" d="M1574.6,304.4c4.44,11.82-10.49,12.81-26.51,12.06-15.95-.55-33.1-2.92-33.29,1.52l-35.55-1.83c-11.59-.48-23.2-1.06-35.2-1.7-7.23-.71-14.44-1.55-21.66-2.44l-21.6-2.69c.61-2.88,1.16-5.48,1.87-8.78-22.82-5.56-45.41-11.42-66.86-17,2.15-1.3,6.15-2.53,8.27-3.84,18.54.83,36.65,1.77,53.18,2.76,8.59,3.31,17,7,25.57,10.45l16.76,1.11,8.83.6,9.43.73c7.74-.81,15.5-1.73,23.27-2.65s15.68-1.65,23.52-2.36c11.85,2.17,23.41,4.5,34.9,6.74S1562.62,301.8,1574.6,304.4Z"/><path class="cls-6" d="M724.62,822.66c-7.46,4.2-17.17,8.05-28.33,11.68-11.11,3.8-23.64,7.48-36.79,11.06s-26.84,7.4-40.34,11.2c-6.74,1.91-13.43,3.84-20,5.79s-12.84,4.16-18.92,6.28l-18.65,3.24c-6.24,1.1-12.53,2.14-18.82,3.4l-38.71,7.59c-4.69,2.29-9.71,4.71-15,7s-11,4.59-16.77,6.83-11.79,4.45-17.85,6.63l-18.16,6.77-17.91,6.69c-5.85,2.24-11.58,4.36-17,6.7a255.88,255.88,0,0,0-28.34,13.68,75.67,75.67,0,0,0-14.69,1.36A177.09,177.09,0,0,0,340.91,943c-6.23,1.9-12.84,4.17-19.73,6.69-3.45,1.26-7,2.59-10.53,4l-10.81,4.43-22.37,9.43-11.42,4.82c-3.82,1.61-7.6,3.31-11.41,4.93-7.61,3.27-15.22,6.46-22.74,9.45s-15,5.75-22.13,8.37c-11.23,10.31-25.21,15.1-40.3,19.33s-31.23,8-46.79,15.66c-13,5.93-26.56,12-40.31,18.16l-9.89,4.46-4.6,2-2.28,1-2.16.94c-5.89,2.61-11,4.71-15.88,6.59l-3.47,1.31c-.6.24-1.11.4-1.64.59l-1.57.54-1.57.56c-.54.21-1,.3-1.45.46l-2.8.91-2.47.69-1.21.36-1,.23-2,.52c-.56.09-1.12.2-1.66.33a6.23,6.23,0,0,1-.78.17l-.63.09-.63.12a2.47,2.47,0,0,1-.56.12c-.56,0-1.26.26-1.5.22a1.25,1.25,0,0,0-.26.07c-.07,0-.2.1-.21.07a.27.27,0,0,0-.22.09.48.48,0,0,0-.1.09v0l0,.31c-.05.42-.11.84-.18,1.27l74.75,166q6.54-10.08,12-19.31c4-4.89,8.22-9.65,12.32-14.48l6.19-7.2c2.08-2.39,4.09-4.82,6.3-7.1-.49.77-.95,1.51-1.38,2.21s-.79,1.42-1.15,2.08c-.7,1.32-1.29,2.53-1.78,3.63a23.4,23.4,0,0,0-1.8,5.45c-.5,2.93.27,4.58,1.61,5.76,2.68,2.36,7.6,2.84,9.19,7.69-2.83,3.72-5.76,7.45-8.52,11.2l-15.78,21.81-91.9-177.72c.47-3.16.66-6.62.48-14.57,0-.92-.09-1.82-.16-2.72l-.13-1.33c0-.19,0-.5,0-.81l-.05-.92-.09-1.53h0s0,0,.05,0,0,.08.09,0l.26,0a2.37,2.37,0,0,1,.53,0c.16,0,.42-.1.72-.15l.48-.06.26,0c.09,0,.23-.06.34-.08a14.34,14.34,0,0,1,1.82-.48c.76-.24,1.56-.47,2.36-.66.37-.07.86-.24,1.35-.39l1.46-.42.74-.2.38-.1.42-.14,1.72-.54c4.63-1.43,10.34-3.33,17.05-5.82s14.4-5.53,23-8.91l25.9-10.09c17-6.76,33.63-13,48.82-19.45s29.14-12.81,40.91-19.54l13.58-6.85,6.8-3.41,6.84-3.33,27.4-13.27,9.45-3.8c3.13-1.25,6.28-2.42,9.39-3.63l18.59-7.13L300.9,935c6.24-2.35,12.58-4.62,19-7l28.29-10.34c9.47-3.37,19-6.62,28.51-9.93l14.56-4.59,7.44-2.29,7.53-2.16c10.05-2.87,20.12-5.68,29.75-8.35q5.22-1.51,10.45-3c3.49-.95,7-1.83,10.52-2.74,7-1.81,14.08-3.62,21.1-5.56,4.54-.17,8.63-.22,12.72-.26l12.7-.17c12.1-5,22.42-9.41,32.74-14.35,10.55-2.66,20.78-4.81,30.72-7.12s19.68-4.56,29.4-6.9c8.85-2.47,20.41-4.9,31.42-8.2a125.16,125.16,0,0,0,15.72-5.74,49.48,49.48,0,0,0,12.6-7.55l29.62-4.71,7.4-1.16,7.44-1.05,14.88-2.09C719.09,821,722.72,821.62,724.62,822.66Z"/><path class="cls-9" d="M646.58,823.85c2,1.93,5.79,3.44,9.5,5C652.37,827.29,648.55,825.78,646.58,823.85Z"/><path class="cls-8" d="M268.31,1083.4a77.94,77.94,0,0,1-4.58,7A77.94,77.94,0,0,0,268.31,1083.4Z"/><path class="cls-8" d="M626.79,508.6c4.05.55,8.08,1.11,10.47,2.51C634.87,509.71,630.84,509.15,626.79,508.6Z"/><path class="cls-10" d="M751.61,805.33q5.8-3.35,11.46-6.35c3.78-2,7.54-3.78,11.23-5.53s7.35-3.4,11-5l5.37-2.3,5.34-2.1c7.08-2.72,14-5.18,20.74-7.47s13.46-4.15,20-6.06l9.73-2.79,9.64-2.57c6.39-1.7,12.68-3.45,19-5.24s12.64-3.54,19-5.56c3.15-1,6.29-2.09,9.47-3.16s6.37-2.18,9.58-3.38c4.8-.44,10-1,15.16-1.5s10.39-.92,15.19-1.31c6.36-.92,12.68-2,19.05-3s12.74-1.92,19.11-2.76a215.8,215.8,0,0,1-14.43,21.08c-1.6.32-4.72,1-6.28,1.37-5.9.61-11.72,1.17-17.5,1.7l-8.64.79-8.58.91-17.23,1.83c-5.78.63-11.56,1.45-17.47,2.24-14,3.52-29.3,7.91-43.09,11.73a79,79,0,0,0-23.64,8.19c-6.43,3.36-12.14,7.09-19.62,9.92l-6.56.61-3.33.32-3.33.39-13.49,1.61-13.54,1.63Z"/><path class="cls-10" d="M1403.34,689c12.4.46,14.7-1.29,20-3.4a52.41,52.41,0,0,1,11.78-3.16,205.36,205.36,0,0,1,26.1-2l15,.32c5.74.81,11,1.62,16.34,2.44l16.3,2.63c-.41,2.78-1,6-1.46,8.83l-16.83.81c-5.46.3-10.9.53-16.76.64-3.23-.65-6.39-1.16-10-1.63s-7.72-.83-12.84-1.3l-19-1.7C1424.15,690.85,1414.83,690.08,1403.34,689Z"/><path class="cls-10" d="M1810.91,362.48c-3.86,0-7.39,0-10.67-.06-1.64,0-3.22-.08-4.75-.15l-4.45-.14a123.78,123.78,0,0,1-16.27-1.72c-5.33-.92-10.82-2.28-17.21-4s-13.67-3.65-22.6-6.19l-7.72-.34-3.85-.16-3.82-.07-15.12-.24-14.71-.14c-4.81,0-9.49.14-14.07.24L1660.31,345l-7.84-2.3-7.87-2.14-15.7-4.25c-5.19-1.4-10.36-2.87-15.35-4.11-15.67-.28-31.14-1.1-46.46-1.42-6.64-3.83-12.94-7.48-20.95-9.87s-17.75-3.62-31.34-2.91c.19-4.44,17.34-2.07,33.29-1.52,16,.75,31-.24,26.51-12.06,11.31,1.26,24.73,3.23,36.21,4.79q3.21,1.68,6.43,3.28l6.48,3.21,13,6.36,18.07,3.57,17.82,3.85,17.82,3.8,18.29,4.16,8.9,1.83,4.9,1c1.71.34,3.51.73,5.44,1.19C1755,347.52,1783.84,354.49,1810.91,362.48Z"/><path class="cls-10" d="M1820.57,365.27l-9.66-2.79Z"/><path class="cls-10" d="M1285,313.68c-17.57,3.79-31.68,8.4-47.46,12.59-8.37-1.32-15.76-2.72-23-4l-21.81-4.07c21.69-3.5,43.34-7,64.73-9.62C1266.76,310.09,1276,311.6,1285,313.68Z"/><path class="cls-10" d="M1292.52,313.85l-7.53-.17Z"/><path class="cls-7" d="M687.64,461.66a38,38,0,0,0-7.83,6.29A38,38,0,0,1,687.64,461.66Z"/></g></g></g></svg>